<svg version="1.2" xmlns="http://www.w3.org/2000/svg" viewBox="0 0 1557 884" width="1557" height="884">
	<title>logo-color-d-svg</title>
	<defs>
		<linearGradient id="g1" x1="325.3" y1="441.7" x2="1399.8" y2="441.7" gradientUnits="userSpaceOnUse">
			<stop offset=".32" stop-color="#f7cc46"/>
			<stop offset=".44" stop-color="#7ffaea"/>
			<stop offset=".51" stop-color="#95bdff"/>
			<stop offset=".78" stop-color="#aa2894"/>
		</linearGradient>
	</defs>
	<style>
		.s0 { fill: #000000 } 
		.s1 { fill: url(#g1) } 
	</style>
	<path id="Layer" class="s0" d="m1235.4 628.6v-108.8c0-31.7-10.1-43.4-30.9-43.4-23.1 0-33.5 13.9-33.5 40.5v111.7h-60.5v-111.4c0-26.2-9.4-40.8-30.1-40.8-23.7 0-34.2 15.3-34.2 43.4v108.8h-60.5v-202.3h56.4v21.5h0.8c10.5-18.9 29.8-28.4 55.7-28.4 25.9 0 45.5 13.1 58.2 36 3.3-5.5 7.3-10.6 11.8-15.1 4.6-4.5 9.8-8.4 15.4-11.5 5.6-3.2 11.6-5.5 17.8-7.1 6.2-1.6 12.6-2.4 19.1-2.3 45.1 0 75.1 27.7 75.1 84.1v124.9z"/>
	<path id="Layer" fill-rule="evenodd" class="s1" d="m458.5 1.2q8.8 1.2 17.3 3.8 8.5 2.5 16.5 6.3 8.1 3.8 15.4 8.9 3 2.1 5.9 4.5 2.9 2.3 5.7 4.8 2.7 2.6 5.4 5.2 2.6 2.7 5 5.5c4.5 5.3 8.4 10.9 11.9 16.8 3.4 6 6.4 12.2 8.7 18.7 2.4 6.5 4.1 13.1 5.3 19.9 1.2 6.8 1.8 13.7 1.7 20.5 0 6.9-0.7 13.7-1.9 20.4-1.3 6.8-3.2 13.3-5.6 19.7-2.5 6.4-5.5 12.6-9.1 18.4-3.6 5.8-7.7 11.3-12.3 16.4l-1 1-6.5 6.2c-11 10.4-23.3 26.3-19.9 42.1q1.2 4.1 3.3 7.9 2 3.7 4.9 6.9 2.9 3.2 6.4 5.6 3.5 2.4 7.5 4l0.8 0.4 3 1.5h0.7l0.9 0.4q2 1 3.9 2.1 1.9 1.1 3.7 2.4 1.8 1.3 3.4 2.7 1.6 1.5 3.1 3.1 1 1.3 2 2.6 0.9 1.3 1.8 2.6 0.8 1.4 1.5 2.8 0.8 1.5 1.4 3v0.5q0 0 0 0.1 0 0.1 0 0.1 0 0.1 0 0.2 0 0 0 0.1l1.4 4v0.7c1.2 2.9 10.9 12.9 30.1 20.6q3.9 1.6 7.9 2.9 4 1.3 8.1 2.2 4.1 0.9 8.3 1.4 4.1 0.5 8.3 0.6 3.1 0.2 6.2-0.2 3.1-0.3 6-1.2 3-0.9 5.8-2.3 2.7-1.4 5.2-3.3l4.9-4.4q0.2-0.2 0.4-0.3 0.2-0.2 0.4-0.4 0.3-0.1 0.5-0.3 0.2-0.2 0.5-0.3 0.4-0.3 0.8-0.5 0.4-0.3 0.8-0.5 0.4-0.2 0.8-0.4 0.4-0.2 0.9-0.4c12.5-7.7 27.1-11.2 41.8-10.3 14.6 1 28.6 6.5 40.1 15.7 11.4 9.2 19.7 21.8 23.7 35.9 4 14.1 3.5 29.2-1.3 43q-0.2 0.5-0.3 1.1-0.2 0.5-0.2 1-0.1 0.5-0.2 1.1-0.1 0.5-0.1 1-0.2 4 0.5 7.9 0.7 3.9 2.2 7.5 1.5 3.7 3.7 6.9 2.3 3.2 5.2 5.9 2.7 2.2 5.7 3.9 3 1.6 6.3 2.7 3.3 1.1 6.7 1.6 3.4 0.5 6.9 0.3 2 0 4-0.1 2.1-0.1 4.1-0.4 2-0.2 4-0.6 2-0.3 4-0.8l5.7-1.3h3.5q1.5-0.2 3-0.4 1.6-0.1 3.2-0.2 1.5-0.1 3.1-0.2 1.5-0.1 3.1-0.1 3.1 0 6.2 0.2 3.1 0.2 6.1 0.6 3.1 0.4 6.1 1 3.1 0.6 6.1 1.4 0.3 0 0.7 0 0.4 0.1 0.7 0.2 0.4 0.1 0.7 0.2 0.4 0.1 0.7 0.2l5.4 1.9q1.7 0.6 3.3 1 1.7 0.4 3.4 0.7 1.6 0.3 3.3 0.4 1.7 0.2 3.5 0.2 2.8 0 5.6-0.4 2.8-0.3 5.5-1.1 2.7-0.7 5.3-1.8 2.6-1.1 5-2.5c16.8-10.2 22.2-30.2 14.8-54.9-4.1-14.1-6.2-28.7-6.2-43.4 0.1-14.6 2.2-29.2 6.4-43.3 4.2-14 10.4-27.4 18.5-39.7 8-12.3 17.7-23.3 28.9-32.8q2.3-2 4.6-3.8 2.4-1.9 4.8-3.6 2.4-1.8 4.9-3.4 2.5-1.7 5-3.2c19.6-12.1 41.6-19.5 64.5-21.8 22.9-2.2 46 0.7 67.5 8.7 21.6 7.9 41.1 20.7 57 37.2 15.9 16.6 27.8 36.6 34.9 58.5 7.7 23.3 19.6 38.5 34.3 43.9q1.6 0.6 3.2 1 1.6 0.4 3.2 0.7 1.7 0.3 3.4 0.5 1.6 0.1 3.3 0.1 3.2-0.1 6.3-0.6 3.1-0.5 6.1-1.4 3.1-0.9 5.9-2.3 2.9-1.3 5.6-3 1.2-0.7 2.4-1.5 1.1-0.8 2.2-1.6 1.2-0.9 2.2-1.8 1.1-1 2.1-2l3.4-3.5c0.3 0 0.8 0 0.8 0q0.2-0.2 0.4-0.3 0.3-0.2 0.5-0.4 0.2-0.1 0.5-0.3 0.2-0.1 0.5-0.3c14.7-10.9 33-15.7 51.1-13.5 18.1 2.2 34.7 11.3 46.4 25.4 11.6 14.1 17.4 32.1 16.1 50.4-1.3 18.2-9.6 35.2-23 47.5q-1.8 1.5-3.7 2.9-1.8 1.4-3.8 2.6-1.9 1.3-4 2.4-2 1.1-4.1 2.1l-0.7 0.3h-0.7l-4.6 2h-0.6q-0.9 0.3-1.7 0.6-0.8 0.3-1.6 0.7-0.7 0.4-1.5 0.8-0.8 0.4-1.5 0.8-3.5 2.4-6.3 5.5-2.8 3.1-4.9 6.7-2 3.6-3.2 7.6-1.2 4-1.4 8.2-0.6 3.2-0.6 6.4 0.1 3.3 0.6 6.5 0.6 3.2 1.7 6.2 1.1 3.1 2.7 5.9l2.9 2.8q0.2 0.2 0.4 0.4 0.2 0.2 0.4 0.4 0.1 0.1 0.3 0.4 0.2 0.2 0.3 0.4v0.4q0.5 0.6 0.9 1.2 0.4 0.6 0.8 1.3 0.3 0.7 0.7 1.3 0.3 0.7 0.6 1.4l0.3 1q1.1 2.2 2 4.6 0.8 2.3 1.3 4.8 0.4 2.5 0.6 5 0.1 2.5-0.1 5c-0.4 4.6-1.7 9.1-3.8 13.2-2.1 4.1-4.9 7.8-8.3 11-3.4 3.1-7.4 5.5-11.7 7.2-4.3 1.7-8.9 2.5-13.5 2.6-5.2 0-10.3-1.1-15-3.1-4.8-2.1-9-5.2-12.5-9-3.5-3.8-6.2-8.3-7.9-13.2-1.6-4.9-2.3-10-1.8-15.2q0.3-3.7 1.3-7.2 1-3.5 2.6-6.8 1.7-3.3 4-6.1 2.3-2.9 5.1-5.3 0.7-0.6 1.5-1.1 0.7-0.6 1.5-1.1 0.7-0.6 1.5-1 0.8-0.5 1.6-1c3.7-2.4 10.7-14.3 11.1-29.2 0.2-2.9 0.1-5.7-0.4-8.5-0.6-2.8-1.5-5.5-2.7-8-1.2-2.6-2.8-5-4.6-7.1-1.9-2.2-4-4.1-6.3-5.7l-0.6-0.4-4.1-3.2-0.7-0.5-0.5-0.4q-1.1-0.9-2.2-1.9-1.1-1-2.1-2-1.1-1.1-2.1-2.1-1-1.1-1.9-2.2l-0.9-1q-0.5-0.5-0.9-1-0.4-0.4-0.8-0.9-0.4-0.5-0.7-1-0.4-0.5-0.8-1.1 0 0-0.1-0.1 0-0.1-0.1-0.1 0-0.1-0.1-0.2 0-0.1-0.1-0.1l-2.8-4.9q-2.4-3.9-5.4-7.2-3.1-3.4-6.7-6.2-3.6-2.7-7.7-4.7-4.1-2-8.4-3.3-1.2-0.3-2.3-0.5-1.2-0.2-2.3-0.3-1.2-0.2-2.4-0.2-1.1-0.1-2.3-0.1-2.9 0-5.7 0.4-2.8 0.5-5.6 1.3-2.7 0.8-5.3 2-2.6 1.2-5 2.7-3.9 2.6-7.5 5.6-3.6 3-6.8 6.3-3.3 3.4-6.1 7.1-2.9 3.7-5.3 7.6c-10 15.7-22.7 29.4-37.5 40.5-14.9 11-31.6 19.3-49.4 24.4-17.9 5-36.5 6.8-54.9 5.2-18.5-1.6-36.5-6.6-53.2-14.6q-3.2-1.7-6.5-3-3.4-1.3-6.9-2.2-3.5-0.9-7.1-1.4-3.5-0.5-7.2-0.6-2.6 0-5.2 0.3-2.6 0.4-5.2 1.1-2.5 0.6-5 1.7-2.4 1-4.7 2.4c-3.3 2.1-6.4 4.7-8.9 7.8-2.6 3-4.8 6.4-6.4 10-1.6 3.7-2.6 7.5-3.1 11.5-0.5 4-0.4 8 0.3 11.9l1 5.4q0.1 0.4 0.1 0.7 0 0.4 0 0.7 0 0.4 0 0.7 0 0.4-0.1 0.7c0.8 7.8 0.6 15.7-0.6 23.5-1.1 7.7-3.2 15.3-6.2 22.5-2.9 7.3-6.7 14.2-11.3 20.5-4.6 6.3-10 12.1-16 17.2q-3.7 3.2-7.8 5.9-4.1 2.8-8.4 5.2-4.3 2.4-8.9 4.3-4.5 1.9-9.2 3.4c-21.3 6.9-34.2 19.4-36.1 35.2q-0.4 5.1 0.3 10.1 0.8 5 2.6 9.7 1.8 4.7 4.6 9 2.9 4.2 6.5 7.7l3.7 3.7q0.1 0.1 0.2 0.2 0.1 0.1 0.2 0.2 0.2 0.2 0.3 0.3 0.1 0.1 0.2 0.3c2.9 3.5 5.5 7.3 7.6 11.3 2.2 4 4 8.2 5.3 12.6 1.3 4.4 2.2 8.9 2.7 13.4 0.4 4.6 0.4 9.1 0 13.7-0.7 8.8-3.1 17.5-7 25.4-3.9 8-9.2 15.2-15.8 21.2-6.5 6-14.1 10.7-22.3 13.9-8.3 3.3-17.1 4.9-25.9 4.9-2 0-9.3 0-11.2 0q-1.9-0.3-3.8-0.5-1.9-0.3-3.9-0.4-1.9-0.2-3.8-0.3-2-0.1-3.9-0.1-4-0.1-7.9 0.4-3.9 0.4-7.7 1.3-3.8 1-7.5 2.5-3.6 1.4-7 3.4-4.5 2.9-8.2 6.6-3.7 3.7-6.6 8.1-2.9 4.5-4.8 9.4-1.9 4.9-2.7 10.1l-0.6 3.4c0 0.3 0 1.5 0 1.5q-0.7 2.5-1.9 4.9-1.1 2.4-2.5 4.6-1.5 2.2-3.3 4.2-1.8 1.9-3.8 3.6-0.6 0.5-1.1 0.9-0.6 0.5-1.2 0.9-0.5 0.4-1.1 0.8-0.6 0.4-1.2 0.8c-5.8 3.5-12.5 5.4-19.4 5.4-6.8 0-13.5-1.9-19.2-5.5-5.8-3.6-10.5-8.8-13.5-14.9-3-6.1-4.3-12.9-3.7-19.7q0.3-3.6 1.3-7.1 1-3.5 2.6-6.7 1.7-3.2 3.9-6 2.3-2.8 5.1-5.2 1.7-1.5 3.6-2.8 1.9-1.3 4-2.3 2.1-1.1 4.3-1.8 2.2-0.8 4.4-1.3h1.5l3.5-0.3q3.1-0.2 6.1-0.8 3-0.6 5.9-1.5 2.9-0.9 5.7-2.2 2.8-1.3 5.4-2.9c17.4-10.5 24.9-29.4 23.1-56.4q0 0 0-0.1 0-0.1 0-0.1 0-0.1 0-0.2 0 0 0-0.1v-4.7c0.1-5.1 0.6-10.2 1.8-15.2 1.1-5 2.7-9.8 4.9-14.4 2.2-4.7 4.8-9.1 7.9-13.1 3.1-4.1 6.6-7.8 10.5-11.1q1.4-1.2 2.8-2.4 1.5-1.2 3-2.2 1.5-1.1 3.1-2.1 1.6-1 3.2-1.8l0.6-0.4 1-0.4 5.3-2.2q1-0.5 2-0.9 1-0.5 1.9-0.9 1-0.5 2-1 0.9-0.6 1.8-1.1c2.8-1.6 5.4-3.4 7.8-5.6 2.4-2.2 4.5-4.6 6.3-7.3 1.8-2.6 3.3-5.5 4.4-8.5 1.1-3 1.9-6.1 2.3-9.3 0.7-9.6-2.3-24.3-21.1-40.5-6.8-5.8-12.7-12.5-17.7-20-5-7.4-8.9-15.5-11.6-24-2.8-8.6-4.4-17.4-4.7-26.4-0.4-8.9 0.5-17.9 2.6-26.6q0-0.4 0.1-0.8 0-0.4 0.1-0.8 0.1-0.4 0.2-0.8 0.1-0.4 0.2-0.8l2.1-6.1c6-17.2 5.3-31.8-1.9-42.2q-2.3-3.1-5.3-5.7-3-2.5-6.4-4.4-3.4-1.8-7.2-2.9-3.7-1.1-7.6-1.3h-1.4q-0.4 0-0.7 0-0.4 0-0.8 0.1-0.3 0-0.7 0.1-0.4 0-0.7 0.1c-6.3 1.5-12.9 2.1-19.4 1.8-6.5-0.2-12.9-1.4-19.1-3.4-6.2-2.1-12-4.9-17.4-8.6-5.4-3.6-10.3-7.9-14.6-12.9q-2.6-2.9-4.8-6.1-2.2-3.2-4.1-6.6-1.8-3.4-3.3-7.1-1.4-3.6-2.4-7.3v-0.7q0-0.1-0.1-0.2 0-0.2 0-0.3 0-0.1 0-0.3 0.1-0.1 0.1-0.2l-1.1-6.5c-2.4-15.7-21.8-26.3-30-30.1q-4.7-2.2-9.5-3.9-4.9-1.7-9.9-3-5-1.2-10.2-1.9-5.1-0.7-10.3-1-1.1-0.1-2.3 0-1.2 0-2.4 0.2-1.2 0.2-2.3 0.5-1.2 0.3-2.3 0.8l-4.5 3.3h-0.4l-0.6 0.4-1.1 0.6q-2.1 1-4.3 1.9-2.3 0.8-4.6 1.4-2.3 0.5-4.6 0.8-2.4 0.3-4.8 0.3-4.8-0.1-9.4-1.2-4.7-1.1-9-3.2-4.3-2.1-8.1-5.1-3.8-2.9-6.8-6.6c-2.7-3-5-6.3-6.7-9.9-1.7-3.6-3-7.4-3.6-11.4-0.7-3.9-0.7-8-0.3-11.9 0.5-4 1.6-7.9 3.2-11.6q0.1-0.2 0.2-0.4 0.1-0.2 0.2-0.4 0.1-0.2 0.2-0.4 0.1-0.2 0.3-0.4l0.2-0.4 2.5-4q2.1-3.7 3.3-7.8 1.3-4.1 1.5-8.4 0.2-4.3-0.5-8.5-0.8-4.3-2.5-8.2c-7.3-14.5-26.9-19-42-20.2-7.5-0.6-15-2-22.2-4.1-7.3-2.1-14.3-4.9-21-8.3-6.7-3.5-13.1-7.6-19-12.3-5.9-4.7-11.3-10-16.2-15.8q-2.3-2.7-4.4-5.6-2.2-2.9-4.2-5.9-1.9-3-3.7-6.2-1.8-3.1-3.4-6.3c-4.7-9.1-8.2-18.8-10.3-28.8-2.1-10.1-2.7-20.3-2-30.6 0.8-10.2 3-20.3 6.6-29.9 3.5-9.6 8.4-18.6 14.5-26.9q2.2-3.1 4.5-6 2.4-3 4.9-5.8 2.6-2.8 5.3-5.4 2.7-2.6 5.5-5.1 5-4.2 10.3-7.8 5.4-3.6 11.1-6.5 5.8-3 11.8-5.4 6-2.3 12.3-3.9 3.4-0.8 6.9-1.3 3.5-0.6 7.1-1 3.5-0.3 7.1-0.5 3.5-0.1 7.1-0.1 8.8-0.2 17.7 0.9zm-24.2 10.4q-3.2 0.1-6.4 0.4-3.2 0.3-6.4 0.8-3.2 0.5-6.3 1.2-5.7 1.5-11.1 3.6-5.5 2.1-10.7 4.8-5.1 2.7-10 5.9-4.8 3.3-9.3 7.1-2.6 2.2-5 4.5-2.5 2.4-4.8 5-2.3 2.5-4.4 5.2-2.2 2.7-4.1 5.5c-5.4 7.4-9.8 15.6-13 24.2-3.2 8.7-5.2 17.7-5.9 26.9-0.7 9.2-0.2 18.4 1.7 27.5 1.8 9 4.9 17.7 9.1 25.9 4 8.2 8.9 15.9 14.9 22.8 5.9 6.9 12.7 12.9 20.2 18.1 7.5 5.1 15.6 9.3 24.2 12.3 8.5 3 17.5 4.9 26.5 5.7 25.8 2.1 43.4 11.2 51.1 26.3 1.5 3.4 2.6 7.1 3.3 10.8 0.7 3.7 1 7.5 0.8 11.3-0.2 3.8-0.9 7.6-1.9 11.2-1.1 3.7-2.6 7.2-4.5 10.5l-2.6 4.1-0.3 0.5c-1.2 2.8-1.9 5.6-2.3 8.6-0.3 2.9-0.2 5.9 0.3 8.8 0.5 2.9 1.4 5.7 2.7 8.4 1.4 2.6 3 5.1 5 7.2q2.3 2.8 5.1 5.1 2.8 2.2 6 3.8 3.2 1.6 6.7 2.4 3.5 0.9 7.1 0.9 1.7 0 3.4-0.2 1.7-0.2 3.4-0.6 1.7-0.4 3.3-1 1.6-0.6 3.1-1.3l0.6-0.4 4.6-3.3q1.8-1 3.7-1.8 2-0.7 4-1.2 2-0.4 4-0.6 2.1-0.1 4.1 0 5.8 0.2 11.5 1 5.7 0.8 11.4 2.1 5.6 1.4 11 3.3 5.5 1.9 10.7 4.4c12.2 5.6 33.1 18.2 36.3 38.5l1 6.4v0.6q0.8 3.2 2 6.3 1.2 3.1 2.8 6 1.6 3 3.5 5.7 1.9 2.7 4.1 5.1c2.8 3.4 6 6.3 9.4 9 3.5 2.6 7.2 4.8 11.2 6.7 3.9 1.8 8.1 3.2 12.3 4.1 4.3 0.9 8.6 1.4 13 1.4q1.7 0 3.4-0.1 1.7-0.1 3.4-0.3 1.7-0.2 3.4-0.5 1.7-0.3 3.3-0.7 0.7-0.1 1.4-0.2 0.6-0.1 1.3-0.2 0.7-0.1 1.4-0.1 0.6 0 1.3 0h2.5q5.1 0.3 10 1.7 5 1.5 9.5 4 4.4 2.4 8.3 5.8 3.9 3.4 6.9 7.5c6.6 9.3 12.5 25.9 3.3 52l-2 6.2h0.2c-1.8 6.7-2.8 13.7-3 20.7-0.1 7 0.6 13.9 2.1 20.8 1.5 6.8 3.8 13.4 6.9 19.7 3.1 6.3 6.9 12.2 11.4 17.5q1.1 1.3 2.3 2.6 1.1 1.3 2.3 2.5 1.3 1.2 2.5 2.4 1.3 1.1 2.6 2.2c22.2 19.2 25.8 37.6 24.8 49.7-0.5 4-1.4 8-2.8 11.9-1.4 3.8-3.2 7.5-5.5 10.9-2.2 3.4-4.9 6.5-7.9 9.3-3 2.8-6.3 5.2-9.8 7.2q-1.1 0.7-2.3 1.3-1.1 0.6-2.3 1.2-1.1 0.6-2.3 1.1-1.2 0.6-2.4 1.1l-5.3 2.2-0.6 0.3q-1.4 0.8-2.7 1.6-1.3 0.8-2.6 1.7-1.2 0.9-2.4 1.9-1.2 1-2.4 2c-3.3 2.8-6.3 5.9-8.9 9.3-2.6 3.5-4.9 7.1-6.7 11-1.8 3.9-3.2 8-4.2 12.2-0.9 4.2-1.4 8.5-1.4 12.8v4.6c2.3 39-14.4 57.7-28.9 66.5q-3.2 2-6.6 3.5-3.4 1.6-7 2.7-3.6 1.2-7.3 1.9-3.7 0.7-7.4 0.9h-3.5q-1.6 0.4-3.1 0.9-1.6 0.5-3 1.3-1.5 0.7-2.9 1.6-1.3 0.9-2.5 2c-5 4.2-8.3 10.1-9.1 16.5-0.8 6.4 0.9 12.9 4.6 18.2 3.8 5.3 9.5 8.9 15.9 10.1 6.3 1.3 12.9 0.1 18.4-3.3q0.5-0.3 0.9-0.6 0.4-0.3 0.8-0.6 0.5-0.3 0.9-0.6 0.4-0.3 0.7-0.6 1.5-1.2 2.7-2.5 1.3-1.3 2.3-2.9 1-1.5 1.8-3.1 0.8-1.7 1.3-3.4l0.6-3.4c0.7-4.3 1.8-8.5 3.4-12.5 1.5-4 3.5-7.8 5.8-11.4 2.4-3.7 5.1-7 8.2-10 3.1-3.1 6.4-5.8 10.1-8.1q4-2.3 8.4-4.1 4.3-1.8 8.9-3 4.5-1.2 9.2-1.7 4.7-0.5 9.4-0.4 2.1 0 4.3 0.1 2.2 0.1 4.3 0.3 2.2 0.1 4.4 0.4 2.1 0.3 4.3 0.6c1.6 0 7.8 0 9.4 0 7.5 0 14.9-1.4 21.9-4.1 7-2.7 13.4-6.7 18.9-11.8 5.5-5 10-11.1 13.3-17.8 3.2-6.7 5.2-14 5.8-21.5q0.6-5.7 0-11.5-0.5-5.7-2.2-11.3-1.7-5.5-4.4-10.6-2.7-5.1-6.4-9.6l-3.8-3.8c-3.1-3-5.8-6.2-8.1-9.7-2.3-3.5-4.3-7.3-5.7-11.2-1.5-3.9-2.6-8-3.2-12.2-0.6-4.1-0.7-8.3-0.4-12.5 2.5-20.3 18.3-36.3 43.9-44.5 9.6-3 18.6-7.6 26.6-13.7 8-6 14.9-13.5 20.4-21.9 5.5-8.4 9.5-17.7 11.8-27.5 2.2-9.8 2.8-19.9 1.6-29.9l-0.7-5.1c-0.9-5-1-10.1-0.4-15.1 0.6-5.1 2-10 4-14.7 2-4.7 4.8-9 8.1-12.9 3.3-3.8 7.1-7.2 11.4-10q2.9-1.8 6.1-3.1 3.1-1.4 6.4-2.3 3.3-0.9 6.7-1.4 3.4-0.5 6.8-0.4 4.3 0 8.5 0.6 4.1 0.6 8.3 1.6 4.1 1 8 2.5 4 1.5 7.8 3.5 7.2 3.5 14.7 6.1 7.6 2.7 15.4 4.5 7.8 1.8 15.8 2.7 7.9 0.9 16 0.9c8.2 0 16.5-0.8 24.6-2.2 8.2-1.5 16.2-3.7 23.9-6.5 7.8-2.9 15.3-6.4 22.4-10.6 7.2-4.2 13.9-9 20.3-14.3q4-3.4 7.8-7.2 3.8-3.7 7.3-7.8 3.5-4 6.7-8.2 3.2-4.3 6.1-8.8 2.7-4.5 6-8.7 3.3-4.2 6.9-8 3.7-3.8 7.8-7.1 4.1-3.4 8.5-6.3 3.1-2 6.4-3.4 3.3-1.5 6.8-2.5 3.4-1.1 7-1.6 3.6-0.5 7.2-0.6 1.5 0 3 0.1 1.5 0.1 3 0.3 1.5 0.2 3 0.5 1.5 0.3 3 0.6 5.4 1.5 10.5 4 5.1 2.5 9.6 5.9 4.6 3.4 8.3 7.6 3.8 4.3 6.7 9.1l2.4 4.1 0.4 0.7q0.4 0.5 0.8 1.1 0.4 0.5 0.8 1 0.5 0.4 0.9 0.9 0.4 0.5 0.9 1 0.8 0.9 1.6 1.8 0.9 0.9 1.7 1.8 0.9 0.8 1.8 1.7 0.9 0.8 1.9 1.6l0.7 0.6 4.2 3.2c3.1 2.1 5.9 4.6 8.4 7.5 2.4 2.8 4.5 6 6.2 9.4 1.6 3.3 2.8 6.9 3.6 10.6 0.7 3.7 0.9 7.5 0.7 11.2-0.5 17.9-8.9 33.9-16.5 38.5h-0.4q-0.6 0.3-1.2 0.7-0.6 0.4-1.1 0.7-0.6 0.4-1.1 0.8-0.5 0.4-1 0.9c-4.2 3.4-7.2 8.1-8.6 13.3-1.4 5.2-1.1 10.7 0.7 15.8 1.9 5.1 5.3 9.4 9.7 12.5 4.5 3.1 9.8 4.7 15.2 4.6q1.3 0 2.7-0.1 1.4-0.2 2.7-0.4 1.4-0.3 2.7-0.7 1.3-0.5 2.6-1c3.2-1.4 6.1-3.4 8.5-6 2.5-2.5 4.3-5.5 5.5-8.8 1.2-3.3 1.8-6.8 1.6-10.3-0.2-3.5-1.2-6.9-2.8-10.1q-0.2-0.6-0.4-1.1-0.3-0.6-0.6-1.1-0.2-0.6-0.5-1.1-0.4-0.6-0.7-1.1l-0.4-0.5-3-2.8c-5-4.8-9.5-18.4-7.8-34.2 0.2-3.7 0.9-7.2 2-10.7 1-3.5 2.5-6.8 4.3-9.9 1.8-3.2 4-6.1 6.5-8.7 2.5-2.7 5.3-5 8.3-7q1-0.6 2-1.2 1-0.5 2-1 1.1-0.5 2.1-0.9 1.1-0.5 2.2-0.9l4.8-2 0.9-0.4q1.7-0.8 3.4-1.7 1.7-1 3.4-2 1.6-1.1 3.2-2.2 1.5-1.2 3-2.5c11.6-9.7 19.1-23.6 21-38.6 1.9-15.1-2.1-30.3-10.9-42.6-8.9-12.3-22.2-20.8-37.1-23.8-14.9-3-30.3-0.2-43.3 7.8q-1 0.6-1.9 1.3-1 0.7-2 1.4-0.9 0.7-1.9 1.5-0.9 0.8-1.8 1.5h-0.3l-3.5 3.6q-1.2 1.2-2.4 2.3-1.3 1.1-2.6 2.1-1.3 1-2.6 2-1.4 0.9-2.8 1.8-3.3 2.1-6.9 3.7-3.6 1.6-7.4 2.7-3.8 1.1-7.7 1.6-3.9 0.6-7.8 0.6-2.2 0.1-4.3-0.1-2.2-0.2-4.3-0.6-2.1-0.4-4.2-0.9-2.1-0.6-4.2-1.3c-17.9-6.6-32.1-24.2-41-50.9-6.6-20.2-17.7-38.7-32.5-54-14.7-15.3-32.8-27.1-52.7-34.5-20-7.3-41.4-10.1-62.5-8-21.2 2-41.7 8.8-59.8 19.9q-2.4 1.5-4.7 3-2.3 1.5-4.5 3.1-2.3 1.7-4.5 3.4-2.1 1.7-4.2 3.5c-10.4 8.8-19.4 19-26.9 30.4-7.4 11.4-13.2 23.8-17 36.9-3.9 13-5.9 26.5-5.9 40.1-0.1 13.6 1.9 27.2 5.7 40.2 8.7 29.4 1.3 54.7-19.8 67.5q-3 1.9-6.3 3.3-3.3 1.4-6.7 2.4-3.5 0.9-7 1.4-3.6 0.5-7.2 0.5-2.2 0-4.4-0.2-2.2-0.1-4.4-0.5-2.1-0.4-4.3-0.9-2.1-0.6-4.2-1.3l-5.4-1.9q-4.5-1.3-9.2-2.1-4.6-0.8-9.3-1-4.7-0.3-9.4-0.1-4.7 0.2-9.4 0.9l-5.7 1.4q-2.3 0.6-4.6 1-2.3 0.4-4.7 0.7-2.3 0.3-4.6 0.4-2.4 0.2-4.7 0.2-4.5 0.1-8.9-0.5-4.4-0.7-8.7-2.2-4.2-1.5-8.1-3.7-3.8-2.3-7.2-5.2-3.8-3.5-6.7-7.7-3-4.2-4.9-8.9-2-4.8-2.9-9.8-0.8-5.1-0.6-10.2 0-1 0.1-2 0.1-1 0.2-1.9 0.2-1 0.4-1.9 0.3-1 0.6-1.9c4.1-11.7 4.5-24.4 1.1-36.3-3.4-11.9-10.4-22.5-20-30.3-9.6-7.8-21.5-12.4-33.8-13.3-12.4-0.8-24.7 2.2-35.3 8.7q-0.4 0.2-0.8 0.4-0.4 0.2-0.9 0.4-0.4 0.3-0.8 0.5-0.4 0.2-0.7 0.5l-0.6 0.3-5 4.5q-3.2 2.5-6.8 4.5-3.5 1.9-7.4 3.1-3.9 1.3-7.9 1.8-4.1 0.6-8.1 0.3-4.8-0.1-9.5-0.6-4.7-0.6-9.3-1.6-4.6-1-9.2-2.4-4.5-1.4-8.8-3.3c-19-7.6-34.4-19.4-36.7-27.9l-1.4-4.1v-0.4q-0.4-1.2-1-2.2-0.5-1.1-1.1-2.1-0.7-1-1.4-2-0.7-0.9-1.4-1.8-1-1.3-2.2-2.5-1.1-1.1-2.3-2.1-1.2-1.1-2.6-2-1.3-0.9-2.7-1.6l-0.9-0.5-3-1.3c-3.6-1.3-7-3.1-10.1-5.3-3.1-2.1-6-4.6-8.5-7.5-2.6-2.8-4.8-5.9-6.6-9.3-1.8-3.3-3.2-6.9-4.1-10.5-3.6-16.5 4.4-34.6 23.1-52.5l6.6-6.4c8.2-9.3 14.7-20 19.1-31.6 4.5-11.6 6.8-23.9 6.8-36.3 0.1-12.4-2.1-24.8-6.4-36.4-4.3-11.7-10.7-22.4-18.8-31.8q-2.3-2.6-4.6-5-2.4-2.4-4.9-4.7-2.5-2.3-5.2-4.4-2.6-2.2-5.4-4.1-6.6-4.5-13.8-7.9-7.2-3.5-14.8-5.7-7.7-2.3-15.6-3.3-7.9-1.1-15.8-0.9-3.3 0-6.5 0.2z"/>
	<path id="Layer" fill-rule="evenodd" class="s0" d="m162.3 628.6v-21.9h-0.8c-8.7 17.9-32.8 28.9-59.3 28.9-59.8-0.1-101.3-47.1-101.3-107.9 0-60 43.3-108 101.1-108 24.8 0 47.7 9.8 59.3 28.4h0.8v-21.5h60.6v202.2zm0-101.2c0-6.7-1.3-13.4-3.9-19.6-2.6-6.2-6.3-11.9-11.1-16.7-4.8-4.7-10.4-8.5-16.7-11.1-6.2-2.6-12.9-3.9-19.6-3.9-20.9-0.1-39.7 12.4-47.8 31.7-8.1 19.2-3.7 41.4 11 56.2 14.7 14.8 36.9 19.3 56.2 11.3 19.3-7.9 31.9-26.7 31.9-47.6z"/>
	<path id="Layer" class="s0" d="m614.7 483.4c-0.3-11.6-8.7-15.4-18.5-15.4-9.9 0-17.4 5.8-17.4 13.5 0 10.9 9.9 16.4 37.9 23.7 48 12.7 63.6 32 63.6 61.5 0 42.2-36.5 68.8-82.3 68.8-45.8 0-77.9-25.8-82.3-67h60.2c1.9 12.8 11 18.6 23.2 18.6 10.5 0 21.1-6.2 21.1-15.7 0-11.2-6.9-17.3-37.2-26.5-51.3-15.7-64.9-35.7-64.9-59.3 0-40.1 37.6-65.9 78.3-65.9 43.7 0 74.7 24 77.6 63.5z"/>
	<path id="Layer" fill-rule="evenodd" class="s0" d="m826.2 634.8c-61.4 0-108.8-45.5-108.8-107.4 0-61.9 48.4-107.4 108.8-107.4 60.5 0 108.9 45.5 108.9 106.7 0 63.3-48.1 108.1-108.9 108.1zm48.5-107.1c-1-19.4-13.4-36.3-31.6-43-18.2-6.7-38.6-2-52 12.1-13.4 14-17.1 34.7-9.4 52.5 7.6 17.8 25.2 29.4 44.5 29.4 6.6-0.2 13-1.7 19-4.3 5.9-2.7 11.3-6.5 15.8-11.2 4.5-4.7 8-10.3 10.4-16.4 2.3-6.1 3.4-12.6 3.3-19.1z"/>
	<path id="Layer" fill-rule="evenodd" class="s0" d="m1403.6 546c3.3 23.1 22.6 38.2 47.3 38.2 3.6 0.1 7.3-0.2 10.8-1 3.5-0.8 6.9-2 10.1-3.7 3.2-1.6 6.2-3.7 8.9-6.1 2.6-2.4 5-5.1 7-8.1h61.9c-19.3 44-56.1 69.9-98.7 69.9-14 0-27.9-2.8-40.9-8.1-13-5.4-24.8-13.3-34.8-23.2-9.9-10-17.8-21.8-23.2-34.8-5.3-13-8.1-26.9-8.1-40.9 0-58.3 46.6-108.5 105.9-108.5 60.5 0 106.7 47.7 106.7 110.2q0.1 2.1 0 4.1-0.1 2-0.3 4-0.1 2-0.4 4-0.3 2-0.7 4zm92.5-40.5c-1.3-5.1-3.4-9.9-6.2-14.3-2.9-4.4-6.5-8.2-10.7-11.4-4.2-3.1-8.9-5.5-13.9-7.1-5-1.5-10.2-2.1-15.5-1.9-5.2-0.2-10.3 0.5-15.3 2-4.9 1.6-9.6 4-13.7 7.1-4.1 3.2-7.7 7-10.5 11.4-2.8 4.3-4.8 9.1-6 14.2z"/>
	<path id="Layer" class="s0" d="m416 628.6l-40.5-62.6-41.1 62.6h-72.8l76.9-108.1-68.1-93.9h72.4l32.8 53.1 32.4-53.1h71.7l-68.1 93.9 78.3 108.1z"/>
</svg>