<svg width="285" height="63" viewBox="0 0 285 63" fill="none" xmlns="http://www.w3.org/2000/svg">
<path d="M88.614 39.5592C85.6859 39.5592 82.2147 41.8017 82.2147 47.652C82.2147 49.3468 82.4312 50.4978 82.6477 51.1527C83.9503 56.3481 88.3425 56.3481 88.8856 56.3481C93.6595 56.3481 95.2298 51.4821 95.34 47.8703C95.5013 42.4566 92.1403 39.5552 88.614 39.5552M82.3249 23.1512V36.7134C84.4935 34.6892 87.2051 33.5937 90.1883 33.5937C96.316 33.5937 102.066 39.2813 102.066 47.9775C102.066 56.6736 96.2097 62.5795 89.7554 62.5795C86.174 62.5795 83.7339 60.5553 82.3249 58.9121V61.7579H75.8705V23.1512H82.3249Z" fill="#426BE2"/>
<path d="M112.688 34.4345V38.3201C113.503 36.8953 115.29 33.6684 121.366 33.8351V40.5626C119.957 40.6182 117.517 40.6738 115.51 42.2018C112.743 44.3332 112.688 47.1234 112.688 51.664V61.781H106.399V34.4345H112.688Z" fill="#426BE2"/>
<path d="M140.45 48.1442C139.147 48.7991 137.683 49.2912 134.755 49.7834C132.425 50.1128 129.332 50.6566 129.332 53.5579C129.332 55.6893 131.123 56.7847 133.724 56.7847C137.034 56.7847 139.364 55.2527 140.068 53.6135C140.446 52.7919 140.446 51.9703 140.446 51.1527V48.1442H140.45ZM123.696 42.4566C123.806 41.0873 123.912 39.9402 124.782 38.3526C127.384 33.5937 133.838 33.5938 135.574 33.5938C138.179 33.5938 141.324 33.9232 143.709 35.3441C146.908 37.3127 146.963 39.8846 146.963 42.8376V57.3285C146.963 59.4043 146.963 60.1187 148.156 61.7579H140.454C140.399 61.103 140.292 60.0076 140.292 59.6265C138.884 60.8292 136.007 62.4168 132.268 62.4168C126.14 62.4168 122.452 58.5867 122.452 53.8834C122.452 52.518 122.779 51.2559 123.322 50.1644C125.274 46.2271 129.45 45.354 132.051 44.8618C137.636 43.7108 138.073 43.6036 140.458 42.8376C140.458 41.4683 140.348 38.682 135.849 38.682C133.138 38.682 131.674 39.5552 131.024 40.4324C130.32 41.3056 130.375 42.0716 130.375 42.8376L123.704 42.4566H123.696Z" fill="#426BE2"/>
<path d="M170.978 44.5879C170.38 40.3212 167.779 38.8447 164.906 38.8447C161.435 38.8447 159.05 40.8689 158.29 44.5879H170.978ZM178.354 55.6376C174.993 60.1782 170.652 62.5834 165.122 62.5834C158.018 62.5834 151.186 58.0429 151.186 47.9814C151.186 38.7931 157.042 33.5977 164.689 33.5977C171.848 33.5977 174.831 37.9199 175.371 38.7376C177.594 41.9088 178.082 46.6677 178.137 49.4023H158.074C158.833 53.7246 161.49 56.1854 165.776 56.1854C170.061 56.1854 172.013 53.5619 172.824 52.4108L178.358 55.6376H178.354Z" fill="#426BE2"/>
<path d="M194.942 39.5592C192.014 39.5592 188.543 41.8017 188.543 47.652C188.543 49.3468 188.759 50.4978 188.976 51.1527C190.279 56.3481 194.671 56.3481 195.214 56.3481C199.988 56.3481 201.558 51.4821 201.668 47.8703C201.83 42.4566 198.469 39.5552 194.942 39.5552M188.653 23.1512V36.7134C190.822 34.6892 193.533 33.5937 196.517 33.5937C202.644 33.5937 208.394 39.2813 208.394 47.9775C208.394 56.6736 202.538 62.5795 196.084 62.5795C192.502 62.5795 190.062 60.5553 188.653 58.9121V61.7579H182.199V23.1512H188.653Z" fill="#426BE2"/>
<path d="M237.293 34.4153V61.7619H230.784V58.9716C229.646 60.0671 226.986 62.4167 222 62.4167C217.552 62.4167 215.439 60.5037 214.463 59.2455C212.617 56.8958 212.617 54.3239 212.617 50.2199V34.4153H219.178V50.1128C219.178 51.2082 219.178 52.137 219.394 52.8474C220.099 55.2527 222.051 56.2925 224.436 56.2925C227.147 56.2925 228.828 54.8161 229.698 53.3952C230.674 51.5893 230.729 49.8389 230.784 46.0128V34.4193H237.293V34.4153Z" fill="#426BE2"/>
<path d="M249.545 34.4153V38.301C250.359 36.8761 252.146 33.6493 258.223 33.816V40.5435C256.814 40.599 254.374 40.6546 252.367 42.1827C249.6 44.314 249.545 47.1043 249.545 51.6448V61.7618H243.256V34.4153H249.545Z" fill="#426BE2"/>
<path d="M261.308 34.4153H267.869V37.6421C268.196 37.15 268.845 36.2728 269.982 35.5068C271.612 34.3042 274.103 33.5898 276.22 33.5898C279.314 33.5898 281.97 35.0146 283.324 36.8721C285.005 39.1702 285.005 42.1231 285.005 45.6794V61.7579H278.55V47.8108C278.55 45.7866 278.55 44.4212 278.334 43.6552C277.736 41.25 276 39.9918 273.887 39.9918C271.773 39.9918 269.817 41.25 268.896 43.0559C267.865 45.0801 267.865 47.8703 267.865 49.8945V61.7619H261.304V34.4153H261.308Z" fill="#426BE2"/>
<path d="M32.5947 23.0956H23.7159V33.816L32.5907 33.8318C37.526 33.8318 41.5246 37.8644 41.5246 42.8415C41.5246 47.8187 37.526 51.8512 32.5907 51.8512C27.6555 51.8512 23.7238 47.7591 23.7199 42.7859V42.8415C23.7199 56.6021 35.7825 60.7616 40.7178 60.7616H40.7965C47.0934 57.8047 51.6154 51.5495 52.1192 44.2545C52.9181 32.7324 43.8466 23.0996 32.5907 23.0996L32.5947 23.0956Z" fill="#28C1A0"/>
<path d="M23.7199 42.8376C23.7199 56.5982 35.7825 60.7577 40.7177 60.7577H40.7965C38.6988 61.742 36.4004 62.3652 33.9879 62.5319C22.5628 63.3376 13.0386 54.189 13.0386 42.8376V9.67246C13.0386 9.37478 13.1567 9.08901 13.3653 8.87865L21.8032 0.333355C22.5038 -0.3771 23.7081 0.122996 23.7081 1.12716L23.7199 42.8376Z" fill="#426BE2"/>
<path d="M13.0426 23.052H1.11378C0.499822 23.052 0 23.5561 0 24.1752V32.6848C0 33.304 0.499822 33.808 1.11378 33.808H13.0426V23.048V23.052Z" fill="#28C1A0"/>
</svg>
