<?xml version="1.0" encoding="UTF-8"?>
<svg xmlns="http://www.w3.org/2000/svg" id="Layer_1" version="1.1" viewBox="0 0 195.6 46.1">
  <defs>
    <style>
      .st0 {
        fill: #00313c;
      }

      .st1 {
        fill: #00a9e0;
      }
    </style>
  </defs>
  <g>
    <path class="st1" d="M92.8,15.3c.9,1.4,1.3,3,1.3,4.9s-.4,3.6-1.3,4.9c-.9,1.3-2.1,2.4-3.6,3.1-1.5.7-3.3,1-5.2,1s-3.7-.3-5.2-1-2.7-1.7-3.6-3.1c-.9-1.3-1.3-3-1.3-4.9s.4-3.5,1.3-4.9c.9-1.4,2.1-2.4,3.6-3.1s3.3-1.1,5.2-1.1,3.7.4,5.2,1.1c1.5.7,2.7,1.8,3.6,3.1ZM90.2,20.1c0-1.2-.3-2.3-.8-3.2-.6-.9-1.3-1.6-2.2-2-.9-.5-2-.7-3.1-.7s-2.1.2-3.1.7c-.9.5-1.7,1.1-2.3,2-.6.9-.9,1.9-.9,3.2s.3,2.3.8,3.2c.6.9,1.3,1.5,2.2,2,.9.5,2,.7,3.1.7s2.2-.2,3.1-.7c.9-.5,1.7-1.1,2.2-2,.6-.9.8-1.9.8-3.2ZM55.8,10.3c1.4-.6,2.9-.9,4.7-.9s2.6.2,3.7.6c1.1.4,1.9.9,2.6,1.7.7.7,1.2,1.6,1.5,2.7h3.9c-.2-1.8-.8-3.3-1.8-4.5-1-1.3-2.3-2.2-4-2.9-1.7-.7-3.6-1-5.9-1s-3.7.3-5.3.8-3,1.3-4.2,2.3c-1.2,1-2.1,2.2-2.7,3.7-.6,1.4-1,3.1-1,5s.3,3.5,1,5c.6,1.4,1.6,2.7,2.7,3.7,1.2,1,2.6,1.7,4.2,2.2s3.4.8,5.3.8,4.2-.3,5.9-1c1.7-.7,3-1.6,4-2.9,1-1.2,1.6-2.7,1.8-4.5h-3.9c-.3,1-.8,1.9-1.5,2.6-.7.7-1.6,1.3-2.6,1.7s-2.3.6-3.6.6-3.3-.3-4.7-.9-2.5-1.5-3.2-2.7c-.8-1.2-1.2-2.7-1.2-4.5s.4-3.3,1.2-4.5c.8-1.2,1.9-2.1,3.2-2.7ZM112.8,12.7c-.6-.5-1.4-1-2.2-1.2-.9-.3-1.8-.4-2.8-.4s-2,.2-2.9.5c-.9.4-1.7.8-2.3,1.4-.6.6-1.2,1.3-1.6,2.1-.2.4-.4.9-.5,1.3V4.5h-3.9v24.3h3.9v-10.3c.2-.5.4-1,.7-1.4.6-.7,1.3-1.3,2.2-1.8.9-.4,1.9-.7,3-.7s1.9.2,2.6.5c.6.3,1.1.8,1.4,1.4s.5,1.4.5,2.3v10h3.9v-11.2c0-1.1-.2-2-.5-2.8-.3-.8-.8-1.5-1.4-2ZM135.9,15.4c.7,1.4.9,3.3.8,5.5h-15.4c.1,1,.4,1.8,1,2.6.5.8,1.3,1.4,2.2,1.8.9.4,2,.7,3.2.7s2.5-.3,3.4-.8c.9-.5,1.5-1.2,1.8-2.1h3.8c-.2,1.2-.7,2.2-1.4,3.1-.8.9-1.8,1.6-3,2.2-1.3.5-2.8.8-4.5.8s-3.8-.4-5.4-1.1c-1.6-.7-2.8-1.8-3.7-3.1-.9-1.3-1.3-2.9-1.3-4.8s.4-3.4,1.3-4.8,2.1-2.4,3.6-3.2,3.3-1.1,5.3-1.1,3.8.4,5.2,1.1c1.4.7,2.4,1.8,3.1,3.3ZM132.9,18.3c-.1-1.3-.7-2.3-1.6-3-1-.7-2.2-1.1-3.7-1.1s-2.9.4-3.9,1.1c-1,.8-1.7,1.8-2,3h11.2ZM146,13.1c-.5.6-.9,1.2-1.2,1.8-.3.6-.5,1.1-.6,1.6v-5h-3.9v17.3h3.9v-9.6c.2-.5.5-1,.9-1.6.5-.8,1.3-1.4,2.2-1.9.9-.5,2-.8,3.3-.8v-3.7c-1,0-1.9.2-2.6.6-.7.4-1.4.9-1.9,1.4ZM189.4,21.9c-.4-.6-.8-1-1.4-1.4-.6-.4-1.3-.7-2-.9-.8-.3-1.5-.5-2.4-.7-.9-.2-1.7-.4-2.4-.6-.7-.2-1.2-.4-1.5-.7-.4-.3-.5-.7-.5-1.2s.3-1.1.8-1.5c.6-.4,1.4-.6,2.4-.6s1.9.2,2.4.6c.5.4.9,1.1,1.1,2h3.4c0-1.1-.3-2.1-.8-3-.5-.9-1.3-1.6-2.3-2.1s-2.3-.7-3.8-.7-2,.1-2.9.4-1.7.6-2.3,1c-.7.4-1.2,1-1.5,1.6s-.6,1.4-.6,2.1.2,1.6.6,2.2c.4.6.9,1.1,1.6,1.5s1.4.7,2.3,1c.8.2,1.7.5,2.6.7.8.1,1.5.3,2.1.5.6.2,1,.4,1.3.7.3.3.4.7.4,1.2s0,.8-.3,1.1c-.2.3-.5.6-1,.8s-1.1.3-2,.3c-1.3,0-2.3-.3-3.1-.8-.8-.5-1.2-1.2-1.4-2.1h-3.7c0,.3,0,.8.1,1.3.1.5.4,1,.7,1.6.3.6.8,1.1,1.5,1.6s1.5.9,2.4,1.2c1,.3,2.1.5,3.5.5s2.8-.2,3.9-.6c1.1-.4,1.9-1,2.5-1.8.6-.8.9-1.7.9-2.7s-.2-1.6-.5-2.2ZM167.7,21.2c-.2.5-.5,1.1-.8,1.6-.5.8-1.2,1.5-2.1,2.1-.9.6-1.9.9-3.1.9s-1.7-.1-2.3-.4c-.7-.3-1.2-.7-1.5-1.3-.3-.6-.5-1.5-.5-2.6v-10.1h-3.9v10.8c0,1.3.2,2.5.6,3.4.4.9,1,1.6,1.7,2.1.7.5,1.5.9,2.3,1.1s1.7.3,2.6.3,2.1-.2,2.9-.6c.8-.4,1.5-.9,2.1-1.6.6-.6,1-1.3,1.3-2,.3-.7.6-1.4.7-2,0,0,0,0,0-.1v5.9h3.9V11.4h-3.9v9.8Z"></path>
    <path class="st1" d="M18.4,22.9c-1.7-2.8-4.3-4.6-7.2-4.6,2.9,0,5.5-1.8,7.2-4.6,1.7,2.8,4.3,4.6,7.2,4.6-2.9,0-5.5,1.8-7.2,4.6Z"></path>
  </g>
  <g>
    <path class="st0" d="M19.8,8c.7,4.6,4.4,8.2,9,9,3,.5,5.8-.3,8-1.9-.6-3.7-2.3-7.2-5.1-10-2.8-2.8-6.3-4.5-10-5.1-1.6,2.2-2.4,5-1.9,8Z"></path>
    <path class="st0" d="M28.7,19.5c-4.6.7-8.2,4.4-9,9-.5,3,.3,5.8,1.9,8,3.7-.6,7.2-2.3,10-5.1,2.8-2.8,4.5-6.3,5.1-10-2.2-1.6-5-2.4-8-1.9Z"></path>
    <path class="st0" d="M17.4,30.2c0-6.7-5-9.7-8.9-11-1-.3-1-1.7,0-2,3.9-1.3,8.9-4.3,8.9-11S16.7,1.8,15.4,0C10.9.8,6.7,3.1,3.7,7.1c-4.9,6.5-4.9,15.7,0,22.3,3,4,7.2,6.4,11.7,7.1,1.3-1.8,2-3.9,2-6.3Z"></path>
    <path class="st0" d="M114.8,46.1c-.9,0-1.7-.2-2.4-.6-.7-.4-1.2-1-1.6-1.8-.4-.8-.6-1.6-.6-2.6s.2-1.9.6-2.6c.4-.8.9-1.3,1.6-1.8.7-.4,1.5-.6,2.4-.6s1.7.2,2.4.6c.7.4,1.2,1,1.6,1.8.4.8.6,1.6.6,2.6s-.2,1.9-.6,2.6c-.4.8-.9,1.3-1.6,1.8-.7.4-1.5.6-2.4.6ZM114.8,44.2c.7,0,1.3-.2,1.8-.7s.6-1.1.6-2v-.8c0-.9-.2-1.6-.6-2-.4-.5-1-.7-1.8-.7s-1.3.2-1.8.7c-.4.5-.6,1.1-.6,2v.8c0,.9.2,1.6.6,2s1,.7,1.8.7Z"></path>
    <path class="st0" d="M121.2,46v-9.8h2.8l3.5,6.9h0v-6.9h2v9.8h-2.8l-3.4-6.9h0v6.9h-2Z"></path>
    <path class="st0" d="M136,46.1c-.9,0-1.7-.2-2.4-.6s-1.2-1-1.6-1.8c-.4-.8-.6-1.6-.6-2.6s.2-1.9.6-2.6c.4-.8.9-1.3,1.6-1.8.7-.4,1.5-.6,2.4-.6s1.4.2,2,.4c.6.3,1.1.7,1.5,1.3.4.6.7,1.3.9,2.1h-2.2c-.2-.7-.4-1.1-.8-1.4-.4-.3-.8-.4-1.4-.4s-1.3.2-1.7.7c-.4.5-.6,1.1-.6,2v.8c0,.9.2,1.5.6,2s1,.7,1.7.7,1.1-.1,1.4-.4c.4-.3.6-.7.8-1.4h2.2c-.2,1.2-.7,2.1-1.5,2.8-.8.7-1.7,1-2.9,1Z"></path>
    <path class="st0" d="M146.2,46.1c-.9,0-1.7-.2-2.4-.6-.7-.4-1.2-1-1.6-1.8-.4-.8-.6-1.6-.6-2.6s.2-1.9.6-2.6c.4-.8.9-1.3,1.6-1.8.7-.4,1.5-.6,2.4-.6s1.7.2,2.4.6c.7.4,1.2,1,1.6,1.8.4.8.6,1.6.6,2.6s-.2,1.9-.6,2.6c-.4.8-.9,1.3-1.6,1.8-.7.4-1.5.6-2.4.6ZM146.2,44.2c.7,0,1.3-.2,1.8-.7s.6-1.1.6-2v-.8c0-.9-.2-1.6-.6-2-.4-.5-1-.7-1.8-.7s-1.3.2-1.8.7c-.4.5-.6,1.1-.6,2v.8c0,.9.2,1.6.6,2s1,.7,1.8.7Z"></path>
    <path class="st0" d="M152.3,46v-9.8h2.2v7.9h4.4v1.9h-6.5Z"></path>
    <path class="st0" d="M164.1,46.1c-.9,0-1.7-.2-2.4-.6-.7-.4-1.2-1-1.6-1.8-.4-.8-.6-1.6-.6-2.6s.2-1.9.6-2.6c.4-.8.9-1.3,1.6-1.8.7-.4,1.5-.6,2.4-.6s1.7.2,2.4.6c.7.4,1.2,1,1.6,1.8.4.8.6,1.6.6,2.6s-.2,1.9-.6,2.6c-.4.8-.9,1.3-1.6,1.8-.7.4-1.5.6-2.4.6ZM164.1,44.2c.7,0,1.3-.2,1.8-.7s.6-1.1.6-2v-.8c0-.9-.2-1.6-.6-2-.4-.5-1-.7-1.8-.7s-1.3.2-1.8.7c-.4.5-.6,1.1-.6,2v.8c0,.9.2,1.6.6,2s1,.7,1.8.7Z"></path>
    <path class="st0" d="M174.3,46.1c-.9,0-1.6-.2-2.3-.6-.6-.4-1.1-1-1.5-1.8s-.5-1.6-.5-2.7.2-1.9.6-2.6c.4-.8.9-1.3,1.6-1.8.7-.4,1.5-.6,2.4-.6s1.4.1,2,.4c.6.3,1.1.7,1.5,1.2.4.5.7,1.2.9,1.9h-2.2c-.2-.6-.5-1-.9-1.2-.4-.2-.8-.4-1.4-.4s-1.3.2-1.8.7c-.4.5-.6,1.1-.6,2v.8c0,.9.2,1.6.6,2.1.4.5,1.1.7,1.9.7s.8,0,1.1-.2c.3-.1.6-.3.8-.6.2-.3.3-.6.3-.9v-.2h-2.3v-1.6h4.4v5.3h-1.9v-1.2h0c-.2.5-.6.8-1.1,1-.5.2-1,.3-1.7.3Z"></path>
    <path class="st0" d="M183.6,46v-3.8l-3.3-6h2.4l2,3.7h.1l2-3.7h2.3l-3.3,6v3.8h-2.2Z"></path>
    <path class="st0" d="M190.1,10.9c0-1.5,1.1-2.6,2.8-2.6s2.7,1.1,2.7,2.6-1.1,2.6-2.7,2.6-2.8-1.1-2.8-2.6ZM192.9,13c1.3,0,2.1-.8,2.1-2s-.8-2-2.1-2-2.1.8-2.1,2,.8,2,2.1,2ZM191.8,9.5h1.3c.6,0,1,.2,1,.8s-.2.5-.4.6h0c.3.1.4.3.4.6v.2c0,.2,0,.3.2.5h0s-.7,0-.7,0c-.1-.1-.1-.3-.1-.5v-.2c0-.2,0-.4-.4-.4h-.7v1h-.6v-2.7ZM193,10.7c.2,0,.5,0,.5-.4s-.2-.4-.5-.4h-.7v.7h.7Z"></path>
  </g>
</svg>
