<svg xmlns="http://www.w3.org/2000/svg" width="200" height="34.152"><defs><style>.a{fill:#dda46f}.b{fill:#dea46f}.c{fill:#15a2dc}.d{fill:#4d9ed7}.e{fill:#55585b}</style></defs><path class="a" d="M15.682 7.173l.017-.008-.017.008M14.684 7.613l.016-.007-.016.007M15.357 7.322l.023-.011-.023.011M14.33 7.758l.043-.017-.043.017"/><path class="b" d="M16.322 25.617a7.651 7.651 0 01-3.725-3.248 11.262 11.262 0 001.036 4.4 25.729 25.729 0 002.69-1.155"/><path class="a" d="M17.285 26.072h-.006.006"/><path class="b" d="M27.652 10.537a79.082 79.082 0 01-8.654-2.51 8.377 8.377 0 01-2.676 3.132c2.326 1.677 5.372 2.324 8.048 3.033 1.988.527 4.946 1.261 8.274 2.127v-4.5c-1.49-.4-3.148-.824-4.991-1.279M24.37 4.864c2.26.572 4.708 1.178 8.27 2.087v-.885a5.3 5.3 0 00-4.383-4.819 11.163 11.163 0 00-1.553-.111H16.36c2.1 2.258 5.113 2.993 8.01 3.726M19.009 17.391a87.5 87.5 0 008.643 2.516c2.076.535 3.359.866 4.992 1.29v4.506c-3.356-.875-6.338-1.62-8.274-2.146-2.728-.741-5.747-1.382-8.048-3.026a8.242 8.242 0 002.687-3.141M13.635 17.391a11.242 11.242 0 01-1.039-4.39 7.739 7.739 0 003.726 3.223 26.168 26.168 0 01-2.687 1.166"/><path class="a" d="M13.647 8.027"/><path class="b" d="M12.597 3.632a11.142 11.142 0 001.05 4.392 26.148 26.148 0 002.676-1.163 7.753 7.753 0 01-3.726-3.229"/><path class="a" d="M16.318 29.876h-.007z"/><path class="b" d="M27.172 29.187c-2.538-.681-5.529-1.443-8.159-2.416a8.073 8.073 0 01-2.686 3.11c2.272 1.591 5.259 2.227 8.044 3.045 3.177.933 4.214.968 5.2.7a4.231 4.231 0 002.951-2.987c-2.25-.633-3.483-.954-5.354-1.457"/><path class="c" d="M16.322 25.617a25.636 25.636 0 002.69 1.155 11.262 11.262 0 001.035-4.403 7.657 7.657 0 01-3.725 3.247M8.274 4.864C6.013 5.436 3.566 6.042 0 6.951v-.885a5.3 5.3 0 014.382-4.818 11.172 11.172 0 011.557-.112h10.345c-2.1 2.258-5.114 2.993-8.01 3.726M13.646 8.027a79.155 79.155 0 01-8.655 2.51c-1.843.455-3.5.88-4.991 1.278v4.5c3.328-.865 6.285-1.6 8.274-2.126 2.676-.71 5.721-1.357 8.048-3.033a8.368 8.368 0 01-2.676-3.129M13.634 17.391a87.47 87.47 0 01-8.643 2.516c-2.075.535-3.359.866-4.991 1.29v4.506c3.355-.875 6.338-1.62 8.274-2.146 2.726-.741 5.746-1.382 8.048-3.025a8.242 8.242 0 01-2.687-3.141M19.009 17.391a11.233 11.233 0 001.038-4.39 7.74 7.74 0 01-3.725 3.223 26.119 26.119 0 002.687 1.166M16.322 29.884a8.067 8.067 0 01-2.69-3.112c-2.631.973-5.621 1.735-8.159 2.416-1.871.5-3.1.824-5.355 1.457a4.233 4.233 0 002.953 2.986c.989.264 2.025.229 5.2-.7 2.87-.843 5.867-1.494 8.048-3.043"/><path class="c" d="M16.322 25.617a25.636 25.636 0 002.69 1.155 11.262 11.262 0 001.035-4.403 7.657 7.657 0 01-3.725 3.247M20.047 3.632a7.751 7.751 0 01-3.726 3.229 26.044 26.044 0 002.674 1.162 17.72 17.72 0 001.052-4.391M18.996 8.028z"/><path class="d" d="M15.682 7.173l.017-.008-.017.008M14.684 7.613l.016-.007-.016.007M15.357 7.322l.023-.011-.023.011M14.33 7.758l.043-.017-.043.017"/><path class="e" d="M18.997 8.026a26.1 26.1 0 01-2.676-1.163 26.148 26.148 0 01-2.675 1.163 8.364 8.364 0 002.676 3.132 8.377 8.377 0 002.675-3.132M19.009 17.391a26.119 26.119 0 01-2.687-1.166 26.168 26.168 0 01-2.687 1.166 8.242 8.242 0 002.687 3.141 8.242 8.242 0 002.687-3.141M19.012 26.772a25.636 25.636 0 01-2.69-1.155 25.73 25.73 0 01-2.69 1.155 8.065 8.065 0 002.69 3.112 8.074 8.074 0 002.69-3.112M73.271 24.346c-3.392 6.373-8.457 9.76-15.425 9.76-11.17 0-16.417-8.722-16.417-16.81C41.432 8.26 47.718.308 57.804.308a20.335 20.335 0 018.91 2.079l1.221-1.13h.9l1.9 8.766h-1.221a12.944 12.944 0 00-11.4-5.965c-6.106 0-11.441 4.111-11.441 12.38 0 7.726 4.611 13.464 12.255 13.464 4.3 0 7.915-1.9 11.714-7.319zM76.62 1.212h8.5v.813c-.815.226-1.674.9-1.674 2.666v8.9h18.329V4.826c0-1.49-.543-2.439-1.81-2.8v-.814h8.5v.813c-.951.316-1.675.723-1.675 2.531V29.18c0 1.312.272 2.8 1.809 3.253v.814h-8.5v-.814a2.423 2.423 0 001.674-2.168V17.433H83.448v12.063a2.72 2.72 0 001.809 2.937v.814h-8.5v-.814a2.2 2.2 0 001.672-2.033V5.143c0-1.491-.317-2.576-1.808-3.118zM114.708 1.212h23.025l1.944 5.873h-1.085c-1.041-1.492-2.578-2.079-5.338-2.079h-11.8v8.54h13.476c1.447 0 2.533-.452 2.8-1.851h.814v7.27h-.9c-.452-1.4-1.4-1.672-2.8-1.672h-13.393v12.158h11.714c2.353 0 4.659-.407 6.015-2.3h.95l-1.853 6.1h-23.433v-.814a1.866 1.866 0 001.628-1.806V4.965c0-1.671-.452-2.621-1.764-2.937zM150.759 16.303a8.466 8.466 0 01-5.473-8.269c0-3.7 2.9-7.772 9.226-7.772a18.426 18.426 0 017.778 1.852l1.177-1.352h.905l.858 8.766h-1.039a10.84 10.84 0 00-9.227-5.557c-3.527 0-5.2 1.808-5.2 4.111 0 1.718 1.131 3.072 3.8 4.293l6.6 3.071c3.573 1.628 6.332 4.519 6.332 9.174 0 5.241-3.573 9.534-10.357 9.534a18.3 18.3 0 01-7.687-1.719l-1.086 1.266h-.86l-2.215-9.126h1.085a12.008 12.008 0 0010.041 5.827c3.844 0 6.285-2.259 6.285-5.285 0-2.622-1.537-4.61-5.292-6.281zM169.734 1.212h21.39l2.306 5.828h-.995c-1.491-1.675-2.669-2.075-6.194-2.075h-3.29v25.119a2.326 2.326 0 001.763 2.349v.814h-8.457v-.814a2.071 2.071 0 001.629-2.033V4.965h-3.448c-1.762 0-4.432.045-6.06 2.17h-1.04zM197.231.782a2.694 2.694 0 11-2.766 2.689 2.672 2.672 0 012.766-2.689m0 4.81a2.047 2.047 0 002.034-2.121 2.034 2.034 0 10-4.064 0 2.039 2.039 0 002.03 2.121m-1.074-3.637h1.139c.756 0 1.182.238 1.182.893a.752.752 0 01-.793.806l.807 1.318h-.627l-.734-1.289h-.375v1.288h-.6zm.6 1.26h.533c.339 0 .591-.05.591-.417 0-.324-.345-.375-.62-.375h-.5z"/><path fill="none" d="M0 0h200v34H0z"/></svg>