<svg width="124" height="43" viewBox="0 0 124 43" fill="none" xmlns="http://www.w3.org/2000/svg">
<g>
	<g id="Frame">
		<path id="Vector" fill="#0F6EC8" d="M28.3568001,36.2167015v-23.468502h9.0653
			c1.2881012-0.0322008,2.5737,0.1292,3.8147011,0.4789c1.0681992,0.3648996,1.9892998,1.0713997,2.6237984,2.0121994
			c0.7468987,1.0453997,1.1357002,2.3080988,1.107399,3.5966005c0.0249023,1.2229004-0.3717995,2.4165001-1.1223984,3.3768005
			c-0.7778015,0.9717999-1.8807983,1.6231003-3.1012993,1.8313999c1.6357002,0.2872009,2.8735008,0.957901,3.7132988,2.0121994
			c0.8437996,1.0608006,1.290699,2.3873005,1.2625999,3.7473011c0.0217018,0.8412991-0.1231003,1.6786003-0.4259987,2.4626999
			c-0.3029022,0.7841988-0.7578011,1.4994011-1.3381004,2.1039009c-1.1761017,1.2329979-2.9849014,1.8484993-5.4266014,1.8465004
			H28.3568001z M32.3237991,22.6012993h5.1072006c0.4477997,0.0317001,0.8970985-0.0328999,1.3182983-0.1893997
			c0.4213028-0.1564999,0.8048019-0.4014988,1.1253014-0.7185993c0.3204002-0.3171997,0.5706024-0.6993008,0.733902-1.1212997
			c0.1632996-0.4218998,0.2360001-0.8740005,0.213398-1.3264008c0-1.0753994-0.346199-1.8705997-1.0387001-2.3796997
			c-0.7082977-0.5146999-1.5630989-0.7831993-2.4356995-0.7651005h-5.0297012L32.3237991,22.6012993z M32.3237991,32.6924019
			H37.7444c1.1463013,0,2.0517006-0.3013,2.716301-0.9037018c0.3176003-0.3213997,0.5692978-0.703001,0.7404976-1.1226997
			c0.1711998-0.4197998,0.2586021-0.8695011,0.2572021-1.3234005s-0.0916023-0.9030991-0.2653008-1.3218002
			c-0.1738014-0.4186001-0.4277-0.7985992-0.7472992-1.118c-0.7409019-0.6530991-1.7038002-0.9911003-2.6864014-0.9428997
			h-5.4416008L32.3237991,32.6924019z"/>
		<path id="Vector_2" fill="#0F6EC8" d="M51.7975006,16.8206005H47.917099v-4.0726004h3.8804016V16.8206005z M51.7975006,36.2196007
			H47.917099v-17.3687h3.8804016V36.2196007z"/>
		<path id="Vector_3" fill="#0F6EC8" d="M61.7881012,36.5774994c-2.5452003,0-4.4883995-0.922699-5.8296013-2.7681999
			c-1.3376999-1.8366985-2.0432014-4.0646992-2.0088997-6.3438988c0-2.5664005,0.7412987-4.7041016,2.2238007-6.4131012
			c1.4824982-1.7089005,3.4385986-2.5634003,5.8684006-2.5634003c1.0685997-0.0283985,2.1302948,0.1802006,3.110199,0.6112003
			c0.9800034,0.4309998,1.8543015,1.0737,2.5610962,1.8829002c1.482605,1.6627998,2.2238007,3.8236008,2.2238007,6.4824009
			c0,2.7391987-0.7690964,4.9482002-2.3072968,6.6269989c-0.7416,0.8152008-1.6479034,1.4602013-2.6576996,1.8914986
			c-1.0098991,0.4313011-2.0996017,0.6389008-3.1958008,0.6087036L61.7881012,36.5774994z M61.9104004,33.3604012
			c2.6147995,0,3.921196-1.9660015,3.9192963-5.8980007c0-1.7772007-0.3125-3.1779003-0.937294-4.2021008
			c-0.6249008-1.0242004-1.5840034-1.5373001-2.8775024-1.539299c-1.3412018,0-2.3362007,0.5301991-2.9849014,1.5904999
			c-0.6486969,1.0602989-0.9720993,2.4660988-0.9701004,4.2171993c0,1.8917007,0.3442001,3.3355999,1.0328026,4.3316002
			c0.3017006,0.4744015,0.7194977,0.862299,1.2131004,1.1261005c0.4935989,0.2637978,1.046299,0.3946991,1.604599,0.3801003"/>
		<path id="Vector_4" fill="#0F6EC8" d="M99.7473984,30.6795006l3.5106049,0.4818993
			c-0.4410019,1.5534019-1.3740005,2.9183006-2.6570053,3.8858986c-1.3191986,1.0221024-2.9719009,1.5321999-4.9577942,1.530201
			c-2.3880005,0-4.3083038-0.803299-5.7610016-2.4097977C88.4296036,32.5611,87.7032013,30.3722,87.7032013,27.6009007
			c0-2.6246014,0.7322998-4.7965012,2.1969986-6.515501c1.4645996-1.7189999,3.4544983-2.5795002,5.9698029-2.5814991
			c2.453598,0,4.3499985,0.8484993,5.6889954,2.5453987c1.340004,1.6969013,2.012001,3.8697014,2.0180054,6.5185013
			l-0.0180054,0.4487991H91.7388992c-0.0271988,0.9563007,0.0854034,1.9113998,0.3342972,2.8346004
			c0.2411041,0.7411003,0.7014999,1.389801,1.3193054,1.8585014c0.7086945,0.5438995,1.5817947,0.8237991,2.4714966,0.7922974
			c1.9184036,0,3.2117996-0.9408989,3.8805008-2.8224983H99.7473984z M99.5085983,25.5014
			c0.0358047-1.1271992-0.3632965-2.2243996-1.1132965-3.0604992c-0.3458023-0.3683014-0.7610016-0.6630001-1.221405-0.8668003
			c-0.4603958-0.2038002-0.9564972-0.3126011-1.459198-0.3199005c-0.5026016-0.0072994-1.0016022,0.0869999-1.467598,0.277401
			c-0.4660034,0.1903992-0.8895035,0.4728985-1.2455978,0.8309994c-0.7104034,0.7290001-1.1313019,1.7751999-1.2626038,3.1387997
			H99.5085983z"/>
		<path id="Vector_5" fill="#0F6EC8" d="M119.9580002,36.2159996h-3.8799973V25.3717995
			c0-1.1445999-0.2610016-2.0072002-0.7820053-2.5874996c-0.2340012-0.2747993-0.5249939-0.4948006-0.8509979-0.6445999
			c-0.3270035-0.1497993-0.6829987-0.2259007-1.0419998-0.2229004c-1.0100021,0-1.8959961,0.4468002-2.6559982,1.3404007
			s-1.1430054,2.2441006-1.1490021,4.0515003v8.9222984h-3.8809967V18.8502998h3.5309982v4.0244007
			c1.2399979-2.9218998,2.9779968-4.3838997,5.2149963-4.3859005c1.4290009-0.0330009,2.8160019,0.4839001,3.8810043,1.4459
			c1.0739975,0.9598999,1.6110001,2.6497993,1.6110001,5.0695992L119.9580002,36.2159996z"/>
		<path id="Vector_6" fill="#0F6EC8" d="M86.3152008,33.3762016c-0.9949036-0.9157028-2.3720016-1.3736-4.1311035-1.3736h-5.1340942
			c-0.788002,0-1.3731003-0.177702-1.7611008-0.5362015c-0.1751022-0.1420002-0.3177032-0.3204994-0.4181061-0.523201
			c-0.1004944-0.2027988-0.156395-0.4249992-0.1639938-0.6515999c0-0.7710991,0.397995-1.3403988,1.1940002-1.7078991
			c1.0456009,0.2749996,2.1194992,0.4256992,3.1998978,0.4487991c2.1112976,0,3.8077011-0.5019989,5.0893021-1.5060997
			c0.6022949-0.4358006,1.0919952-1.0114002,1.427597-1.678299c0.3356018-0.6669006,0.5073013-1.4054012,0.5006027-2.1533012
			c-0.0143051-1.0749989-0.4251022-2.105999-1.1521988-2.8917999l2.4804993-0.2199001l-0.5552063-3.3526001L82.2020035,18.8209
			h-0.0179062c-1.0965958-0.2397995-2.2151947-0.3619003-3.3371964-0.3644009c-2.3879013,0-4.1728973,0.512001-5.3549042,1.5362015
			C72.9419022,20.4368,72.4979019,21.0002003,72.1931,21.6410999c-0.3049011,0.6408997-0.4628983,1.3428001-0.4621964,2.0536995
			c0,1.717001,0.7958984,3.0645008,2.3878937,4.0424004c-1.8346939,0.8976994-2.7530975,2.1026001-2.7550964,3.6147995
			c0,1.0039997,0.5363007,1.9650021,1.608902,2.8827c-1.6775055,0.803299-2.516304,1.9831009-2.516304,3.539402
			c0,3.1427994,2.7859039,4.7141991,8.3578033,4.7141991c2.9669952,0,5.2056961-0.5411987,6.716095-1.6236
			c1.5104065-1.0824013,2.2666016-2.4459991,2.2686005-4.0907021c0.0115051-0.6409988-0.115097-1.2768974-0.3712997-1.8635979
			C87.1713028,34.3237,86.7918015,33.8002014,86.3152008,33.3762016z M76.6141968,21.7639008
			c0.5632019-0.5542011,1.3591995-0.8313999,2.3880005-0.8313999s1.8009033,0.2650986,2.3162994,0.7952995
			c0.260704,0.2542,0.4661026,0.5602989,0.603302,0.8988991c0.1371994,0.3387012,0.2032013,0.7024002,0.1936035,1.0681
			c0,2.0081997-1.0606003,3.0123005-3.1819,3.0123005c-0.9950027,0-1.7711029-0.2651005-2.3282013-0.7952995
			c-0.277504-0.265501-0.4954987-0.5876999-0.6397018-0.9451008c-0.1440964-0.357399-0.2109985-0.7418003-0.1960983-1.1273003
			c-0.0111008-0.3864002,0.0582962-0.7707996,0.2038956-1.1282997
			C76.1188965,22.3535995,76.3371964,22.030899,76.6141968,21.7639008z M79.6976013,39.8073997
			c-2.0416031,0-3.5341034-0.3012009-4.4773026-0.903698c-0.9432983-0.6024017-1.4108963-1.3053017-1.4029999-2.1086006
			c0-0.4818993,0.2806015-0.9850006,0.8387985-1.5060997c0.9137039,0.2615967,1.8563995,0.4062996,2.8058014,0.4306984h4.1400986
			c0.6244049-0.0097008,1.2409058,0.1417007,1.7910004,0.4398003c0.2416,0.118,0.4445038,0.3037987,0.5842056,0.535099
			c0.1397934,0.2313995,0.210495,0.4984016,0.2037964,0.7691994C84.177002,39.0261993,82.6826019,39.8073997,79.6976013,39.8073997z
			"/>
		<path id="Vector_12" fill="#0F6EC8" d="M123.0419998,34.3065987c0.1900024-0.0005989,0.3759995,0.0558014,0.5350037,0.1620026
			c0.1579971,0.1063004,0.2819977,0.2574997,0.3549957,0.4347s0.0930023,0.3722992,0.0559998,0.5606995
			c-0.0370026,0.1883011-0.1279984,0.3614006-0.262001,0.4973984c-0.1349945,0.1359024-0.3059998,0.2285995-0.4929962,0.2663002
			c-0.1860046,0.0376015-0.3800049,0.0186005-0.5550003-0.0546989c-0.1760025-0.0732994-0.326004-0.1977005-0.4319992-0.3572006
			c-0.1060028-0.1595993-0.1620026-0.3471985-0.1620026-0.5391998c0-0.2566986,0.1009979-0.5029984,0.2799988-0.6847992
			C122.5439987,34.4099998,122.7870026,34.3073997,123.0419998,34.3065987z M123.0419998,36.0718002
			c0.1569977,0.0005989,0.3099976-0.0457993,0.4400024-0.1332016c0.1309967-0.0874977,0.2329941-0.2122002,0.2929993-0.3580971
			c0.0599976-0.1459999,0.0759964-0.3068008,0.0459976-0.4619026c-0.0309982-0.155098-0.1060028-0.2975998-0.2170029-0.4095001
			c-0.1110001-0.1117973-0.2519989-0.1879005-0.4059982-0.2185974c-0.1529999-0.0307007-0.3129959-0.0146027-0.4570007,0.0461998
			c-0.1449966,0.0607986-0.2679977,0.1634979-0.3549957,0.2952995c-0.086998,0.1316986-0.1330032,0.286499-0.1320038,0.4445992
			c0.0009995,0.210701,0.0839996,0.4124985,0.2310028,0.5614014
			C122.6330032,35.9869995,122.8330002,36.0709991,123.0419998,36.0718002z M122.8539963,35.7916985h-0.2179947v-1.0361977
			h0.4769974c0.0599976,0,0.3919983,0,0.3919983,0.3012009c0.0020065,0.0608978-0.0159988,0.1208992-0.0499954,0.1708984
			c-0.0340042,0.0499992-0.0839996,0.0872993-0.1419983,0.1062012l0.1919937,0.4488983h-0.2269974l-0.1699982-0.4127007h-0.2509995
			L122.8539963,35.7916985z M122.8539963,35.2072983h0.227005c0.0739975,0,0.1969986-0.0210991,0.1969986-0.1445999
			c0-0.0631981-0.0419998-0.1385002-0.1760025-0.1385002h-0.2480011V35.2072983z"/>
	</g>
</g>
<linearGradient id="Vector_7_00000012431511328573723650000018179796851113085859_" gradientUnits="userSpaceOnUse" x1="10.7102184" y1="29.0568447" x2="18.499527" y2="21.3382339" gradientTransform="matrix(1 0 0 -1 0 44)">
	<stop  offset="0.17" style="stop-color:#ECF1C5"/>
	<stop  offset="0.74" style="stop-color:#DBE2A1"/>
</linearGradient>
<path id="Vector_7" fill="url(#Vector_7_00000012431511328573723650000018179796851113085859_)" d="M15.4021997,14.9765997
	c-0.2983999,0.2560005-0.5073996,0.4066-0.5073996,0.4066C11.4202995,17.9708004,6.97579,19.2238998,6.97579,19.2238998
	l-0.7074299,0.2017994c1.1213899,1.1225014,2.4699497,1.9872017,3.9533396,2.5348015
	c1.4833002,0.5475998,3.0665007,0.7651997,4.6409006,0.6378994c1.5744991-0.1273003,3.1030998-0.5965004,4.4811001-1.3754997
	c1.3780994-0.7790012,2.573-1.8493004,3.5030003-3.137701C20.8556995,18.7991009,18.0856991,17.3411999,15.4021997,14.9765997z"/>
<linearGradient id="Vector_8_00000183971606849959444990000015976326731754681511_" gradientUnits="userSpaceOnUse" x1="25.0660992" y1="30.7879753" x2="17.0674992" y2="33.671978" gradientTransform="matrix(1 0 0 -1 0 44)">
	<stop  offset="0" style="stop-color:#DBE2A1"/>
	<stop  offset="0.27" style="stop-color:#C9D788"/>
	<stop  offset="0.55" style="stop-color:#BBCE75"/>
	<stop  offset="0.74" style="stop-color:#B6CB6E"/>
</linearGradient>
<path id="Vector_8" fill="url(#Vector_8_00000183971606849959444990000015976326731754681511_)" d="M24.9330997,10.8985996
	c0-0.0661993,0-0.1324997,0-0.1988001c-0.0118999-0.1605997-0.0268002-0.3202991-0.0447006-0.4789l-0.0268993-0.2018995
	c-0.0238991-0.1806898-0.0536995-0.3584099-0.0865993-0.5391502c0-0.0331297,0-0.0692797-0.0209007-0.1054296
	c-0.0417995-0.21387-0.0924988-0.4247303-0.1462002-0.6355906c0-0.0481892-0.0268993-0.0963898-0.0417995-0.1445799
	C24.5242004,8.4345999,24.4764004,8.27495,24.4227009,8.11831c-0.0179005-0.0632601-0.0418015-0.1265202-0.0627003-0.1897798
	c-0.0507011-0.1506104-0.1044998-0.3012204-0.1641006-0.4428l-0.0627003-0.1656704
	c-0.0805988-0.1897798-0.1611996-0.37955-0.2507992-0.5632997c-0.0268002-0.0602403-0.0597-0.1174703-0.0895004-0.1777201
	c-0.0597-0.1204901-0.1224003-0.2409801-0.1881008-0.3584599C23.5869007,6.1844301,23.566,6.1513,23.5480995,6.1181598
	c-0.928299,1.8585701-3.5282001,3.4791703-6.6504002,4.6840405c0.1659012,0.6877995,0.1659012,1.4057999,0,2.0935993
	c-0.2626991,0.8765001-0.9969997,1.6416006-1.4924994,2.0813999c2.6864996,2.3647003,5.4534998,3.8226013,7.4474001,3.1086998
	c0.3924007-0.5359993,0.7360001-1.106699,1.0268002-1.7049999c0.0238991-0.0480995,0.0447998-0.0993996,0.0686989-0.1505985
	L24.0823994,15.9291c0.0388012-0.0934,0.0746002-0.1898003,0.1135006-0.2861996
	c0.0387993-0.0963001,0.0447006-0.1144009,0.0685997-0.1747007c0.0417995-0.1113997,0.0806007-0.2258997,0.1194-0.3403997
	c0-0.0421,0.0298996-0.0843,0.0417995-0.1265001c0.0418015-0.1265001,0.0806007-0.2530003,0.1164017-0.3794994
	c0-0.0301008,0-0.0572004,0.0208988-0.0844002c0.1315002-0.4614,0.2313004-0.9314003,0.2985001-1.4067001
	c0-0.0331001,0-0.0663004,0-0.0994005c0.023901-0.1957998,0.0447998-0.3945999,0.0597-0.6023998
	c0-0.0542994,0-0.1114998,0-0.1687002c0-0.2319994,0.0268993-0.4668999,0.0268993-0.7048998
	S24.9480991,11.1215,24.9330997,10.8985996z"/>
<linearGradient id="Vector_9_00000115512827979816317260000005687972840276619659_" gradientUnits="userSpaceOnUse" x1="21.3556385" y1="35.0657463" x2="11.2826204" y2="43.4408913" gradientTransform="matrix(1 0 0 -1 0 44)">
	<stop  offset="0" style="stop-color:#B5CA6D"/>
	<stop  offset="0.09" style="stop-color:#A3C067"/>
	<stop  offset="0.29" style="stop-color:#84AE5D"/>
	<stop  offset="0.46" style="stop-color:#71A356"/>
	<stop  offset="0.58" style="stop-color:#6A9F54"/>
</linearGradient>
<path id="Vector_9" fill="url(#Vector_9_00000115512827979816317260000005687972840276619659_)" d="M23.184,5.5395498
	c-0.0687008-0.1084399-0.1432991-0.2168798-0.2178993-0.32231c-0.1224003-0.1777201-0.2508011-0.3524299-0.3851013-0.5211201
	L22.4288006,4.50032c-0.1044998-0.1234999-0.2089996-0.2469997-0.3164005-0.3674898l-0.023901-0.0180802
	C20.7138996,2.59287,18.9459,1.48808,16.9832993,0.924546c-1.9625988-0.563531-4.042099-0.563456-6.0046997,0.000217
	c0.5970001,0.662697,1.0447006,1.1838171,1.0447006,1.1838171s3.0387001,3.5123,4.5489998,7.5878997
	c0.1389008,0.3587198,0.2476997,0.7285204,0.3253994,1.1055202c3.1222-1.2049303,5.7221012-2.8255301,6.6355-4.6840901
	C23.4237003,5.92311,23.3073006,5.73033,23.184,5.5395498z"/>
<radialGradient id="Vector_10_00000171703985433508711580000013177949363619863712_" cx="-787.0446777" cy="499.0786438" r="0.9997507" gradientTransform="matrix(8.1578197 0 0 -8.2325201 6430.5908203 4118.8515625)" gradientUnits="userSpaceOnUse">
	<stop  offset="0.17" style="stop-color:#3A5C7B"/>
	<stop  offset="1" style="stop-color:#5B89B4"/>
</radialGradient>
<path id="Vector_10" fill="url(#Vector_10_00000171703985433508711580000013177949363619863712_)" d="M16.8976994,10.802
	c-0.0776997-0.3769999-0.1864986-0.7468004-0.3253994-1.1054802c-1.5102997-4.0755997-4.5489998-7.5879002-4.5489998-7.5879002
	s-0.4537001-0.52112-1.0447006-1.183815c-0.1313992,0.039159-0.2626991,0.078315-0.3910999,0.1235051l-0.0566998,0.01807
	C10.4025002,1.10855,10.2770996,1.15374,10.1517,1.20193L10.1128998,1.21699
	c-0.3960094,0.15244-0.7827396,0.32846-1.1581097,0.52715h-0.01791L8.6562996,1.9068L8.4980898,2.0062101L8.25632,2.1508
	l-0.1761198,0.11145L7.8682699,2.4038301l-0.20297,0.1415699l-0.1820798,0.13254L7.22054,2.87976L7.1100998,2.9671199
	C6.9847298,3.06954,6.86235,3.1719501,6.74295,3.2683499L6.66535,3.33763L6.3847599,3.60271l-0.03582,0.0331299
	C4.9274201,5.0281401,3.90661,6.78338,3.39517,8.7147102c-0.51143,1.9312897-0.49435,3.9664898,0.0494401,5.8887901
	c0,0,0,0,0,0.0180998c0.1986098,0.6973,0.4645498,1.3732996,0.7939897,2.018199l0.0328302,0.0632
	c0.0567198,0.1115017,0.1194,0.2230015,0.1820798,0.3344002c0,0.0241013,0.02985,0.0512009,0.0447803,0.0783005
	c0.0626798,0.1084995,0.12536,0.2168999,0.19103,0.3253002l0.02388,0.0361996
	C4.92066,17.8076992,5.1458602,18.1264,5.3878002,18.4321003c0.02985,0.0422001,0.0597,0.0812988,0.0925298,0.1205006
	c0.0328302,0.0390987,0.12537,0.1535988,0.19104,0.228899l0.12536,0.1445999l0.18507,0.2077999l0.1522298,0.1567001
	l0.13134,0.1385002L6.96981,19.2273006c0,0,4.4504895-1.2560997,7.9249902-3.8436003c0,0,0.2149-0.1506004,0.5073996-0.4067001
	c0.5075006-0.4398003,1.2417994-1.2048998,1.4924994-2.0815001C17.0615997,12.2080002,17.0625992,11.4900999,16.8976994,10.802z"/>
<radialGradient id="Vector_11_00000078021907452517134090000007541963504174502552_" cx="-929.914856" cy="433.5789185" r="1" gradientTransform="matrix(1.4066175 -12.5170135 -7.3453555 -0.825445 4496.3779297 -11275.6904297)" gradientUnits="userSpaceOnUse">
	<stop  offset="0" style="stop-color:#E6F1F7"/>
	<stop  offset="0.09" style="stop-color:#D1E3F0"/>
	<stop  offset="0.28" style="stop-color:#ABC8E3"/>
	<stop  offset="0.47" style="stop-color:#8DB4D8"/>
	<stop  offset="0.65" style="stop-color:#78A5D1"/>
	<stop  offset="0.83" style="stop-color:#6B9CCC"/>
	<stop  offset="1" style="stop-color:#6799CB"/>
</radialGradient>
<path id="Vector_11" fill="url(#Vector_11_00000078021907452517134090000007541963504174502552_)" d="M6.95786,0.913086
	c0,0-5.0355802,2.2983541-6.5370021,7.3770342c-1.501418,5.07868,1.4924619,9.7386789,1.4924619,9.7386789
	s4.4415798-1.2621994,7.9160399-3.8406992c0,0,1.5999403-1.1025,2.0118399-2.4881001
	C12.2441998,10.3113003,11.5038996,8.507,11.5038996,8.507C9.9935303,4.4163499,6.95786,0.913086,6.95786,0.913086z"/>
</svg>
