<svg width="17" height="20" viewBox="0 0 17 20" fill="none" xmlns="http://www.w3.org/2000/svg">
<g clip-path="url(#clip0_1702_21261)">
<path fill-rule="evenodd" clip-rule="evenodd" d="M14.7656 3.86719L11.5234 10.0391L14.7656 16.2109L16.0938 15.4688V4.60938L14.7656 3.86719Z" fill="#E25444"/>
<path fill-rule="evenodd" clip-rule="evenodd" d="M14.7656 3.86719L8.28125 4.60938L4.98047 10.0391L8.28125 15.4688L14.7656 16.2109V3.86719Z" fill="#7B1D13"/>
<path fill-rule="evenodd" clip-rule="evenodd" d="M1.67969 3.86719L0.625 4.33594V15.7422L1.67969 16.2109L8.28125 10.0391L1.67969 3.86719Z" fill="#58150D"/>
<path fill-rule="evenodd" clip-rule="evenodd" d="M1.66553 3.85419L8.29002 5.69446V14.5486L1.66553 16.2153V3.85419Z" fill="#E25444"/>
<path fill-rule="evenodd" clip-rule="evenodd" d="M8.29353 6.66667L5.48071 6.21527L8.29353 3.02081L11.0994 6.21527L8.29353 6.66667Z" fill="#58150D"/>
<path fill-rule="evenodd" clip-rule="evenodd" d="M11.0994 6.21527L8.29005 6.67359L5.48071 6.21527V3.02081" fill="#58150D"/>
<path fill-rule="evenodd" clip-rule="evenodd" d="M8.29353 13.368L5.48071 13.8889L8.29353 16.6319L11.0994 13.8889L8.29353 13.368Z" fill="#58150D"/>
<path fill-rule="evenodd" clip-rule="evenodd" d="M8.28125 0.625L5.46875 2.10938V6.21094L8.29 5.41668L8.28125 0.625Z" fill="#7B1D13"/>
<path fill-rule="evenodd" clip-rule="evenodd" d="M8.29005 7.67358L5.48071 7.97917V12.0744L8.29005 12.3958V7.67358Z" fill="#7B1D13"/>
<path fill-rule="evenodd" clip-rule="evenodd" d="M8.29005 14.5833L5.48071 13.8789V17.9048L8.29005 19.375V14.5833Z" fill="#7B1D13"/>
<path fill-rule="evenodd" clip-rule="evenodd" d="M11.0994 13.8789L8.29004 14.5835V19.375L11.0994 17.9048V13.8789Z" fill="#E25444"/>
<path fill-rule="evenodd" clip-rule="evenodd" d="M8.29004 7.67358L11.0994 7.97917V12.0744L8.29004 12.3958V7.67358Z" fill="#E25444"/>
<path fill-rule="evenodd" clip-rule="evenodd" d="M8.28125 0.625L11.0938 2.10938V6.21094L8.28125 5.42969V0.625Z" fill="#E25444"/>
</g>
<defs>
<clipPath id="clip0_1702_21261">
<rect width="16.7188" height="20" fill="white"/>
</clipPath>
</defs>
</svg>
