<svg id="Layer_1" data-name="Layer 1" xmlns="http://www.w3.org/2000/svg" viewBox="0 0 345.6 512"><defs><style>.cls-1{fill:#52c9ed;}</style></defs><path d="M34.74,36.57V438.86H146.29v38.4H36.57A36.68,36.68,0,0,1,0,440.69V36.57A36.68,36.68,0,0,1,36.57,0H199.31L345.6,146.29V438.86A36.68,36.68,0,0,1,309,475.43h-89.6V438.86h91.43v-278H201.14c-11,0-18.28-7.31-18.28-18.28V34.74L34.74,36.57Z" transform="translate(0 0)"/><path d="M164.57,402.29h36.57V512H164.57V402.29Z" transform="translate(0 0)"/><path d="M182.86,341.94l-43.89,64h87.77Z" transform="translate(0 0)"/><path class="cls-1" d="M-236.5,77.8" transform="translate(0 0)"/><path d="M119.31,243.38H89.18v30.87H70.49V196.74h51.85v14.43H89.18V229h30.13Z" transform="translate(0 0)"/><path d="M211.07,211.17H187.81v63.08H169.12V211.17H146.28V196.74h64.79Z" transform="translate(0 0)"/><path d="M254.17,248v26.29H235.49V196.74h30.93A36.08,36.08,0,0,1,282.15,200a24.68,24.68,0,0,1,10.59,9.31A25.39,25.39,0,0,1,296.5,223q0,11.34-8.12,18.13T266.1,248Zm0-14.43h12.25q5.43,0,8.28-2.72t2.84-7.66a12.49,12.49,0,0,0-2.92-8.68,10.42,10.42,0,0,0-8-3.3H254.17Z" transform="translate(0 0)"/></svg>