<?xml version="1.0" encoding="UTF-8"?>
<svg width="214.86" height="92.23" fill="none" version="1.1" viewBox="0 0 214.86 92.23" xmlns="http://www.w3.org/2000/svg">
 <title>NIQ</title>
 <desc>American marketing research firm, formerly known as ACNielsen</desc>
 <g transform="scale(.55376)" clip-path="url(#clip0_51004_286781)" fill="#0a0443">
  <path d="m35.772 146.5v-78.359c10.505 14.196 40.031 45.993 59.621 68.99 20.442 20.442 34.921 5.962 35.773-6.814v-127.76h-35.773v78.359c-12.208-13.06-41.224-44.801-59.621-67.286-16.183-22.145-34.069-7.6655-35.772 3.4069v129.46z"/>
  <rect x="163.53" y="1.7029" width="37.476" height="144.79"/>
  <path d="m335.1 140.15c-10.915 6.208-23.542 9.753-36.997 9.753-41.395 0-74.952-33.557-74.952-74.952 0-41.395 33.557-74.952 74.952-74.952s74.952 33.557 74.952 74.952c0 14.344-4.029 27.746-11.017 39.138l25.961 25.962-26.499 26.499zm2.182-65.2c0 21.638-17.541 39.18-39.179 39.18-21.639 0-39.18-17.542-39.18-39.18 0-21.638 17.541-39.179 39.18-39.179 21.638 0 39.179 17.541 39.179 39.179z" clip-rule="evenodd" fill-rule="evenodd"/>
 </g>
 <defs>
  <clipPath id="clip0_51004_286781">
   <rect width="388" height="167" fill="#fff"/>
  </clipPath>
 </defs>
</svg>
