<svg width="24" height="24" viewBox="0 0 24 24" fill="none" xmlns="http://www.w3.org/2000/svg">
<mask id="mask0_1702_21249" style="mask-type:luminance" maskUnits="userSpaceOnUse" x="2" y="5" width="20" height="14">
<path d="M2 5H22V18.7713H2V5Z" fill="white"/>
</mask>
<g mask="url(#mask0_1702_21249)">
<path fill-rule="evenodd" clip-rule="evenodd" d="M10.3044 6.50758C10.95 5.84511 11.8485 5.43487 12.8411 5.43487C14.1647 5.43487 15.3117 6.15968 15.9294 7.23964C16.4776 6.99804 17.0715 6.87331 17.672 6.87361C20.0544 6.87361 21.9882 8.79435 21.9882 11.1645C21.9882 13.5346 20.0544 15.4553 17.672 15.4553C17.3808 15.4553 17.097 15.4265 16.8191 15.372C16.2786 16.3215 15.2456 16.9665 14.0691 16.9665C13.5901 16.9675 13.1173 16.8604 12.6867 16.6534C12.1389 17.9218 10.8632 18.8134 9.3779 18.8134C7.82643 18.8134 6.51026 17.8494 6.00291 16.494C5.77709 16.541 5.54693 16.5646 5.31614 16.5644C3.47055 16.5644 1.97791 15.0713 1.97791 13.2376C1.97791 12.0054 2.64996 10.9327 3.64702 10.3528C3.4355 9.8725 3.32662 9.35437 3.32717 8.83073C3.32717 6.7143 5.06982 5.00375 7.21688 5.00375C8.47423 5.00375 9.59923 5.59447 10.3051 6.51135" fill="#00A1E0"/>
</g>
<path fill-rule="evenodd" clip-rule="evenodd" d="M4.89261 12.1611C4.88004 12.1934 4.89709 12.2002 4.90114 12.2059C4.93871 12.2327 4.97687 12.2521 5.01511 12.2739C5.21952 12.3805 5.41217 12.4117 5.61364 12.4117C6.02393 12.4117 6.27908 12.1964 6.27908 11.8499V11.8431C6.27908 11.5228 5.99084 11.4061 5.72173 11.3227L5.68651 11.3115C5.48283 11.2464 5.30709 11.1897 5.30709 11.0578V11.0511C5.30709 10.938 5.41004 10.8546 5.56886 10.8546C5.74533 10.8546 5.95562 10.9125 6.09018 10.9858C6.09018 10.9858 6.13004 11.0112 6.14452 10.9733C6.15239 10.9528 6.22099 10.7718 6.22834 10.7515C6.23614 10.7303 6.22246 10.7142 6.20842 10.706C6.05401 10.6132 5.84077 10.5501 5.62018 10.5501L5.57923 10.5503C5.20349 10.5503 4.94099 10.7743 4.94099 11.0946V11.1015C4.94099 11.4393 5.2307 11.5494 5.50129 11.6255L5.54482 11.6389C5.74187 11.6986 5.91246 11.7505 5.91246 11.8868V11.8936C5.91246 12.019 5.80143 12.1125 5.62349 12.1125C5.5543 12.1125 5.33379 12.1113 5.09482 11.9624C5.06592 11.9458 5.04945 11.9339 5.02717 11.9205C5.0154 11.9134 4.98599 11.9007 4.9732 11.9387L4.89231 12.1605M10.8997 12.1605C10.8871 12.1928 10.9042 12.1996 10.9083 12.2053C10.9458 12.2321 10.9841 12.2516 11.0223 12.2734C11.2267 12.3799 11.4194 12.4111 11.6208 12.4111C12.0311 12.4111 12.2863 12.1958 12.2863 11.8494V11.8425C12.2863 11.5222 11.9988 11.4055 11.7289 11.3221L11.6937 11.3109C11.49 11.2458 11.3143 11.1891 11.3143 11.0572V11.0505C11.3143 10.9374 11.4172 10.8541 11.5761 10.8541C11.7525 10.8541 11.9621 10.912 12.0974 10.9852C12.0974 10.9852 12.1372 11.0106 12.1518 10.9727C12.1596 10.9522 12.2283 10.7712 12.2349 10.7509C12.2428 10.7297 12.229 10.7137 12.215 10.7054C12.0606 10.6126 11.8474 10.5496 11.6268 10.5496L11.5858 10.5497C11.21 10.5497 10.9475 10.7737 10.9475 11.094V11.1009C10.9475 11.4387 11.2372 11.5489 11.5078 11.625L11.5513 11.6383C11.7491 11.698 11.9189 11.7499 11.9189 11.8862V11.893C11.9189 12.0184 11.8079 12.1119 11.63 12.1119C11.5606 12.1119 11.3395 12.1107 11.1013 11.9618C11.0724 11.9452 11.0555 11.9338 11.0336 11.9199C11.0261 11.9152 10.9915 11.9019 10.9797 11.9381L10.8988 12.1599M15.0017 11.4815C15.0017 11.6772 14.9647 11.8316 14.8922 11.941C14.8198 12.049 14.7106 12.102 14.5583 12.102C14.4061 12.102 14.2973 12.0495 14.226 11.9418C14.1542 11.833 14.1179 11.6779 14.1179 11.4822C14.1179 11.2865 14.1544 11.1329 14.226 11.0249C14.2972 10.9176 14.4054 10.8662 14.5583 10.8662C14.7113 10.8662 14.8201 10.9181 14.8922 11.0249C14.9651 11.1329 15.0017 11.2865 15.0017 11.4822M15.3444 11.1191C15.3106 11.0068 15.2583 10.9082 15.1885 10.8256C15.1186 10.7429 15.0304 10.6763 14.9253 10.6284C14.8208 10.5802 14.6973 10.5559 14.5576 10.5559C14.4179 10.5559 14.2951 10.5804 14.19 10.6284C14.0856 10.6765 13.9966 10.7429 13.9267 10.8256C13.857 10.9082 13.8047 11.0068 13.7708 11.1191C13.7374 11.2307 13.7204 11.3525 13.7204 11.4822C13.7204 11.612 13.7374 11.7337 13.7708 11.8454C13.8044 11.9577 13.8569 12.0563 13.9267 12.1389C13.9967 12.2215 14.0856 12.2875 14.19 12.3346C14.2951 12.3816 14.4186 12.4055 14.5576 12.4055C14.6966 12.4055 14.8201 12.3816 14.9245 12.3346C15.0289 12.2876 15.1179 12.2215 15.1878 12.1389C15.2575 12.0563 15.3098 11.9577 15.3436 11.8454C15.377 11.7337 15.394 11.612 15.394 11.4822C15.394 11.3532 15.377 11.2307 15.3436 11.1191M18.1598 12.0469C18.1486 12.014 18.1161 12.0264 18.1161 12.0264C18.0663 12.0452 18.0131 12.0626 17.9565 12.0713C17.8994 12.0801 17.8359 12.0846 17.769 12.0846C17.6036 12.0846 17.4712 12.0359 17.3771 11.9396C17.2822 11.8432 17.2293 11.6881 17.23 11.4779C17.2306 11.2865 17.2775 11.143 17.3617 11.0329C17.4447 10.9241 17.5727 10.8676 17.7418 10.8676C17.883 10.8676 17.9911 10.8838 18.1043 10.9187C18.1043 10.9187 18.1311 10.9302 18.144 10.8954C18.1741 10.8135 18.1963 10.7548 18.2286 10.6649C18.2377 10.6391 18.2153 10.6283 18.2072 10.6252C18.1628 10.6081 18.0579 10.58 17.9785 10.5682C17.9042 10.557 17.8182 10.5512 17.7211 10.5512C17.577 10.5512 17.4491 10.5755 17.3395 10.6236C17.23 10.6717 17.1373 10.7382 17.0638 10.8208C16.9903 10.9034 16.9344 11.002 16.8969 11.1143C16.8597 11.226 16.841 11.3484 16.841 11.4782C16.841 11.758 16.9175 11.9848 17.0689 12.1508C17.2204 12.3175 17.4483 12.4016 17.7454 12.4016C17.9211 12.4016 18.1013 12.3666 18.2307 12.3161C18.2307 12.3161 18.2554 12.3043 18.2447 12.2759L18.1601 12.0469M18.7594 11.2931C18.7758 11.1843 18.806 11.0937 18.8535 11.0234C18.9246 10.9162 19.0329 10.8575 19.1851 10.8575C19.3373 10.8575 19.4381 10.9165 19.5101 11.0234C19.5579 11.0941 19.5788 11.188 19.5866 11.2931L18.7557 11.2929L18.7594 11.2931ZM19.9138 11.0539C19.8846 10.9459 19.8123 10.8364 19.7653 10.7864C19.6903 10.7074 19.6175 10.6516 19.5447 10.6212C19.4396 10.5771 19.3265 10.5545 19.2123 10.5547C19.0675 10.5547 18.9358 10.5788 18.8292 10.6279C18.7226 10.6773 18.6329 10.7446 18.5623 10.8287C18.4918 10.9128 18.4388 11.0121 18.405 11.1259C18.3711 11.2382 18.3541 11.3614 18.3541 11.4904C18.3541 11.6223 18.3718 11.7448 18.4067 11.8557C18.4419 11.9674 18.4986 12.0652 18.575 12.1464C18.6515 12.2283 18.7493 12.2921 18.8669 12.337C18.9839 12.3816 19.1258 12.4047 19.2883 12.4042C19.6236 12.4031 19.8 12.3295 19.8721 12.2897C19.885 12.2826 19.8971 12.2703 19.8819 12.235L19.8062 12.0256C19.7946 11.9943 19.7625 12.0056 19.7625 12.0056C19.6794 12.0362 19.5618 12.0912 19.2861 12.0904C19.1059 12.0901 18.9728 12.0377 18.889 11.9556C18.8037 11.8715 18.7611 11.749 18.7544 11.5751L19.9162 11.576C19.9162 11.576 19.9468 11.5757 19.95 11.5462C19.9512 11.5341 19.9897 11.3114 19.9153 11.0541L19.9138 11.0539ZM9.47261 11.2931C9.48901 11.1843 9.5193 11.0937 9.56673 11.0234C9.6379 10.9162 9.74614 10.8575 9.89834 10.8575C10.0505 10.8575 10.1513 10.9165 10.2233 11.0234C10.2711 11.0941 10.2919 11.188 10.2998 11.2931L9.46893 11.2929L9.47261 11.2931ZM10.627 11.0539C10.5979 10.9459 10.5255 10.8364 10.4785 10.7864C10.4035 10.7074 10.3307 10.6516 10.2579 10.6212C10.1528 10.5771 10.0398 10.5545 9.92555 10.5547C9.7807 10.5547 9.64908 10.5788 9.54246 10.6279C9.43584 10.6773 9.34614 10.7446 9.27555 10.8287C9.20518 10.9128 9.15202 11.0121 9.1182 11.1259C9.08445 11.2382 9.06746 11.3614 9.06746 11.4904C9.06746 11.6223 9.08504 11.7448 9.12011 11.8557C9.15526 11.9674 9.21202 12.0652 9.28776 12.1464C9.36423 12.2283 9.46202 12.2921 9.57967 12.337C9.69658 12.3816 9.83776 12.4047 10.001 12.4042C10.3363 12.4031 10.5128 12.3295 10.5848 12.2897C10.5976 12.2826 10.6098 12.2703 10.5946 12.235L10.5189 12.0256C10.5072 11.9943 10.4751 12.0056 10.4751 12.0056C10.392 12.0362 10.2744 12.0912 9.99864 12.0904C9.81923 12.0901 9.6854 12.0377 9.60158 11.9556C9.51629 11.8715 9.47364 11.749 9.46702 11.5751L10.6288 11.576C10.6288 11.576 10.6594 11.5757 10.6625 11.5462C10.6638 11.5341 10.7023 11.3114 10.6278 11.0541L10.627 11.0539ZM6.96526 12.0396C6.91974 12.0038 6.91342 11.995 6.89834 11.9718C6.87533 11.9368 6.86357 11.887 6.86357 11.8232C6.86357 11.7232 6.89739 11.6507 6.96724 11.6021C6.96651 11.6023 7.06724 11.5166 7.30401 11.5195C7.40939 11.5214 7.51453 11.5302 7.61871 11.546V12.0656H7.61886C7.61886 12.0656 7.4718 12.0969 7.30562 12.1067C7.06959 12.1207 6.96518 12.0398 6.96592 12.04L6.96526 12.0396ZM7.42702 11.2351C7.37996 11.2317 7.31893 11.23 7.24614 11.23C7.14687 11.23 7.05055 11.2422 6.96084 11.2661C6.8704 11.2902 6.78879 11.3274 6.71893 11.377C6.64889 11.4263 6.59128 11.4907 6.55055 11.5654C6.50945 11.6408 6.48849 11.7293 6.48849 11.8293C6.48849 11.9308 6.50636 12.0185 6.54165 12.0902C6.57624 12.1614 6.6283 12.2229 6.69312 12.2692C6.75761 12.3155 6.83724 12.3497 6.92915 12.37C7.02033 12.3905 7.12327 12.4009 7.23651 12.4009C7.35562 12.4009 7.47401 12.391 7.58871 12.3719C7.68641 12.3553 7.78373 12.3367 7.88062 12.316C7.9193 12.3072 7.96224 12.2957 7.96224 12.2957C7.99092 12.2885 7.98871 12.2583 7.98871 12.2583L7.98805 11.2146C7.98805 10.9855 7.92599 10.8152 7.80349 10.7101C7.68143 10.605 7.50276 10.5521 7.27114 10.5521C7.18437 10.5521 7.04393 10.5637 6.96011 10.5803C6.96011 10.5803 6.70717 10.6287 6.60276 10.7093C6.60276 10.7093 6.57981 10.7232 6.59231 10.7548L6.67467 10.9722C6.68489 11.0004 6.71276 10.9908 6.71276 10.9908C6.71276 10.9908 6.72151 10.9873 6.7318 10.9813C6.95459 10.8617 7.23695 10.8654 7.23695 10.8654C7.36195 10.8654 7.45901 10.8904 7.52371 10.9393C7.58702 10.9872 7.6193 11.0596 7.6193 11.2118V11.2602C7.52004 11.246 7.42812 11.2378 7.42812 11.2378L7.42702 11.2351ZM16.7653 10.6458C16.7669 10.642 16.7678 10.6379 16.7678 10.6337C16.7679 10.6296 16.767 10.6254 16.7654 10.6216C16.7638 10.6177 16.7614 10.6143 16.7584 10.6114C16.7553 10.6084 16.7518 10.6062 16.7478 10.6046C16.7281 10.5973 16.6294 10.5767 16.5537 10.5721C16.4081 10.5631 16.3272 10.5873 16.2544 10.6195C16.1825 10.6515 16.103 10.7029 16.0589 10.7623L16.0587 10.6231C16.0587 10.604 16.045 10.5886 16.0254 10.5886H15.7283C15.7091 10.5886 15.6951 10.604 15.6951 10.6231V12.3264C15.6951 12.3356 15.6988 12.3444 15.7054 12.351C15.712 12.3575 15.721 12.3611 15.7303 12.3611H16.0347C16.0441 12.3611 16.053 12.3575 16.0596 12.3509C16.0662 12.3444 16.0699 12.3356 16.0699 12.3264V11.4712C16.0699 11.3566 16.0827 11.2428 16.1082 11.1711C16.1333 11.1001 16.1675 11.0435 16.2097 11.0029C16.2499 10.9637 16.299 10.9346 16.3531 10.9181C16.4037 10.9038 16.4562 10.8965 16.5089 10.8965C16.5696 10.8965 16.6361 10.9119 16.6361 10.9119C16.6585 10.9144 16.6709 10.9009 16.6785 10.881C16.6984 10.8288 16.755 10.6723 16.766 10.6411" fill="#FFFFFE"/>
<path fill-rule="evenodd" clip-rule="evenodd" d="M13.9221 9.8597C13.8845 9.84849 13.8462 9.83954 13.8075 9.83288C13.7554 9.82431 13.7026 9.82029 13.6498 9.82085C13.4401 9.82085 13.2747 9.87927 13.1586 9.99466C13.0433 10.1092 12.9648 10.2836 12.9255 10.5132L12.9113 10.5907H12.648C12.648 10.5907 12.6159 10.5894 12.6091 10.6239L12.5659 10.8617C12.5629 10.8844 12.5728 10.8986 12.6037 10.8985H12.86L12.5999 12.3295C12.5795 12.4447 12.5562 12.5395 12.5304 12.6114C12.505 12.6822 12.4801 12.7354 12.4495 12.7739C12.4199 12.8113 12.3918 12.8387 12.3434 12.8547C12.3034 12.868 12.2573 12.8741 12.2069 12.8741C12.1788 12.8741 12.1415 12.8695 12.1139 12.864C12.0863 12.8587 12.072 12.8526 12.0513 12.844C12.0513 12.844 12.0212 12.8327 12.0094 12.8624C11.9998 12.8867 11.9315 13.0719 11.9234 13.0948C11.9151 13.1174 11.9267 13.1352 11.9412 13.1404C11.9754 13.1524 12.0007 13.1601 12.0472 13.1709C12.1118 13.1859 12.1662 13.1869 12.2171 13.1869C12.3239 13.1869 12.4212 13.1721 12.5018 13.1434C12.583 13.1144 12.6537 13.0641 12.7162 12.9959C12.7837 12.9223 12.8262 12.8453 12.8669 12.7402C12.9071 12.636 12.9414 12.5067 12.9688 12.356L13.2301 10.8985H13.6122C13.6122 10.8985 13.6444 10.8997 13.6511 10.8652L13.6943 10.6275C13.6973 10.6047 13.6875 10.5905 13.6565 10.5907H13.2856C13.2875 10.5824 13.3043 10.4538 13.3469 10.3328C13.3651 10.2811 13.3993 10.2394 13.4282 10.2108C13.4553 10.1835 13.4886 10.1631 13.5254 10.1512C13.5657 10.1389 13.6077 10.133 13.6498 10.1335C13.6848 10.1335 13.719 10.1377 13.7451 10.143C13.7811 10.1506 13.7951 10.1546 13.8045 10.1573C13.8423 10.1687 13.8473 10.1577 13.8548 10.1396L13.9434 9.89957C13.9526 9.87376 13.9304 9.86289 13.9221 9.8597ZM8.74021 12.3325C8.74021 12.3517 8.72638 12.3672 8.70697 12.3672H8.3994C8.37991 12.3672 8.36609 12.3517 8.36609 12.3325V9.89225C8.36609 9.87318 8.37991 9.85775 8.3994 9.85775H8.70697C8.72638 9.85775 8.74021 9.87318 8.74021 9.89225V12.3325Z" fill="#FFFFFE"/>
</svg>
