<svg width="24" height="24" viewBox="0 0 24 24" fill="none" xmlns="http://www.w3.org/2000/svg">
<path d="M20.5746 10.5594H15.2838C14.9917 10.5594 14.7645 10.8934 14.8619 11.1607L16.1278 14.5349C16.1927 14.6685 16.0628 14.8355 15.9006 14.8355L14.2776 14.7353C14.2127 14.7353 14.1478 14.7687 14.0829 14.8355L12.8494 16.673C12.7845 16.7732 12.6547 16.8066 12.5248 16.7398L10.6422 15.4369C10.5773 15.3701 10.4799 15.3701 10.3826 15.4369L7.78586 17.2409C7.62357 17.3745 7.39636 17.2075 7.46128 17.007L8.20783 14.3344C8.24029 14.2342 8.17537 14.1006 8.07799 14.0672L6.71472 13.4992C6.58489 13.4324 6.51997 13.2654 6.61735 13.1652L7.81832 11.6284C7.88324 11.5616 7.88324 11.428 7.81832 11.3611L6.8121 9.8578C6.71472 9.72417 6.8121 9.52372 6.97439 9.52372L8.56487 9.39009C8.69471 9.39009 8.75963 9.28987 8.75963 9.15624L8.62979 6.88452C8.62979 6.71748 8.79209 6.61725 8.92192 6.65066L10.8694 7.48585C10.9668 7.51926 11.0642 7.48585 11.1291 7.41904L12.4924 5.88228C12.5898 5.74865 12.7845 5.78206 12.8494 5.9491L13.6609 8.08719C13.7583 8.35445 14.0829 8.45468 14.3101 8.28764L17.491 5.84888C17.8481 5.58162 17.6209 4.98028 17.1664 5.04709L15.1215 5.31435C15.0242 5.31435 14.9268 5.28095 14.8943 5.18072L13.7907 2.27425C13.6609 1.97359 13.3039 1.90677 13.0766 2.14062L10.6747 4.81324C10.6098 4.88005 10.5124 4.91346 10.415 4.88005L7.26652 3.51034C6.97439 3.37671 6.68227 3.57715 6.64981 3.91123L6.51997 7.252C6.51997 7.38563 6.4226 7.45245 6.32522 7.45245L3.43639 7.65289C3.1118 7.6863 2.91705 8.05378 3.1118 8.35445L5.02687 11.2609C5.09179 11.3277 5.09179 11.4614 5.02687 11.5282L3.07934 13.8333C2.91705 14.0004 3.01443 14.3678 3.2741 14.4681L5.51375 15.4703C5.61113 15.5037 5.67604 15.6373 5.64359 15.7376L4.2154 21.4503C4.11802 21.8512 4.57245 22.1518 4.89703 21.918L10.2527 17.9759C10.3176 17.9091 10.415 17.9091 10.5124 17.9759L12.9468 19.7465C13.1416 19.8801 13.4337 19.8467 13.5635 19.6128L15.0891 17.2075C15.1215 17.1407 15.2189 17.1073 15.2838 17.1073L18.9192 17.575C19.2113 17.6084 19.5035 17.3745 19.4061 17.0739L17.8805 13.0315C17.8481 12.9313 17.8805 12.7977 18.0104 12.7309L20.7694 11.3946C21.1589 11.1941 21.029 10.5594 20.5746 10.5594Z" fill="#8039E9"/>
</svg>
