<?xml version="1.0" encoding="UTF-8"?> <svg xmlns="http://www.w3.org/2000/svg" width="200" height="60" viewBox="0 0 641 190" fill="none"><g clip-path="url(#clip0_2002_34)"><path d="M470.942 84.2198V78.0961H459.879V115.603H471.196V94.9362C473.104 90.5986 476.41 88.4298 480.987 88.4298C482.386 88.4298 483.785 88.5574 484.929 88.8125V78.0961C483.912 77.7134 482.767 77.5858 481.369 77.5858C477.681 77.4583 474.121 79.7546 470.942 84.2198ZM501.714 103.229C500.188 101.443 499.425 99.2738 499.425 96.7222C499.425 94.1707 500.188 92.1295 501.714 90.3434C503.239 88.5574 505.274 87.6643 507.69 87.6643C510.106 87.6643 512.14 88.5574 513.666 90.3434C515.192 92.1295 515.955 94.2983 515.955 96.7222C515.955 99.2738 515.192 101.443 513.666 103.101C512.14 104.887 510.106 105.78 507.69 105.78C505.274 105.78 503.239 105.015 501.714 103.229ZM521.168 110.628C524.856 106.928 526.636 102.336 526.636 96.8498C526.636 91.364 524.856 86.7713 521.168 83.0716C517.481 79.3719 513.03 77.4583 507.563 77.4583C502.095 77.4583 497.645 79.3719 493.957 83.0716C490.27 86.7713 488.489 91.364 488.489 96.8498C488.489 102.336 490.27 106.801 493.957 110.628C497.645 114.328 502.095 116.241 507.563 116.241C513.03 116.241 517.608 114.328 521.168 110.628ZM585.001 93.2777C585.509 91.2365 586.526 89.578 587.798 88.4298C589.07 87.2816 590.723 86.7713 592.376 86.7713C594.029 86.7713 595.554 87.4092 596.953 88.6849C598.352 89.9607 599.115 91.4916 599.369 93.2777H585.001ZM592.63 77.4583C587.417 77.4583 582.966 79.2443 579.279 82.944C575.591 86.6437 573.811 91.2365 573.811 96.8498C573.811 102.463 575.591 107.183 579.024 110.756C582.457 114.328 587.035 116.114 592.757 116.114C596.572 116.114 599.751 115.348 602.421 113.945C605.091 112.542 607.634 110.5 609.796 108.077L601.658 103.484C599.496 105.397 596.826 106.418 593.393 106.418C588.561 106.418 585.636 104.249 584.746 99.9116H610.432C610.432 99.6565 610.432 99.4013 610.559 99.0186C610.559 98.6359 610.686 98.2531 610.686 97.998V97.2325C610.686 91.7468 609.033 87.154 605.6 83.1992C602.167 79.3719 597.843 77.4583 592.63 77.4583ZM637.007 77.4583C633.193 77.4583 629.632 79.7546 626.453 84.2198V78.0961H615.391V115.603H626.708V94.9362C628.615 90.5986 631.921 88.4298 636.499 88.4298C637.897 88.4298 639.296 88.5574 640.44 88.8125V78.0961C639.55 77.5858 638.406 77.4583 637.007 77.4583Z" fill="#134B98"></path><path d="M449.071 71.0795C449.326 69.421 449.326 68.1452 449.326 67.2522C449.326 52.581 461.151 40.7164 475.774 40.7164C490.397 40.7164 502.222 52.581 502.222 67.2522H512.903C512.903 46.7125 496.246 30 475.774 30C455.302 30 439.026 46.3297 438.645 66.6143C438.645 67.1246 438.645 68.2728 438.39 69.8037C437.882 73.631 436.483 79.1168 432.541 83.5819C429.489 87.1541 425.166 89.4504 419.953 90.7262V65.8489H408V115.604H419.953V101.57C423.64 100.932 427.073 99.9117 430.125 98.3808L440.933 115.476H455.175L439.407 91.7468C439.789 91.3641 440.17 90.9814 440.552 90.4711C446.401 84.0922 448.435 76.4377 449.071 71.0795ZM556.136 102.591C554.61 104.249 552.576 105.142 550.16 105.142C547.744 105.142 545.71 104.249 544.184 102.591C542.658 100.932 541.895 98.7635 541.895 96.212C541.895 93.6605 542.658 91.6192 544.184 89.8332C545.71 88.1747 547.744 87.2816 550.16 87.2816C552.576 87.2816 554.61 88.1747 556.136 89.8332C557.662 91.4917 558.425 93.6605 558.425 96.212C558.425 98.8911 557.662 100.932 556.136 102.591ZM569.106 126.447V78.2237H558.298V81.4131C555.755 78.8616 552.576 77.5859 548.634 77.5859C543.802 77.5859 539.733 79.3719 536.173 82.9441C532.613 86.5162 530.959 90.9814 530.959 96.3395C530.959 101.698 532.74 106.035 536.3 109.607C539.86 113.18 543.929 114.966 548.634 114.966C552.322 114.966 555.628 113.945 558.425 111.904V126.575C558.425 139.205 548.253 149.411 535.664 149.411C523.076 149.411 512.903 139.205 512.903 126.575H502.222C502.222 145.074 517.227 160 535.537 160C553.848 160 568.343 145.456 568.852 127.468V126.958C569.106 126.83 569.106 126.703 569.106 126.447ZM572.667 143.67H573.048C573.557 143.67 573.938 143.543 573.938 143.032C573.938 142.65 573.684 142.395 573.048 142.395H572.539V143.67H572.667ZM572.667 145.967H571.776V142.012C572.158 141.884 572.667 141.884 573.302 141.884C574.065 141.884 574.447 142.012 574.701 142.139C574.955 142.267 575.083 142.65 575.083 143.032C575.083 143.415 574.701 143.798 574.32 143.925C574.701 144.053 574.955 144.308 575.083 144.946C575.21 145.584 575.337 145.839 575.337 145.967H574.32C574.192 145.839 574.065 145.456 574.065 144.946C573.938 144.563 573.811 144.308 573.175 144.308H572.667V145.967ZM570.251 143.925C570.251 145.711 571.522 147.115 573.302 147.115C575.083 147.115 576.354 145.711 576.354 143.925C576.354 142.139 575.083 140.736 573.302 140.736C571.522 140.736 570.251 142.139 570.251 143.925ZM577.371 143.925C577.371 146.222 575.591 148.008 573.302 148.008C571.014 148.008 569.233 146.222 569.233 143.925C569.233 141.757 571.014 139.971 573.302 139.971C575.591 139.843 577.371 141.629 577.371 143.925ZM537.19 67.2522V55.0049H541.259L543.675 62.9146L545.837 55.0049H550.033V67.2522H547.235V58.0667L544.692 67.2522H542.531L539.86 58.0667L539.988 67.2522H537.19ZM558.171 58.7046L556.899 63.0422H559.57L558.171 58.7046ZM555.501 67.2522H552.067L556.899 55.0049H559.57L564.274 67.2522H560.841L560.205 65.4661H555.882L555.501 67.2522ZM566.436 55.0049H570.378C572.285 55.0049 573.429 55.3876 574.192 55.8979C575.21 56.6634 575.718 57.9392 575.718 59.2149C575.718 60.1079 575.464 60.8734 575.083 61.3837C574.701 62.0216 574.065 62.4043 573.557 62.6595L576.1 67.1246H572.921L569.742 61.2561H570.251C571.014 61.2561 571.776 61.1286 572.158 60.8734C572.539 60.6183 572.794 59.9804 572.794 59.3425C572.794 58.7046 572.539 58.1943 572.031 57.9392C571.649 57.684 571.141 57.5564 570.759 57.5564H569.615V67.1246H566.436V55.0049ZM578.261 55.0049H581.44V60.4907L584.873 55.0049H588.18L584.111 61.1286L588.561 67.2522H584.746L581.44 61.894V67.2522H578.261V55.0049ZM590.468 55.0049H597.335V57.684H593.52V59.5976H597.208V62.4043H593.52V64.5731H597.335V67.2522H590.468V55.0049ZM601.404 57.684H598.988V55.0049H606.999V57.684H604.583V67.2522H601.404V57.684ZM609.033 55.0049H612.212V67.2522H609.033V55.0049ZM622.512 62.5319L622.384 55.0049H625.436V67.2522H622.766L618.061 59.8528V67.2522H615.137V55.0049H617.807L622.512 62.5319ZM637.134 59.0873C637.007 58.8322 636.753 58.4495 636.499 58.1943C635.99 57.684 635.354 57.4289 634.464 57.4289C632.938 57.4289 631.158 58.577 631.158 61.001C631.158 63.5525 632.938 64.7007 634.464 64.7007C635.227 64.7007 635.863 64.4455 636.372 64.1904C636.88 63.8077 637.262 63.2974 637.389 62.787H633.701V60.2355H640.949C641.076 61.1286 640.949 62.5319 640.441 63.8077C639.296 66.4868 636.499 67.5074 634.464 67.5074C630.777 67.5074 627.979 64.5731 627.979 61.1286C627.979 57.4289 630.904 54.7498 634.591 54.7498C637.516 54.7498 640.059 56.6634 640.695 59.0873H637.134ZM547.235 42.7576H548.38C548.634 42.7576 549.143 42.7576 549.651 42.63C550.033 42.5025 550.414 42.1197 550.414 41.3543C550.414 40.5888 550.033 40.2061 549.651 40.0785C549.27 39.9509 548.634 39.9509 548.38 39.9509H547.235V42.7576ZM548.126 36.8891C550.414 36.8891 551.304 37.2718 551.94 37.7821C552.957 38.5476 553.466 39.8234 553.466 41.0991C553.466 42.3749 552.957 43.6506 552.194 44.4161C551.304 45.1816 550.541 45.4367 548.507 45.4367H547.235V49.3916H544.057V36.8891H548.126ZM555.628 36.8891H559.697C561.604 36.8891 562.876 37.2718 563.511 37.7821C564.529 38.5476 565.037 39.8234 565.037 41.2267C565.037 42.2473 564.783 42.8852 564.401 43.5231C564.02 44.1609 563.384 44.5437 562.748 44.7988L565.292 49.3916H561.985L558.679 43.3955H559.188C559.951 43.3955 560.714 43.2679 561.095 43.0128C561.477 42.7576 561.858 42.1197 561.858 41.4818C561.858 40.844 561.477 40.3337 561.095 40.0785C560.714 39.8234 560.205 39.6958 559.824 39.6958H558.679V49.3916H555.501V36.8891H555.628ZM567.453 36.8891H574.447V39.6958H570.632V41.737H574.32V44.4161H570.632V46.5849H574.447V49.3916H567.453V36.8891ZM589.451 44.7988C588.688 47.7331 586.145 49.7743 583.093 49.7743C579.151 49.7743 576.481 46.5849 576.481 43.2679C576.481 39.9509 578.897 36.7615 582.966 36.7615C587.035 36.7615 588.942 39.8234 589.324 41.737H586.018C585.636 40.844 584.746 39.5682 582.966 39.5682C580.805 39.5682 579.66 41.4818 579.66 43.2679C579.66 45.1815 580.932 46.9676 582.966 46.9676C585.001 46.9676 585.764 45.3091 586.018 44.7988H589.451ZM591.867 36.8891H595.046V49.3916H591.867V36.8891ZM600.641 45.3091C600.641 46.7125 601.531 46.9676 601.912 46.9676C602.675 46.9676 603.184 46.3297 603.184 45.8194C603.184 45.1815 602.675 44.9264 600.768 44.1609C599.878 43.7782 597.716 42.8852 597.716 40.5888C597.716 38.0373 600.005 36.7615 602.04 36.7615C603.82 36.7615 606.236 37.6546 606.236 40.5888H603.057C602.93 40.2061 602.93 39.3131 601.912 39.3131C601.404 39.3131 600.768 39.6958 600.768 40.3337C600.768 40.844 601.149 41.0991 603.311 42.1197C605.6 43.1403 606.236 44.2885 606.236 45.6919C606.236 47.7331 605.218 49.6467 601.912 49.6467C598.606 49.6467 597.335 47.7331 597.462 45.3091H600.641ZM608.524 36.8891H611.703V49.3916H608.524V36.8891ZM617.425 43.1403C617.425 45.054 618.697 46.84 620.859 46.84C623.147 46.84 624.165 44.7988 624.165 43.1403C624.165 41.4818 623.02 39.4406 620.731 39.4406C618.697 39.4406 617.425 41.3543 617.425 43.1403ZM614.246 43.2679C614.246 39.1855 617.425 36.634 620.859 36.634C624.673 36.634 627.471 39.6958 627.471 43.1403C627.471 46.5849 624.8 49.6467 620.859 49.6467C616.917 49.6467 614.246 46.5849 614.246 43.2679ZM637.389 44.5437V36.8891H640.441V49.3916H637.643L632.938 41.8646V49.3916H629.887V36.8891H632.684L637.389 44.5437Z" fill="#134B98"></path></g><path fill-rule="evenodd" clip-rule="evenodd" d="M312.22 39.5C308.197 39.5 303.935 43.7562 303.935 47.7858C303.935 51.8155 308.193 56 312.22 56C316.252 56 320.486 51.8155 320.486 47.7858C320.486 43.76 316.252 39.5 312.22 39.5ZM312.22 35C319.278 35 325 40.7213 325 47.7858C325 54.8504 319.274 60.5755 312.22 60.5755C305.159 60.5755 299.437 54.8465 299.437 47.7858C299.437 40.7213 305.163 35 312.22 35ZM288.484 151.911V35H276.939L255.62 53.7316V67.0865L276.939 48.0297V151.911H288.484ZM231.454 143.294C240.005 135.003 241.011 124.106 241.011 112.563C241.011 101.67 239.838 89.96 231.118 81.5058C226.424 76.9536 219.379 74.1896 210.496 74.1896C201.105 74.1896 193.723 77.1161 189.03 82.1561V45.409H238.5V35H178.131V95.8129H189.03C191.379 88.9845 198.42 84.4322 208.816 84.4322C226.088 84.4322 228.935 98.4141 228.935 112.563C228.935 120.854 228.603 130.125 222.397 136.137C218.876 139.555 213.513 141.506 207.644 141.506C195.07 141.506 188.864 135.003 187.355 123.459H175.283C175.949 131.751 178.468 138.417 183.664 143.619C188.864 148.659 197.244 151.911 207.644 151.911C218.207 151.911 225.921 148.659 231.454 143.294ZM138.763 151.911H157.025V133.644H138.763V151.915V151.911ZM116.853 134.604L67.2441 134.6V114.006L108.295 35H29.2113C42.9851 39.4129 52.9208 50.7161 52.9208 66.8697C52.9208 79.5781 45.4149 87.4323 39.2824 91.6129C45.9295 95.96 54.6232 103.818 54.6232 118.361C54.6232 136.036 44.4089 147.502 29.9812 151.911H116.853V134.604ZM16.4318 133.644C25.6518 133.644 32.8637 126.467 32.8637 117.285C32.8637 108.111 25.6518 100.764 16.4318 100.764C7.21188 100.764 0 108.107 0 117.285C0 126.467 7.21188 133.644 16.4318 133.644ZM18.3431 82.4967C26.7583 82.4967 32.8637 76.3264 32.8637 67.8838C32.8637 59.6 26.7583 53.2671 18.3431 53.2671C9.9241 53.2671 3.65238 59.6038 3.65238 67.8838C3.65238 76.3226 9.92023 82.4967 18.3431 82.4967ZM131.757 35H146.068V115.377H137.336V92.7549H116.327V115.377H91.294L131.757 35Z" fill="#20203C"></path><rect x="365" width="3" height="190" fill="#8D8F96"></rect><defs><clipPath id="clip0_2002_34"><rect width="233" height="130" fill="white" transform="translate(408 30)"></rect></clipPath></defs></svg> 