<!--
  - Copyright © 2024, Oracle and/or its affiliates.
  -->

<svg fill="none" xmlns="http://www.w3.org/2000/svg" viewBox="0 0 489 116">
	<path d="M69.1126 80.4529c-1.1-1.05-2.55-1.63-4.07-1.59-8.16.23-17.57-7.94-22.1-12.01-.76-.68-1.92.13-1.54 1.09 1.58 4.1 5.51 11.17 15.1 17.52 4.49 2.97 10.29 4.34 16.6 5.16 1.84.25 3.67.42 5.45.52 1 .05 1.49-1.24.69-1.87-3.44-2.71-6.82-5.66-10.13-8.79v-.03Z" fill="#E2C06B" />
	<path d="M189.443 53.0428c.59 1.54 2.86 1.2601 3.06-.3699 1.22-9.88-3.92-21.37-10.22-28.64-6.31-7.27-15.61-12.2801-25.47-12.2501-10.27.04-19.3 5.34-26.39 12.4501-3.61 3.63-6.66 7.75-9.64 11.9-5.49 7.6699-7.65 8.9399-4.23 12.89l3.09 3.5899c1.72 2.01 3.42 3.03 5.57 1.48 4.96-3.54 11.32-7.61 16.55-10.7099 5.82-3.4501 12.21-6.74 19.09-7.31 6.72-.55 13.77 1.16 19.27 5.03 4.19 2.94 7.62 7.0599 9.32 11.96h.01l-.01-.0201Z" fill="#264759" />
	<path d="M99.8427 97.9928c44.4503 32.1702 111.1303 21.0802 116.1403-38.47 1.61-19.06-7.29-43.51-33.14-54.96996-14.42-6.39-30.52-6.4-42.68 2.19-1.85 1.31-.35 4.18996 1.77 3.37996 11.79-4.55996 26.79-3.47996 38.84 6.88 15.11 13.01 22.07 37.94 8.28 54.4-4.55 5.42-10.84 9.42-17.9 10.42-12.55 1.77-25.3-2.51-35.75-9.27-5.66-3.66-10.81-8.1-15.3-13.14-5.38-6.06-10.5-12.36-15.22-18.94-7.9503-11.1-14.7303-22.28-26.3303-29.99-9.52-6.32996-20.85-9.94996-32.32-9.23996-11.47.71-23.09 6.3-31.82 14.46996-15.72001 14.75-18.55001 39.51-8.64001 58.74 7.13001 13.86 19.40001 23.81 33.26001 30.3302 2.55 1.22 4.2-1.71 2.62-3.16-13.08-11.9102-25.18-30.7602-20.91-46.0902 2.59-9.39 7.7-13.2 15.7-13.1 5.96.03 13.85 7.08 17.67 12.22 1.41 1.88 2.8 3.75 4.26 5.57 10.39 13.04 20.22 23.13 41.47 37.77Z" fill="#36677D" />
	<path d="M92.2426 97.5028c-.5-.33-1.08-.52-1.68-.53-3.19-.05-10.11-.07-14.74-.6-24.79-2.17-47.81-24.61-40.81-48.06.3-.99-.62-1.94-1.62-1.7-8.66 2.18-11.28 13.83-8.33 23.79.03.1.06.19.1.29 11.28 30.6202 47.59 52.9902 74.63 37.3602.2804-.16.5204-.36.7504-.6 0 0 .01-.02.03-.03 1.29-1.4 1.04-3.63-.54-4.68l-7.7704-5.2302-.02-.01Z" fill="#264759" />
	<path d="M52.0625 59.773c-7.11-8.95-13.51-13.58-13.5-2.85 0 1.91 1.04 3.7 2.73 4.71 6.69 4.04 12.89 10.51 20.03 12.37 1.22.32 2.12-1.11 1.26-2-3.57-3.77-6.92-7.72-10.52-12.22v-.0201.0101Zm97.2605 15.6199c-1.83-.75-2.29-3.12-.88-4.5 4.2-4.12 8.51-8.17 13.02-11.95 2.45-2.05 5.1-3.95 7.83-5.63 2.74-1.69 5.77-3.08 8.64-4.66 1.71-.94 3.78-.44 4.93 1.1 2.54 3.39 6.16 9.68 4.43 16.26-2.58 9.78-16.67 11.95-16.67 11.95s-11.03 1.62-21.3-2.57Z" fill="#94BFCE" />
	<path d="M174.253 46.0329c2.04-.93 1.93-3.92-.22-4.58-4.53-1.41-11.62-3.4-22.08 1.21-11.26 4.96-19.72 11.65-23.71 14.55-1.16.84-1.36 2.52-.42 3.6 2.11 2.4 6.28 6.43 12.8 9.57 1.02.49 2.25.23 2.97-.64 3.86-4.66 20-18.86 30.66-23.71Z" fill="#E2C06B" />
	<path d="M399.895 32.8191c-3.15 0-5.81-2.12-6.64-5.02h17.51l2.42-3.76h-19.93c.82-2.91 3.48-5.02 6.64-5.02h12.02l2.4-3.76h-14.7c-5.88 0-10.65 4.76-10.65 10.67s4.77 10.65 10.65 10.65h12.65l2.4-3.76h-14.77Zm-50.14 3.76h12.65l2.4-3.76h-14.76c-3.83 0-6.91-3.1-6.91-6.89 0-3.79 3.08-6.89 6.91-6.89h12.01l2.44-3.78h-14.72c-5.89 0-10.67 4.76-10.67 10.67s4.78 10.65 10.67 10.65m-77.83-3.76h-11.84c-3.82 0-6.89-3.1-6.89-6.89 0-3.79 3.08-6.89 6.89-6.89h11.83c3.82 0 6.91 3.08 6.91 6.89 0 3.81-3.08 6.89-6.91 6.89m-12.09 3.76h12.39c5.89 0 10.63-4.76 10.63-10.65 0-5.89-4.75-10.67-10.65-10.67h-12.38c-5.9 0-10.67 4.76-10.67 10.67s4.76 10.65 10.67 10.65h.01Zm43.14-6.89c4 0 7.21-3.23 7.21-7.21s-3.21-7.22-7.21-7.22h-17.93v21.32h4.1v-17.54h13.57c1.91 0 3.45 1.54 3.45 3.44s-1.54 3.46-3.45 3.46h-11.55l12.25 10.65h5.94l-8.21-6.89h1.87m67.76 3.12v-17.56h-4.1v19.28c0 .53.22 1.05.61 1.41.39.4.93.62 1.48.62h18.68l2.44-3.76h-19.11v.01Zm-50.16-3.76h10.93l-5.78-9.31-10.6 16.83h-4.84l12.91-20.2c.55-.82 1.5-1.32 2.53-1.32 1.03 0 1.94.48 2.5 1.28l12.94 20.24h-4.82l-2.27-3.76h-11.07l-2.42-3.76h-.01Zm-41.199 60.76-24-35.6-.11-.16h-6.13v46.9999h6.55V65.2991l24.01 35.5999.1.16h6.14V54.0591h-6.56v35.76Zm61.84 5.76c-.46.04-.94.06-1.43.06-2.93 0-4.36-1.68-4.36-5.13v-17.99h7.2v-5.41h-7.2v-9.17h-4.06l-2.31 9.12-5.79 1.93v3.53h5.73v18.06c0 3.64.8 6.37 2.38 8.13 1.64 1.7599 4.16 2.6599 7.52 2.6599.68 0 1.33-.02 1.93-.07.64-.04 1.28-.13 1.9-.26l.28-.06v-5.6399l-.38.04c-.43.04-.9.11-1.39.19l-.02.01Zm66.97-6.5301c-.87 2.2-2.17 3.99-3.88 5.33-1.67 1.3-3.48 1.97-5.39 1.97-2.26 0-3.99-.73-5.14-2.16-1.17-1.46-1.77-3.59-1.77-6.34v-20.73h-6.43v20.92c0 4.4 1.04 7.82 3.08 10.17 2.1 2.36 5.08 3.56 8.86 3.56 2.46 0 4.77-.57 6.85-1.7 1.88-1 3.49-2.39 4.8-4.14l.92 5.13h4.52v-33.94h-6.43v21.93h.01Zm12.649-19.03 3.311 2.1v28.94h6.43v-33.94h-9.741v2.9Zm9.671-13.9099h-7.7v5.85h7.7v-5.85Zm22.91 39.47c-.46.04-.94.06-1.43.06-2.93 0-4.36-1.68-4.36-5.13v-17.99h7.19v-5.41h-7.19v-9.17h-4.06l-2.31 9.12-5.79 1.93v3.53h5.73v18.06c0 3.64.8 6.37 2.38 8.13 1.64 1.7599 4.16 2.6599 7.52 2.6599.68 0 1.33-.02 1.93-.07.639-.04 1.28-.13 1.9-.26l.28-.06v-5.6399l-.38.04c-.43.04-.91.11-1.4.19l-.01.01Zm34.709-13.47c0-10.41-4.79-15.69-14.23-15.69-4.88 0-8.69 1.5-11.34 4.45-2.67 3.02-3.91 7.12-3.91 12.9s1.38 10.35 4.1 13.42c2.77 3.0299 6.89 4.5699 12.23 4.5699 2.34 0 4.53-.22 6.51-.64 2.03-.43 3.67-1.03 4.88-1.7599l.17-.1v-5.58l-.49.22c-1.75.79-3.48 1.38-5.15 1.76-1.67.38-3.46.57-5.34.57-3.33 0-5.86-.82-7.52-2.45-1.62-1.62-2.58-4.18-2.86-7.62h22.96v-4.04l-.01-.01Zm-22.96-1.18c.21-2.9 1.02-5.15 2.43-6.67 1.5-1.62 3.62-2.43 6.3-2.43 2.85 0 4.9.73 6.1 2.17 1.21 1.4 1.84 3.74 1.89 6.94h-16.73l.01-.01Zm-158.439-14.51c-4.87 0-8.69 1.5-11.34 4.45-2.67 3.02-3.91 7.12-3.91 12.9s1.38 10.35 4.1 13.42c2.77 3.0299 6.889 4.5699 12.229 4.5699 2.34 0 4.531-.22 6.511-.64 2.03-.43 3.67-1.03 4.88-1.7599l.16-.1v-5.58l-.49.22c-1.75.79-3.48 1.38-5.15 1.76-1.67.38-3.46.57-5.34.57-3.33 0-5.86-.82-7.52-2.45-1.62-1.62-2.58-4.18-2.87-7.62h22.96v-4.04c0-10.41-4.79-15.69-14.23-15.69l.01-.01Zm-8.73 14.52c.21-2.91 1.03-5.15 2.43-6.67 1.5-1.62 3.62-2.43 6.3-2.43 2.85 0 4.9.73 6.1 2.17 1.21 1.4 1.84 3.74 1.89 6.94h-16.73l.01-.01Zm79.879-.26c-1.81-2.11-4.9-4.03-9.18-5.7l-4.9-1.91c-3.05-1.21-5.2-2.37-6.39-3.44-1.17-1.04-1.73-2.27-1.73-3.75 0-4.52 3.28-6.72 10.03-6.72 3.59 0 7.57.93 11.84 2.77l.49.21v-5.96l-.18-.1c-1.59-.86-3.53-1.54-5.75-2.01-2.22-.51-4.41-.77-6.51-.77-5.07 0-9.12 1.14-12.06 3.38-2.96 2.27-4.47 5.4-4.47 9.32 0 2.75.93 5.18 2.77 7.24 1.85 1.98 4.9 3.81 9.04 5.43l4.91 1.91c3.17 1.21 5.38 2.41 6.57 3.56 1.15 1.11 1.74 2.55 1.74 4.27 0 2.37-.95 4.17-2.91 5.51-1.93 1.35-4.67 2.04-8.14 2.04-4.18 0-8.64-.95-13.24-2.84l-.48-.2v5.97l.19.09c1.09.52 2.41 1 3.94 1.4199 1.54.43 3.2.77 4.95 1.03 1.78.26 3.51.39 5.14.39 5.36 0 9.59-1.18 12.57-3.5099 3.05-2.39 4.59-5.77 4.59-10.02 0-2.96-.95-5.53-2.82-7.61h-.01Z" fill="#264759" />
</svg>