<?xml version="1.0" encoding="UTF-8"?>
<svg width="19px" height="26px" viewBox="0 0 19 26" version="1.1" xmlns="http://www.w3.org/2000/svg" xmlns:xlink="http://www.w3.org/1999/xlink">
    <!-- Generator: Sketch 52 (66869) - http://www.bohemiancoding.com/sketch -->
    <title>FileLineicon Copy 10</title>
    <desc>Created with Sketch.</desc>
    <defs>
        <path d="M2,0 L17,-4.21884749e-15 C18.1045695,-4.42175362e-15 19,0.8954305 19,2 L19,18.0425618 L11.0107422,26 L2,26 C0.8954305,26 3.42964797e-15,25.1045695 1.33226763e-15,24 L0,2 C-1.3527075e-16,0.8954305 0.8954305,2.02906125e-16 2,0 Z" id="path-1"></path>
    </defs>
    <g id="Page-1" stroke="none" stroke-width="1" fill="none" fill-rule="evenodd">
        <g id="Icons-page" transform="translate(-347.000000, -81.000000)">
            <g id="FileLineicon" transform="translate(347.000000, 81.000000)">
                <g id="Fileicon-Copy-8">
                    <mask id="mask-2" fill="white">
                        <use xlink:href="#path-1"></use>
                    </mask>
                    <path stroke="#8E989E" stroke-width="2" d="M10.597697,25 L18,17.6271789 L18,2 C18,1.44771525 17.5522847,1 17,1 L2,1 C1.44771525,1 1,1.44771525 1,2 L1,24 C1,24.5522847 1.44771525,25 2,25 L10.597697,25 Z"></path>
                    <path d="M18.9981689,17.0042725 L10.0982666,25.9875081 L10.0982666,18.0042725 C10.0982666,17.4519877 10.5459819,17.0042725 11.0982666,17.0042725 L18.9981689,17.0042725 Z" id="Path-2" fill="#8E989E" mask="url(#mask-2)"></path>
                    <g id="Typography/LineIcon_text" mask="url(#mask-2)" font-family="Roboto-Bold, Roboto" font-size="6" font-weight="bold" line-spacing="14">
                        <g transform="translate(0.000000, 5.000000)" id="Typography/Icon_text">
                            <g>
                                <text id="Heading_6" fill="#8E989E">
                                    <tspan x="3.86035156" y="6">URL</tspan>
                                </text>
                            </g>
                        </g>
                    </g>
                </g>
            </g>
        </g>
    </g>
</svg>