<?xml version="1.0" encoding="UTF-8"?>
<svg xmlns="http://www.w3.org/2000/svg" width="147" height="23" viewBox="0 0 147 23" fill="none">
  <path d="M59.6658 13.8687C59.6658 17.3655 57.1979 18.8734 54.4331 18.8734C51.6683 18.8734 49.1899 17.3655 49.1899 13.8687V8.81791C49.1899 7.99807 49.855 7.33301 50.6748 7.33301H50.6853C51.5051 7.33301 52.1702 7.99807 52.1702 8.81791V13.6072C52.1702 15.3786 53.1406 16.0981 54.4331 16.0981C55.7256 16.0981 56.696 15.3786 56.696 13.6072V8.81791C56.696 7.99807 57.3611 7.33301 58.1809 7.33301C59.0007 7.33301 59.6658 7.99807 59.6658 8.81791V13.8687Z" fill="#004A52"></path>
  <path d="M80.0152 11.539V17.2339C80.0152 18.0537 79.3501 18.7188 78.5303 18.7188C77.7105 18.7188 77.0454 18.0537 77.0454 17.2339V12.4989C77.0454 10.899 76.2339 10.0206 74.8871 10.0206C73.5402 10.0206 72.5447 10.8551 72.5447 12.5219V17.2339C72.5447 18.0537 71.8796 18.7188 71.0598 18.7188H71.0494C70.2295 18.7188 69.5645 18.0537 69.5645 17.2339V12.4989C69.5645 10.899 68.7655 10.0206 67.4061 10.0206C66.1262 10.0206 65.0637 10.8551 65.0637 12.5219V17.2339C65.0637 18.0537 64.3987 18.7188 63.5789 18.7188H63.5684C62.7486 18.7188 62.0835 18.0537 62.0835 17.2339V8.7804C62.0835 7.97939 62.7339 7.32897 63.5349 7.32897C64.3359 7.32897 64.9864 7.97939 64.9864 8.7804V8.82014C65.7748 7.64268 66.9857 7.22021 68.2427 7.22021C69.8426 7.22021 71.156 7.93966 71.8985 9.11712C72.7559 7.7117 74.2053 7.22021 75.6567 7.22021C78.2626 7.22021 80.0215 8.96863 80.0215 11.539H80.0152Z" fill="#004A52"></path>
  <path d="M92.4633 13.0342C92.4633 13.0342 92.4633 13.0405 92.4633 13.0447C92.4633 13.5947 92.0115 14.0402 91.4615 14.0402H84.5578C84.8778 15.6401 85.9967 16.3365 87.4021 16.3365C88.0609 16.3365 88.7594 16.1525 89.391 15.82C89.9055 15.5481 90.535 15.6422 90.9261 16.0709L90.9972 16.1483C91.5535 16.759 91.3758 17.7273 90.6438 18.108C89.6441 18.6287 88.498 18.8713 87.2306 18.8713C83.8383 18.8713 81.4834 16.5645 81.4834 13.0781C81.4834 9.59176 83.7693 7.21802 87.0821 7.21802C90.3949 7.21802 92.4528 9.5834 92.4633 13.0321V13.0342ZM84.5682 12.0052H89.4684C89.1944 10.5894 88.3369 9.78836 87.057 9.78836C85.6516 9.78836 84.8297 10.6333 84.5661 12.0052H84.5682Z" fill="#004A52"></path>
  <path d="M101.509 8.74046V8.75928C101.387 9.50173 100.71 10.0267 99.963 9.9451C99.7915 9.92628 99.6221 9.91583 99.4611 9.91583C98.0787 9.91583 97.1313 10.9072 97.1313 12.551V17.3529C97.1313 18.1769 96.4641 18.844 95.6401 18.844C94.8161 18.844 94.1489 18.1769 94.1489 17.3529V8.72372C94.1489 7.94572 94.7784 7.31621 95.5564 7.31621H95.6317C96.4097 7.31621 97.0392 7.94572 97.0392 8.72372C97.7357 7.6843 98.7981 7.21582 100.158 7.21582C100.183 7.21582 100.206 7.21582 100.229 7.21582C101.03 7.22419 101.632 7.94572 101.509 8.73627V8.74046Z" fill="#004A52"></path>
  <path d="M112.066 18.8483C111.261 18.8483 110.608 18.1958 110.608 17.3906V17.3634C109.889 18.2544 108.814 18.8713 107.296 18.8713C104.244 18.8713 101.938 16.37 101.938 13.0447C101.938 9.71934 104.244 7.21802 107.296 7.21802C108.816 7.21802 109.879 7.83498 110.608 8.73847C110.608 7.94792 111.248 7.30795 112.039 7.30795H112.089C112.88 7.30795 113.52 7.94792 113.52 8.73847V17.3906C113.52 18.1958 112.867 18.8483 112.062 18.8483H112.066ZM104.989 13.0468C104.989 14.7366 106.097 16.096 107.846 16.096C109.594 16.096 110.703 14.7931 110.703 13.0468C110.703 11.3004 109.548 9.9954 107.846 9.9954C106.143 9.9954 104.989 11.3548 104.989 13.0468Z" fill="#004A52"></path>
  <path d="M122.073 10.1669H119.911V14.2117C119.911 15.5941 120.643 16.096 121.567 16.096C121.893 16.096 122.232 16.0207 122.563 15.9036C123.209 15.6735 123.926 15.9684 124.219 16.5896C124.537 17.2651 124.244 18.0745 123.56 18.3736C122.86 18.6789 122.056 18.8734 121.078 18.8734C118.336 18.8734 116.93 17.3195 116.93 14.4522V10.169H116.119C115.387 10.169 114.793 9.57501 114.793 8.84302C114.793 8.11102 115.387 7.51706 116.119 7.51706H116.93V4.8066C116.93 3.98259 117.598 3.31543 118.422 3.31543C119.246 3.31543 119.913 3.98259 119.913 4.8066V7.51706H122.075C122.807 7.51706 123.401 8.11102 123.401 8.84302C123.401 9.57501 122.807 10.169 122.075 10.169L122.073 10.1669Z" fill="#004A52"></path>
  <path d="M136.866 13.0469C136.866 16.3827 134.319 18.8735 130.868 18.8735C127.417 18.8735 124.893 16.3827 124.893 13.0469C124.893 9.71108 127.429 7.22021 130.868 7.22021C134.306 7.22021 136.866 9.71108 136.866 13.0469ZM127.931 13.0469C127.931 14.8413 129.188 16.0961 130.868 16.0961C132.547 16.0961 133.815 14.8392 133.815 13.0469C133.815 11.2545 132.547 9.99551 130.868 9.99551C129.188 9.99551 127.931 11.2524 127.931 13.0469Z" fill="#004A52"></path>
  <path d="M145.988 8.79295L145.982 8.82851C145.865 9.61278 145.152 10.1586 144.361 10.0854C144.217 10.0729 144.075 10.0645 143.937 10.0645C142.554 10.0645 141.607 10.9095 141.607 12.5554V17.3573C141.607 18.1813 140.94 18.8484 140.116 18.8484C139.292 18.8484 138.625 18.1813 138.625 17.3573V8.72812C138.625 7.94384 139.26 7.30805 140.045 7.30805H140.095C140.879 7.30805 141.515 7.94384 141.515 8.72812C142.211 7.68869 143.274 7.22021 144.633 7.22021C144.639 7.22021 144.646 7.22021 144.652 7.22021C145.482 7.22231 146.11 7.97312 145.986 8.79295H145.988Z" fill="#004A52"></path>
  <path d="M46.8309 4.84834C46.8309 4.05152 46.1847 3.40527 45.3879 3.40527C44.591 3.40527 43.9448 4.05152 43.9448 4.84834V13.3917L35.8615 3.91139C35.7109 3.73362 35.5227 3.60814 35.3219 3.52448C35.3115 3.5203 35.2989 3.51612 35.2885 3.51194C35.2173 3.48475 35.1462 3.46174 35.0709 3.44501C35.0417 3.43874 35.0124 3.43455 34.9852 3.43037C34.9266 3.422 34.866 3.41364 34.8053 3.41155C34.7865 3.41155 34.7677 3.40527 34.7489 3.40527C34.7217 3.40527 34.6966 3.41155 34.6694 3.41364C34.6276 3.41573 34.5857 3.41991 34.5439 3.42619C34.4812 3.43455 34.4184 3.44919 34.3599 3.46592C34.339 3.4722 34.318 3.47847 34.2971 3.48475C34.2177 3.50984 34.1424 3.54331 34.0713 3.58095C34.0671 3.58304 34.0629 3.58513 34.0587 3.58723C33.6111 3.83192 33.3037 4.30249 33.3037 4.84834V17.311C33.3037 18.1079 33.95 18.7541 34.7468 18.7541C35.5436 18.7541 36.1898 18.1079 36.1898 17.311V8.753L44.2857 18.248C44.2961 18.2605 44.3108 18.271 44.3233 18.2835C44.3672 18.3295 44.4133 18.3735 44.4614 18.4132C44.4906 18.4383 44.5178 18.4634 44.5492 18.4864C44.6015 18.524 44.66 18.5554 44.7165 18.5847C44.7458 18.5993 44.773 18.6182 44.8043 18.6328C44.8755 18.6642 44.9507 18.6872 45.026 18.706C45.0449 18.7102 45.0637 18.7206 45.0846 18.7248C45.1808 18.7457 45.2812 18.7562 45.3837 18.7562C45.4736 18.7562 45.5635 18.7457 45.6535 18.729C45.6848 18.7227 45.7141 18.7123 45.7455 18.7039C45.802 18.6893 45.8563 18.6746 45.9107 18.6537C45.9463 18.6391 45.9797 18.6223 46.0132 18.6056C46.0592 18.5826 46.1052 18.5596 46.1491 18.5324C46.1847 18.5115 46.216 18.4864 46.2495 18.4613C46.2725 18.4446 46.2976 18.4299 46.3206 18.4111C46.3353 18.3986 46.3457 18.3839 46.3583 18.3714C46.3959 18.3379 46.4294 18.3003 46.4628 18.2626C46.4921 18.2292 46.5235 18.1936 46.5486 18.1581C46.5758 18.1204 46.6009 18.0807 46.6239 18.0388C46.6469 17.9991 46.6699 17.9594 46.6908 17.9175C46.7096 17.8757 46.7243 17.8318 46.741 17.7879C46.7556 17.744 46.7724 17.6979 46.7828 17.6519C46.7933 17.608 46.7996 17.5641 46.8058 17.5202C46.8142 17.47 46.8184 17.4198 46.8205 17.3675C46.8205 17.3487 46.8267 17.3319 46.8267 17.3131V4.84834H46.8309Z" fill="#004A52"></path>
  <path opacity="0.5" d="M7.95829 4.09347C7.95829 1.89541 6.17687 0.113525 3.97939 0.113525C1.7819 0.113525 0.000488281 1.89541 0.000488281 4.09347V18.2063C0.000488281 20.4043 1.7819 22.1862 3.97939 22.1862C6.17687 22.1862 7.95829 20.4043 7.95829 18.2063V4.09347Z" fill="#00E36B"></path>
  <path opacity="0.5" d="M22.1863 4.09347C22.1863 1.89541 20.4049 0.113525 18.2074 0.113525C16.0099 0.113525 14.2285 1.89541 14.2285 4.09347V18.2063C14.2285 20.4043 16.0099 22.1862 18.2074 22.1862C20.4049 22.1862 22.1863 20.4043 22.1863 18.2063V4.09347Z" fill="#00E36B"></path>
  <path d="M21.0212 21.0212C19.4673 22.5752 16.9472 22.5752 15.3933 21.0212L1.16544 6.79341C-0.388479 5.23949 -0.388479 2.71935 1.16544 1.16544C2.71935 -0.388479 5.23949 -0.388479 6.79341 1.16544L21.0212 15.3933C22.5752 16.9472 22.5752 19.4673 21.0212 21.0212ZM22.1862 4.0934C22.1862 1.89534 20.4043 0.113459 18.2062 0.113459C16.0081 0.113459 14.2263 1.89534 14.2263 4.0934C14.2263 6.29147 16.0081 8.07335 18.2062 8.07335C20.4043 8.07335 22.1862 6.29147 22.1862 4.0934ZM7.95832 18.2083C7.95832 16.0102 6.17644 14.2284 3.97838 14.2284C1.7824 14.2284 0.000522789 16.0102 0.000522789 18.2083C0.000522789 20.4064 1.7824 22.1882 3.98047 22.1882C6.17854 22.1882 7.96041 20.4064 7.96041 18.2083H7.95832Z" fill="#00E36B"></path>
</svg>
