<?xml version="1.0" encoding="UTF-8"?> <svg xmlns="http://www.w3.org/2000/svg" width="244.206" height="54.13" viewBox="0 0 244.206 54.13"><g id="integrichain-logo" transform="translate(-81.182 -21.306)"><g id="Group_3" data-name="Group 3" transform="translate(81.182 21.306)"><g id="Group_2" data-name="Group 2" transform="translate(16.005)"><path id="Path_714" data-name="Path 714" d="M154.366,52.413A24.379,24.379,0,1,0,106.82,42.1,14.444,14.444,0,0,0,96.764,64.742h6.659a9.777,9.777,0,0,1,5.165-18.085c.062,0,.122,0,.184,0l2.353.07.137-2.259a19.708,19.708,0,1,1,37.861,8.8L147.8,56.439l3.428.069a4.863,4.863,0,0,1-.064,9.724h-23a11.782,11.782,0,0,1-4.824,4.666h27.85a9.525,9.525,0,0,0,3.179-18.485Z" transform="translate(-94.135 -21.306)" fill="#00a131"></path></g><path id="Path_715" data-name="Path 715" d="M123.337,45.812a15.736,15.736,0,0,0-5.218-10.954,19.463,19.463,0,0,0-1.81,4.884,11.153,11.153,0,0,1,2.38,6.836,26.1,26.1,0,0,1-.217,3.116l2.2.285A7.038,7.038,0,0,1,119.761,64h-26.1a7.87,7.87,0,0,1,.062-15.74c.916-.015,2.645.106,2.645.106l.11-2.319a11.1,11.1,0,0,1,11.1-10.579,11.305,11.305,0,0,1,1.608.117,24.04,24.04,0,0,1,1.86-4.4A15.766,15.766,0,0,0,92.057,43.7,12.537,12.537,0,0,0,93.64,68.662h26.121a11.7,11.7,0,0,0,3.576-22.849Z" transform="translate(-81.182 -19.07)" fill="#004cae"></path></g><g id="Group_4" data-name="Group 4" transform="translate(171.298 47.973)"><rect id="Rectangle_17" data-name="Rectangle 17" width="3.215" height="20.591" transform="translate(0 0.057)" fill="#191717"></rect><path id="Path_716" data-name="Path 716" d="M170.41,49.323a4.457,4.457,0,0,0-1.651-.976,6.106,6.106,0,0,0-1.937-.311,5.815,5.815,0,0,0-2.873.7,4.318,4.318,0,0,0-1.368,1.161v-1.52h-3.045V62.324h3.045V55.151a6.173,6.173,0,0,1,.272-1.939,3.6,3.6,0,0,1,.741-1.316,2.843,2.843,0,0,1,1.1-.746,3.8,3.8,0,0,1,2.463-.068,2.321,2.321,0,0,1,.886.54,2.693,2.693,0,0,1,.624.99,4.294,4.294,0,0,1,.238,1.517v8.195h3.046v-8.9a6.415,6.415,0,0,0-.416-2.407A4.691,4.691,0,0,0,170.41,49.323Z" transform="translate(-152.835 -41.675)" fill="#191717"></path><path id="Path_717" data-name="Path 717" d="M178.867,60.363a5.11,5.11,0,0,1-.893.082,1.72,1.72,0,0,1-.981-.225,1.352,1.352,0,0,1-.483-.6,2.716,2.716,0,0,1-.194-.912q-.028-.547-.028-1.108V51.736h3.662v-2.7h-3.662V45.255h-3.045v3.776h-2.953v2.7h2.953V58.5c0,.556.025,1.113.072,1.653a3.713,3.713,0,0,0,.487,1.566,3.066,3.066,0,0,0,1.292,1.159,5.405,5.405,0,0,0,2.4.437,9.024,9.024,0,0,0,1.155-.1,3.542,3.542,0,0,0,1.264-.384l.125-.069V59.87l-.366.21A2.446,2.446,0,0,1,178.867,60.363Z" transform="translate(-150.301 -42.33)" fill="#191717"></path><path id="Path_718" data-name="Path 718" d="M191.744,50.386a6.251,6.251,0,0,0-2.113-1.7,6.923,6.923,0,0,0-3.134-.651,7.378,7.378,0,0,0-2.877.559,6.889,6.889,0,0,0-2.282,1.547,7.228,7.228,0,0,0-1.5,2.321,7.623,7.623,0,0,0-.544,2.889,8.175,8.175,0,0,0,.5,2.881,6.863,6.863,0,0,0,1.427,2.325,6.548,6.548,0,0,0,2.271,1.549,7.713,7.713,0,0,0,2.975.557,7.368,7.368,0,0,0,6.156-2.848l.151-.2-2.314-1.769-.151.184a6.469,6.469,0,0,1-1.559,1.41,3.585,3.585,0,0,1-1.941.515,4.976,4.976,0,0,1-1.625-.271,4.441,4.441,0,0,1-1.372-.753,3.752,3.752,0,0,1-.946-1.16,3.084,3.084,0,0,1-.347-1.246H193.3V55.378a9.738,9.738,0,0,0-.365-2.636A6.71,6.71,0,0,0,191.744,50.386Zm-5.3.183a4.2,4.2,0,0,1,1.6.279,3.131,3.131,0,0,1,1.119.762,3.232,3.232,0,0,1,.672,1.149A5,5,0,0,1,190.072,54h-7.55a3.368,3.368,0,0,1,.268-1.037,4.015,4.015,0,0,1,.79-1.19,3.971,3.971,0,0,1,1.244-.87A3.878,3.878,0,0,1,186.44,50.569Z" transform="translate(-148.179 -41.675)" fill="#191717"></path><path id="Path_719" data-name="Path 719" d="M203.334,49.917a5.264,5.264,0,0,0-1.739-1.263,6.559,6.559,0,0,0-2.758-.619,7.412,7.412,0,0,0-2.921.56,6.535,6.535,0,0,0-2.241,1.563,7.053,7.053,0,0,0-1.426,2.338,8.113,8.113,0,0,0-.5,2.854,7.524,7.524,0,0,0,.529,2.832,6.9,6.9,0,0,0,1.473,2.266,6.807,6.807,0,0,0,2.253,1.5,7.336,7.336,0,0,0,2.833.544,6.56,6.56,0,0,0,2.758-.6,4.7,4.7,0,0,0,1.739-1.367v1.328a6.23,6.23,0,0,1-.217,1.625,3.623,3.623,0,0,1-.731,1.4,3.841,3.841,0,0,1-1.4,1,5.669,5.669,0,0,1-2.259.39,5.87,5.87,0,0,1-2.535-.529,6.866,6.866,0,0,1-2.082-1.578l-.191-.21L191.86,66.5l.168.156a8.825,8.825,0,0,0,3.141,1.926,11.341,11.341,0,0,0,3.613.551,8.784,8.784,0,0,0,3.094-.526,7.024,7.024,0,0,0,2.412-1.486,6.665,6.665,0,0,0,1.548-2.269,7.512,7.512,0,0,0,.544-2.89V48.376h-3.046Zm-1.127,2.235a4.071,4.071,0,0,1,.83,1.393,5.351,5.351,0,0,1,.3,1.805,4.306,4.306,0,0,1-1.123,3.109,4.617,4.617,0,0,1-6.121,0,4.3,4.3,0,0,1-1.123-3.109,5.311,5.311,0,0,1,.3-1.805,4.046,4.046,0,0,1,.828-1.393,3.848,3.848,0,0,1,1.31-.907,4.732,4.732,0,0,1,3.5,0A3.86,3.86,0,0,1,202.207,52.152Z" transform="translate(-145.244 -41.675)" fill="#191717"></path><path id="Path_720" data-name="Path 720" d="M211.451,48.23a5.259,5.259,0,0,0-1.2.521,4.812,4.812,0,0,0-1,.793,3.894,3.894,0,0,0-.318.369V48.376h-3.045V62.324h3.045v-7a4.407,4.407,0,0,1,.927-3.1,3.54,3.54,0,0,1,2.69-.974,3.312,3.312,0,0,1,.58.052q.3.056.6.138l.3.082.133-3.247-.173-.058A4.376,4.376,0,0,0,211.451,48.23Z" transform="translate(-141.914 -41.675)" fill="#191717"></path><path id="Path_721" data-name="Path 721" d="M215.743,47.126a2.135,2.135,0,1,0-1.493-.625A2.048,2.048,0,0,0,215.743,47.126Z" transform="translate(-140.09 -42.888)" fill="#191717"></path><rect id="Rectangle_18" data-name="Rectangle 18" width="3.044" height="13.947" transform="translate(74.132 6.701)" fill="#191717"></rect></g><g id="Group_6" data-name="Group 6" transform="translate(251.153 46.912)"><path id="Path_722" data-name="Path 722" d="M233.986,47.375a5.752,5.752,0,0,0-2.243-1.831,6.622,6.622,0,0,0-2.781-.61,6.964,6.964,0,0,0-3.082.682,7.705,7.705,0,0,0-2.427,1.83,8.391,8.391,0,0,0-1.59,2.67,8.945,8.945,0,0,0-.568,3.166,9.275,9.275,0,0,0,.568,3.279,8.172,8.172,0,0,0,1.575,2.639,7.388,7.388,0,0,0,2.413,1.776,7.793,7.793,0,0,0,6.4-.072,7.429,7.429,0,0,0,2.527-2.087l1.789,1.505a8.25,8.25,0,0,1-3.279,2.669,10.543,10.543,0,0,1-4.328.853,10.229,10.229,0,0,1-4.032-.8,9.9,9.9,0,0,1-3.251-2.2,10.108,10.108,0,0,1-2.159-3.336,11.184,11.184,0,0,1-.781-4.23,11.316,11.316,0,0,1,.752-4.146,9.982,9.982,0,0,1,9.47-6.417,10.715,10.715,0,0,1,3.932.738,7.25,7.25,0,0,1,3.166,2.413Z" transform="translate(-218.74 -41.866)" fill="#96999c"></path><path id="Path_723" data-name="Path 723" d="M235.1,42.029h2.215V52.052h.056a3.553,3.553,0,0,1,.625-.781,4.647,4.647,0,0,1,.951-.7,5.9,5.9,0,0,1,1.234-.512,5.21,5.21,0,0,1,1.448-.2,5.843,5.843,0,0,1,2.258.4,4.258,4.258,0,0,1,1.575,1.107,4.471,4.471,0,0,1,.922,1.719,7.721,7.721,0,0,1,.3,2.2v8.206H244.47V55.516a4.261,4.261,0,0,0-.738-2.641,2.714,2.714,0,0,0-2.3-.965,4.323,4.323,0,0,0-1.86.368,3.307,3.307,0,0,0-1.278,1.052,4.7,4.7,0,0,0-.738,1.619,8.311,8.311,0,0,0-.241,2.072v6.473H235.1Z" transform="translate(-214.885 -42.029)" fill="#96999c"></path><path id="Path_724" data-name="Path 724" d="M247.415,50.416a6.237,6.237,0,0,1,2.428-1.547,8.5,8.5,0,0,1,2.853-.5,5.622,5.622,0,0,1,4.258,1.391,5.991,5.991,0,0,1,1.306,4.231V59.7q0,.567.058,1.178c.037.408.085.781.141,1.122H256.33a4.7,4.7,0,0,1-.128-1.008q-.013-.554-.012-.98h-.058a5.181,5.181,0,0,1-1.746,1.676,5.03,5.03,0,0,1-2.626.652,6.888,6.888,0,0,1-1.916-.256,4.764,4.764,0,0,1-1.562-.751,3.7,3.7,0,0,1-1.064-1.236,3.514,3.514,0,0,1-.4-1.7,3.694,3.694,0,0,1,.851-2.584,5.163,5.163,0,0,1,2.115-1.391,10.427,10.427,0,0,1,2.726-.568q1.461-.113,2.683-.114h.851v-.4a2.712,2.712,0,0,0-.866-2.187,3.63,3.63,0,0,0-2.427-.738,6.508,6.508,0,0,0-2.115.355,5.078,5.078,0,0,0-1.831,1.094Zm6.417,5.2a7.96,7.96,0,0,0-3.378.6,2.027,2.027,0,0,0-1.25,1.958,1.93,1.93,0,0,0,.838,1.776,3.853,3.853,0,0,0,2.087.525,4.085,4.085,0,0,0,1.69-.326,3.564,3.564,0,0,0,1.206-.866,3.7,3.7,0,0,0,.738-1.264,5.128,5.128,0,0,0,.284-1.547v-.851Z" transform="translate(-212.124 -40.535)" fill="#96999c"></path><path id="Path_725" data-name="Path 725" d="M258.675,44.751a1.578,1.578,0,0,1,.468-1.136,1.61,1.61,0,0,1,2.3,0,1.631,1.631,0,1,1-2.768,1.136Zm.512,5.2H261.4V63.235h-2.214Z" transform="translate(-209.33 -41.769)" fill="#96999c"></path><path id="Path_726" data-name="Path 726" d="M264.028,51.864q0-.908-.057-1.7t-.058-1.448h2.1c0,.361.01.719.028,1.079s.028.729.028,1.107h.057a3.86,3.86,0,0,1,.639-.937,4.645,4.645,0,0,1,.98-.809,5.208,5.208,0,0,1,1.278-.567,5.3,5.3,0,0,1,1.532-.214,5.843,5.843,0,0,1,2.257.4,4.248,4.248,0,0,1,1.575,1.107,4.458,4.458,0,0,1,.923,1.719,7.722,7.722,0,0,1,.3,2.2V62H273.4V54.022a4.253,4.253,0,0,0-.738-2.641,2.711,2.711,0,0,0-2.3-.965,4.327,4.327,0,0,0-1.86.368,3.3,3.3,0,0,0-1.276,1.052,4.674,4.674,0,0,0-.739,1.619,8.311,8.311,0,0,0-.241,2.072V62h-2.214Z" transform="translate(-208.096 -40.535)" fill="#96999c"></path><g id="Group_5" data-name="Group 5" transform="translate(68.296 2.615)"><path id="Path_727" data-name="Path 727" d="M279.95,47.034a2.97,2.97,0,1,1-2.943-2.889A2.912,2.912,0,0,1,279.95,47.034Zm-5.2,0a2.25,2.25,0,0,0,2.255,2.309,2.215,2.215,0,0,0,2.2-2.291,2.231,2.231,0,1,0-4.458-.019Zm1.781,1.5h-.671V45.643a7.727,7.727,0,0,1,1.111-.089,1.54,1.54,0,0,1,.987.23.729.729,0,0,1,.3.617.746.746,0,0,1-.6.687v.036c.282.088.424.316.512.7a2.545,2.545,0,0,0,.211.7h-.7a2.235,2.235,0,0,1-.23-.7c-.053-.3-.229-.441-.6-.441h-.316Zm.016-1.621h.318c.371,0,.67-.122.67-.423,0-.264-.193-.44-.617-.44a1.653,1.653,0,0,0-.371.035Z" transform="translate(-274.012 -44.145)" fill="#96999c"></path></g></g></g></svg> 