<!-- Generated by IcoMoon.io -->
<svg version="1.1" xmlns="http://www.w3.org/2000/svg" width="32" height="32" viewBox="0 0 32 32">
<title>exasol</title>
<path fill="#002c40" d="M2.133 12.267v6.4h4.267v-0.999h-3.020v-1.722h2.314v-1.004h-2.314v-1.676h2.864v-0.999z"></path>
<path fill="#002c40" d="M16.429 18.237c-0.304 0.516-0.968 0.774-1.531 0.774-1.226 0-2.312-0.958-2.312-2.46s1.081-2.45 2.312-2.45c0.545 0 1.217 0.23 1.531 0.765v-0.667h0.995v4.703h-0.995v-0.666zM15.016 18.007c0.74 0 1.404-0.535 1.404-1.46 0-0.929-0.722-1.432-1.404-1.432-0.759 0-1.395 0.563-1.395 1.432 0 0.864 0.631 1.46 1.395 1.46v0z"></path>
<path fill="#002c40" d="M18.841 17.496c0 0 0.504 0.521 1.254 0.521 0.322 0 0.604-0.15 0.604-0.427 0-0.709-2.235-0.615-2.235-2.145 0-0.887 0.768-1.399 1.758-1.399 1.036 0 1.54 0.54 1.54 0.54l-0.422 0.878c0 0-0.422-0.408-1.127-0.408-0.3 0-0.586 0.131-0.586 0.427 0 0.671 2.235 0.587 2.235 2.117 0 0.793-0.668 1.427-1.758 1.427-1.145 0-1.785-0.699-1.785-0.699l0.522-0.831z"></path>
<path fill="#002c40" d="M24.965 14.050c1.408 0 2.535 1.033 2.535 2.488 0 1.465-1.127 2.488-2.526 2.488-1.408 0-2.535-1.023-2.535-2.488 0.005-1.455 1.131-2.488 2.526-2.488zM24.974 18.022c0.74 0 1.363-0.596 1.363-1.483 0-0.878-0.622-1.483-1.363-1.483-0.75 0-1.372 0.606-1.372 1.483 0.005 0.882 0.627 1.483 1.372 1.483z"></path>
<path fill="#002c40" d="M28.358 12.3h1.136v4.957c0 0.521 0.173 0.652 0.468 0.652 0.091 0 0.173-0.009 0.173-0.009v1.033c0 0-0.173 0.028-0.359 0.028-0.631 0-1.417-0.169-1.417-1.53v-5.131z"></path>
<path fill="#45b035" d="M7.471 18.913l1.749-2.361-1.744-2.347h1.349l1.744 2.347-1.753 2.361z"></path>
<path fill="#002c40" d="M10.133 15.383l0.672 0.906 1.54-2.089h-1.345z"></path>
<path fill="#002c40" d="M10.133 17.73l0.672-0.906 1.54 2.089h-1.345z"></path>
</svg>
