<svg width="24" height="24" viewBox="0 0 24 24" fill="none" xmlns="http://www.w3.org/2000/svg">
<path fill-rule="evenodd" clip-rule="evenodd" d="M5.83069 2.00602C4.89662 2.15746 4.16801 2.89845 4.02945 3.83787C4.0044 4.0078 4.00014 4.62748 4.00004 8.11581C3.99996 10.9695 4.00643 12.231 4.02157 12.3148C4.05256 12.486 4.13771 12.6437 4.2663 12.768C4.45564 12.951 4.67902 13.0239 4.9531 12.992C5.12395 12.9721 5.27867 12.8913 5.41845 12.7488C5.55158 12.6131 5.62674 12.4623 5.65273 12.2786C5.66294 12.2066 5.67086 10.4017 5.6711 8.1032L5.67149 4.05474L5.72222 3.95071C5.78108 3.82996 5.87682 3.74797 6.00503 3.70856C6.08051 3.68533 6.73913 3.68065 9.93253 3.68065H13.7694L13.7806 7.67719L13.8275 7.79605C13.8877 7.94854 14.0119 8.10446 14.1496 8.20028C14.3573 8.3449 14.2479 8.33819 16.3955 8.33819H18.3277L18.3281 10.2449C18.3283 11.2937 18.3366 12.2088 18.3465 12.2786C18.3724 12.4623 18.4476 12.6131 18.5807 12.7488C18.7772 12.9491 19.0111 13.0287 19.2915 12.9909C19.6258 12.9457 19.915 12.6608 19.9776 12.3148C20.0065 12.1552 20.008 7.49577 19.9792 7.34079C19.9284 7.0667 20.0568 7.20877 17.4762 4.57134C15.1937 2.23861 15.0882 2.13388 14.9547 2.0697L14.8154 2.00272L10.3479 2.00034C7.89081 1.99904 5.85805 2.00158 5.83069 2.00602ZM15.4422 5.77553V6.65009H17.1634L16.3079 5.77553C15.8373 5.29452 15.4501 4.90097 15.4473 4.90097C15.4445 4.90097 15.4422 5.29452 15.4422 5.77553Z" fill="black"/>
<path d="M5.17004 15.84V18.25C5.17004 18.2967 5.19671 18.3267 5.25004 18.34C5.50337 18.3733 5.75004 18.39 5.99004 18.39C6.53004 18.39 6.94004 18.2733 7.22004 18.04C7.50671 17.8 7.65004 17.46 7.65004 17.02C7.65004 16.1333 7.09671 15.69 5.99004 15.69C5.75004 15.69 5.50337 15.7067 5.25004 15.74C5.19671 15.7533 5.17004 15.7867 5.17004 15.84ZM4.35004 22C4.19671 22 4.06337 21.9433 3.95004 21.83C3.84337 21.7167 3.79004 21.5833 3.79004 21.43V15.32C3.79004 15.16 3.84337 15.0167 3.95004 14.89C4.05671 14.7633 4.19004 14.6933 4.35004 14.68C4.91671 14.6267 5.46337 14.6 5.99004 14.6C6.99004 14.6 7.74004 14.8 8.24004 15.2C8.74004 15.5933 8.99004 16.1667 8.99004 16.92C8.99004 17.7533 8.74671 18.3833 8.26004 18.81C7.78004 19.2367 7.06671 19.45 6.12004 19.45C5.90004 19.45 5.61004 19.4367 5.25004 19.41C5.19671 19.41 5.17004 19.4367 5.17004 19.49V21.43C5.17004 21.5833 5.11337 21.7167 5.00004 21.83C4.88671 21.9433 4.75337 22 4.60004 22H4.35004Z" fill="black"/>
<path d="M11.4593 15.86V20.84C11.4593 20.8867 11.486 20.9167 11.5393 20.93C11.7527 20.9633 11.9527 20.98 12.1393 20.98C12.9193 20.98 13.4927 20.77 13.8593 20.35C14.226 19.9233 14.4093 19.2233 14.4093 18.25C14.4093 17.3767 14.2227 16.7367 13.8493 16.33C13.476 15.9233 12.906 15.72 12.1393 15.72C11.9527 15.72 11.7527 15.7367 11.5393 15.77C11.486 15.7833 11.4593 15.8133 11.4593 15.86ZM10.6393 22.03C10.4727 22.01 10.336 21.94 10.2293 21.82C10.1227 21.6933 10.0693 21.5467 10.0693 21.38V15.32C10.0693 15.1533 10.1227 15.01 10.2293 14.89C10.336 14.7633 10.4727 14.69 10.6393 14.67C11.066 14.6233 11.5427 14.6 12.0693 14.6C13.256 14.6 14.1627 14.91 14.7893 15.53C15.4227 16.15 15.7393 17.0567 15.7393 18.25C15.7393 19.53 15.4227 20.4933 14.7893 21.14C14.1627 21.78 13.256 22.1 12.0693 22.1C11.5427 22.1 11.066 22.0767 10.6393 22.03Z" fill="black"/>
<path d="M17.4262 22C17.2729 22 17.1395 21.9433 17.0262 21.83C16.9195 21.7167 16.8662 21.5833 16.8662 21.43V15.27C16.8662 15.1167 16.9195 14.9833 17.0262 14.87C17.1395 14.7567 17.2729 14.7 17.4262 14.7H20.7262C20.8795 14.7 21.0129 14.7567 21.1262 14.87C21.2395 14.9833 21.2962 15.1167 21.2962 15.27C21.2962 15.4233 21.2395 15.5567 21.1262 15.67C21.0129 15.7767 20.8795 15.83 20.7262 15.83H18.3462C18.2929 15.83 18.2662 15.86 18.2662 15.92V17.67C18.2662 17.7233 18.2929 17.75 18.3462 17.75H20.5562C20.7029 17.75 20.8295 17.8033 20.9362 17.91C21.0429 18.01 21.0962 18.1367 21.0962 18.29C21.0962 18.4433 21.0429 18.5733 20.9362 18.68C20.8295 18.78 20.7029 18.83 20.5562 18.83H18.3462C18.2929 18.83 18.2662 18.8567 18.2662 18.91V21.43C18.2662 21.5833 18.2095 21.7167 18.0962 21.83C17.9829 21.9433 17.8495 22 17.6962 22H17.4262Z" fill="black"/>
</svg>
