<?xml version="1.0" encoding="UTF-8"?> <svg xmlns="http://www.w3.org/2000/svg" width="197" height="40" viewBox="0 0 197 40" fill="none"><g clip-path="url(#clip0_633_7794)"><path fill-rule="evenodd" clip-rule="evenodd" d="M16.3651 0.349629C17.1727 -0.116641 18.1679 -0.116496 18.9755 0.349782L26.3933 4.63231C26.4715 4.67126 26.5473 4.71505 26.6202 4.76336L34.0355 9.04432C34.8431 9.51058 35.3406 10.3724 35.3406 11.3048V28.6949C35.3405 29.6274 34.8431 30.4891 34.0356 30.9553L18.9755 39.6503C18.1679 40.1165 17.1727 40.1166 16.3651 39.6504L1.30524 30.9555C0.497616 30.4892 7.90002e-07 29.6273 0 28.6947L9.38145e-05 11.3053C9.30245e-05 10.3727 0.497602 9.51075 1.30519 9.04445L16.3651 0.349629ZM1.29977 28.6948C1.29977 29.163 1.54965 29.5957 1.95512 29.8298L17.015 38.5247C17.4205 38.7588 17.9202 38.7587 18.3256 38.5247L24.1655 35.153L12.7703 28.574C12.747 28.5612 12.724 28.5478 12.7012 28.5342L1.29956 21.9513L1.29977 28.6948ZM27.5439 19.9216C27.5459 19.9762 27.5458 20.0309 27.5438 20.0855L27.5403 33.2046L33.3857 29.8297C33.7911 29.5956 34.0408 29.163 34.0408 28.6949L34.0409 11.3048C34.0408 10.8367 33.7908 10.4042 33.3854 10.1701L27.5477 6.79985L27.5439 19.9216ZM25.0717 34.1752C25.5903 34.4745 26.2404 34.1 26.2405 33.4991L26.2436 22.0328L15.1336 28.4375L25.0717 34.1752ZM13.3588 12.5887C13.1125 12.7453 12.9391 13.0195 12.9389 13.3561L12.93 26.6391C12.9298 26.9823 13.1099 27.2608 13.364 27.4157L13.402 27.4378C13.6623 27.5799 13.9909 27.5964 14.2833 27.4279L25.7907 20.7934C26.0779 20.6278 26.2288 20.3436 26.2442 20.0532L26.244 19.9525C26.2281 19.6634 26.0778 19.381 25.7929 19.2163L14.2946 12.5675C14.0097 12.4028 13.6894 12.4139 13.4316 12.5466L13.3588 12.5887ZM1.69212 19.3259C1.17168 19.6264 1.17247 20.3768 1.69117 20.6763L11.63 26.4147L11.6388 13.582L1.69212 19.3259ZM15.1445 11.5574L26.2447 17.976L26.2481 6.49457C26.2481 6.22374 26.1157 5.99921 25.9228 5.86159L25.7896 5.78463C25.5742 5.68705 25.314 5.68513 25.0799 5.82028L15.1445 11.5574ZM1.95508 10.1701C1.54964 10.4042 1.29986 10.8371 1.29986 11.3053L1.29955 18.0514L12.6879 11.4749C12.7257 11.4515 12.7642 11.4293 12.8033 11.4082L24.1654 4.84712L18.3257 1.47542C17.9202 1.24132 17.4204 1.24118 17.015 1.47527L1.95508 10.1701Z" fill="#D97757"></path><path d="M54.7452 25.268L54.6052 21.852L65.7212 10.4H68.9132L60.3172 19.472L58.7492 21.208L54.7452 25.268ZM52.2812 30V10.4H55.0812V30H52.2812ZM66.1693 30L58.1332 20.648L60.0092 18.576L69.4453 30H66.1693ZM81.9432 30.224C80.4499 30.224 79.0592 29.972 77.7712 29.468C76.5019 28.964 75.4006 28.264 74.4672 27.368C73.5339 26.4533 72.8059 25.3893 72.2832 24.176C71.7606 22.9627 71.4992 21.6373 71.4992 20.2C71.4992 18.7627 71.7606 17.4373 72.2832 16.224C72.8059 15.0107 73.5339 13.956 74.4672 13.06C75.4006 12.1453 76.5019 11.436 77.7712 10.932C79.0406 10.428 80.4312 10.176 81.9432 10.176C83.4366 10.176 84.8087 10.428 86.0592 10.932C87.3287 11.4173 88.43 12.1173 89.3633 13.032C90.3153 13.928 91.0432 14.9827 91.5472 16.196C92.07 17.4093 92.3312 18.744 92.3312 20.2C92.3312 21.656 92.07 22.9907 91.5472 24.204C91.0432 25.4173 90.3153 26.4813 89.3633 27.396C88.43 28.292 87.3287 28.992 86.0592 29.496C84.8087 29.9813 83.4366 30.224 81.9432 30.224ZM81.9432 27.732C83.0259 27.732 84.0246 27.5453 84.9392 27.172C85.8726 26.7987 86.6753 26.276 87.3473 25.604C88.038 24.9133 88.5699 24.1107 88.9432 23.196C89.3352 22.2813 89.5312 21.2827 89.5312 20.2C89.5312 19.1173 89.3352 18.1187 88.9432 17.204C88.5699 16.2893 88.038 15.496 87.3473 14.824C86.6753 14.1333 85.8726 13.6013 84.9392 13.228C84.0246 12.8547 83.0259 12.668 81.9432 12.668C80.8419 12.668 79.8246 12.8547 78.8913 13.228C77.9767 13.6013 77.1739 14.1333 76.4832 14.824C75.7926 15.496 75.2512 16.2893 74.8592 17.204C74.4859 18.1187 74.2992 19.1173 74.2992 20.2C74.2992 21.2827 74.4859 22.2813 74.8592 23.196C75.2512 24.1107 75.7926 24.9133 76.4832 25.604C77.1739 26.276 77.9767 26.7987 78.8913 27.172C79.8246 27.5453 80.8419 27.732 81.9432 27.732ZM98.0109 30V10.4H100.307L109.099 25.212H107.867L116.547 10.4H118.843L118.871 30H116.183L116.155 14.628H116.799L109.071 27.62H107.783L99.9989 14.628H100.699V30H98.0109ZM135.001 30.224C133.508 30.224 132.117 29.972 130.829 29.468C129.56 28.964 128.459 28.264 127.525 27.368C126.592 26.4533 125.864 25.3893 125.341 24.176C124.819 22.9627 124.557 21.6373 124.557 20.2C124.557 18.7627 124.819 17.4373 125.341 16.224C125.864 15.0107 126.592 13.956 127.525 13.06C128.459 12.1453 129.56 11.436 130.829 10.932C132.099 10.428 133.489 10.176 135.001 10.176C136.495 10.176 137.867 10.428 139.117 10.932C140.387 11.4173 141.488 12.1173 142.421 13.032C143.373 13.928 144.101 14.9827 144.605 16.196C145.128 17.4093 145.389 18.744 145.389 20.2C145.389 21.656 145.128 22.9907 144.605 24.204C144.101 25.4173 143.373 26.4813 142.421 27.396C141.488 28.292 140.387 28.992 139.117 29.496C137.867 29.9813 136.495 30.224 135.001 30.224ZM135.001 27.732C136.084 27.732 137.083 27.5453 137.997 27.172C138.931 26.7987 139.733 26.276 140.405 25.604C141.096 24.9133 141.628 24.1107 142.001 23.196C142.393 22.2813 142.589 21.2827 142.589 20.2C142.589 19.1173 142.393 18.1187 142.001 17.204C141.628 16.2893 141.096 15.496 140.405 14.824C139.733 14.1333 138.931 13.6013 137.997 13.228C137.083 12.8547 136.084 12.668 135.001 12.668C133.9 12.668 132.883 12.8547 131.949 13.228C131.035 13.6013 130.232 14.1333 129.541 14.824C128.851 15.496 128.309 16.2893 127.917 17.204C127.544 18.1187 127.357 19.1173 127.357 20.2C127.357 21.2827 127.544 22.2813 127.917 23.196C128.309 24.1107 128.851 24.9133 129.541 25.604C130.232 26.276 131.035 26.7987 131.949 27.172C132.883 27.5453 133.9 27.732 135.001 27.732ZM151.069 30V10.4H159.329C161.42 10.4 163.258 10.8107 164.845 11.632C166.45 12.4533 167.692 13.6013 168.569 15.076C169.465 16.5507 169.913 18.2587 169.913 20.2C169.913 22.1413 169.465 23.8493 168.569 25.324C167.692 26.7987 166.45 27.9467 164.845 28.768C163.258 29.5893 161.42 30 159.329 30H151.069ZM153.869 27.564H159.161C160.785 27.564 162.185 27.256 163.361 26.64C164.556 26.024 165.48 25.1653 166.133 24.064C166.786 22.944 167.113 21.656 167.113 20.2C167.113 18.7253 166.786 17.4373 166.133 16.336C165.48 15.2347 164.556 14.376 163.361 13.76C162.185 13.144 160.785 12.836 159.161 12.836H153.869V27.564ZM184.45 30.224C182.957 30.224 181.566 29.972 180.278 29.468C179.009 28.964 177.907 28.264 176.974 27.368C176.041 26.4533 175.313 25.3893 174.79 24.176C174.267 22.9627 174.006 21.6373 174.006 20.2C174.006 18.7627 174.267 17.4373 174.79 16.224C175.313 15.0107 176.041 13.956 176.974 13.06C177.907 12.1453 179.009 11.436 180.278 10.932C181.547 10.428 182.938 10.176 184.45 10.176C185.943 10.176 187.315 10.428 188.566 10.932C189.835 11.4173 190.937 12.1173 191.87 13.032C192.822 13.928 193.55 14.9827 194.054 16.196C194.577 17.4093 194.838 18.744 194.838 20.2C194.838 21.656 194.577 22.9907 194.054 24.204C193.55 25.4173 192.822 26.4813 191.87 27.396C190.937 28.292 189.835 28.992 188.566 29.496C187.315 29.9813 185.943 30.224 184.45 30.224ZM184.45 27.732C185.533 27.732 186.531 27.5453 187.446 27.172C188.379 26.7987 189.182 26.276 189.854 25.604C190.545 24.9133 191.077 24.1107 191.45 23.196C191.842 22.2813 192.038 21.2827 192.038 20.2C192.038 19.1173 191.842 18.1187 191.45 17.204C191.077 16.2893 190.545 15.496 189.854 14.824C189.182 14.1333 188.379 13.6013 187.446 13.228C186.531 12.8547 185.533 12.668 184.45 12.668C183.349 12.668 182.331 12.8547 181.398 13.228C180.483 13.6013 179.681 14.1333 178.99 14.824C178.299 15.496 177.758 16.2893 177.366 17.204C176.993 18.1187 176.806 19.1173 176.806 20.2C176.806 21.2827 176.993 22.2813 177.366 23.196C177.758 24.1107 178.299 24.9133 178.99 25.604C179.681 26.276 180.483 26.7987 181.398 27.172C182.331 27.5453 183.349 27.732 184.45 27.732Z" fill="white"></path></g><defs><clipPath id="clip0_633_7794"><rect width="197" height="40" fill="white"></rect></clipPath></defs></svg> 