<?xml version="1.0" encoding="UTF-8"?>
<svg width="19px" height="26px" viewBox="0 0 19 26" version="1.1" xmlns="http://www.w3.org/2000/svg" xmlns:xlink="http://www.w3.org/1999/xlink">
    <!-- Generator: Sketch 50.2 (55047) - http://www.bohemiancoding.com/sketch -->
    <title>Fileicon Copy 4</title>
    <desc>Created with Sketch.</desc>
    <defs>
        <path d="M2,-2.84217094e-14 L17,-2.84217094e-14 C18.1045695,-2.86246156e-14 19,0.8954305 19,2 L19,18.0425618 L11.0107422,26 L2,26 C0.8954305,26 -1.10442943e-13,25.1045695 -1.10578213e-13,24 L-1.10134124e-13,2 C-1.10269395e-13,0.8954305 0.8954305,-2.82188033e-14 2,-2.84217094e-14 Z" id="path-1"></path>
    </defs>
    <g id="Page-1" stroke="none" stroke-width="1" fill="none" fill-rule="evenodd">
        <g id="Icons-page" transform="translate(-193.000000, -33.000000)">
            <g id="Fileicon-Copy-4" transform="translate(193.000000, 33.000000)">
                <g>
                    <mask id="mask-2" fill="white">
                        <use xlink:href="#path-1"></use>
                    </mask>
                    <use id="Rectangle" fill="#D8D8D8" xlink:href="#path-1"></use>
                    <g id="Color/fill/Dark_Gray2" mask="url(#mask-2)" fill="#ACB9BF">
                        <g transform="translate(-5.000000, -2.000000)" id="Rectangle">
                            <rect x="0" y="0" width="30" height="30"></rect>
                        </g>
                    </g>
                    <path d="M18.9981689,18 L11,25.9875081 L11,19 C11,18.4477153 11.4477153,18 12,18 L18.9981689,18 Z" id="Path-2" fill="#8E989E" mask="url(#mask-2)"></path>
                    <g id="Typography/Icon_text" mask="url(#mask-2)" font-family="Roboto-Bold, Roboto" font-size="6" font-weight="bold" line-spacing="14">
                        <g transform="translate(0.000000, 5.000000)" id="Heading_6">
                            <text>
                                <tspan x="1.79931641" y="6" fill="#FFFFFF">JSON</tspan>
                            </text>
                        </g>
                    </g>
                </g>
            </g>
        </g>
    </g>
</svg>