<svg width="151" height="37" viewBox="0 0 151 37" fill="none" xmlns="http://www.w3.org/2000/svg">
<path d="M0 0.518763V36.2588H3.24006L22.2362 17.2943V27.2344H26.7766V9.55205H9.07271V14.0875H19.0257L4.54128 28.5541V5.05416H31.2812V31.7617H14.1737L9.66197 36.2596H35.8215L35.7929 0.518763H0ZM53.6115 26.4714H46.3191V19.553H43.0915V36.2525H46.3191V29.3341H53.6115V36.2525H56.8389V19.553H53.6115V26.4714ZM48.8293 0.5H43.0906V17.1995H48.9492C53.9705 17.1995 57.318 14.3368 57.318 8.84975C57.318 3.36277 53.8505 0.5 48.8293 0.5ZM48.5902 14.3368H46.3182V3.36277H48.5902C51.8176 3.36277 54.0896 4.67442 54.0896 8.84975C54.0896 13.0251 51.8186 14.3368 48.5902 14.3368ZM100.477 17.1995V5.27129H97.3684V17.1995H100.477ZM114.488 0.5H111.141V3.72017H114.488V0.5ZM133.497 17.4381C136.486 17.4381 138.326 15.7681 138.901 13.4299H135.817C135.601 14.2411 134.884 14.9328 133.688 14.9328H133.545C132.23 14.9328 130.939 13.8588 130.819 12.2129H138.902C138.926 11.8314 138.95 11.4499 138.95 11.0915C138.95 7.63281 137.084 5.03183 133.497 5.03183C129.911 5.03183 127.806 7.65604 127.806 11.2345C127.806 15.1704 130.508 17.4371 133.497 17.4371V17.4381ZM133.305 7.5381H133.448C134.763 7.5381 135.863 8.39675 135.935 9.82814H130.819C130.89 8.39675 131.989 7.5381 133.305 7.5381ZM114.368 17.1995V5.27129H111.26V17.1995H114.368ZM83.0693 0.5H79.7217V3.72017H83.0693V0.5ZM100.596 0.5H97.2483V3.72017H100.596V0.5ZM103.991 14.0981C103.991 16.1264 105.066 17.1995 107.099 17.1995H110.136V14.5753H108.415C107.339 14.5753 107.1 14.3368 107.1 13.2627V7.77576H109.778V5.27129H107.1V1.4069H103.992V5.27129H101.529V7.77576H103.992V14.0972L103.991 14.0981ZM128.093 5.27129H124.889L121.756 14.9095L118.6 5.27129H115.3L119.436 17.1995H123.955L128.092 5.27129H128.093ZM113.818 26.5991H113.961C115.276 26.5991 115.97 27.339 116.16 28.5076H119.269C119.03 25.5251 116.997 24.0946 113.888 24.0946C110.78 24.0946 108.15 26.4802 108.15 30.2974C108.15 34.1144 110.66 36.5 113.888 36.5C117.117 36.5 119.03 35.0686 119.269 32.087H116.16C115.969 33.2558 115.276 33.9955 113.961 33.9955H113.818C112.025 33.9955 111.259 32.3256 111.259 30.2982C111.259 28.2709 112.024 26.6009 113.818 26.6009V26.5991ZM91.4372 5.03272C89.8834 5.03272 88.5437 5.8199 87.8263 7.01272V5.27129H84.7179V17.1995H87.8263V10.567C87.8263 8.89711 88.9745 7.5372 90.4091 7.5372H90.6008C91.7963 7.5372 92.4895 8.37174 92.4895 9.92285V17.1995H95.5979V9.56545C95.5979 6.94124 94.3065 5.03272 91.4372 5.03272ZM103.01 24.0946C101.456 24.0946 100.117 24.8819 99.3994 26.0746V19.5619H96.291V36.2614H99.3994V29.629C99.3994 27.959 100.548 26.5991 101.982 26.5991H102.174C103.369 26.5991 104.063 27.4345 104.063 28.9848V36.2605H107.171V28.6265C107.171 26.0022 105.879 24.0938 103.01 24.0938V24.0946ZM130.412 28.3888C130.412 25.5975 128.38 24.0946 125.391 24.0946C122.401 24.0946 120.489 25.7887 120.25 28.0305H123.358C123.43 27.339 124.123 26.5991 125.319 26.5991H125.462C126.658 26.5991 127.399 27.4345 127.399 28.5076V28.7936L124.387 29.0562C122.02 29.2475 120.011 30.4161 120.011 32.9921C120.011 35.1393 121.781 36.4991 123.933 36.4991C125.487 36.4991 126.754 35.8307 127.472 34.805C127.496 35.3536 127.543 35.9023 127.615 36.2605H130.532C130.412 35.426 130.412 34.352 130.412 33.6364V28.3879V28.3888ZM127.399 31.3945C127.399 32.9456 126.132 33.9946 124.698 33.9946H124.579C123.718 33.9946 123.072 33.5175 123.072 32.7776C123.072 31.7993 124.028 31.3936 124.817 31.3221L127.4 31.0595V31.3936L127.399 31.3945ZM150.545 30.1544C150.545 26.6956 148.68 24.0946 145.093 24.0946C141.506 24.0946 139.403 26.7189 139.403 30.2974C139.403 34.2332 142.104 36.5 145.093 36.5C148.083 36.5 149.923 34.83 150.497 32.4917H147.413C147.198 33.303 146.481 33.9946 145.285 33.9946H145.142C143.827 33.9946 142.535 32.9215 142.416 31.2747H150.498C150.522 30.8932 150.545 30.5117 150.545 30.1535V30.1544ZM142.416 28.89C142.487 27.4586 143.588 26.6 144.902 26.6H145.046C146.36 26.6 147.462 27.4586 147.533 28.89H142.416ZM63.6307 24.0946C60.044 24.0946 57.9395 26.7189 57.9395 30.2974C57.9395 34.2332 60.6415 36.5 63.6307 36.5C66.62 36.5 68.4604 34.83 69.0344 32.4917H65.9502C65.7353 33.303 65.0179 33.9946 63.8224 33.9946H63.6791C62.3644 33.9946 61.073 32.9215 60.9531 31.2747H69.0352C69.0595 30.8932 69.0828 30.5117 69.0828 30.1535C69.0828 26.6947 67.2174 24.0938 63.6307 24.0938V24.0946ZM60.9531 28.89C61.0247 27.4586 62.1245 26.6 63.44 26.6H63.5832C64.8979 26.6 65.9985 27.4586 66.0701 28.89H60.9531ZM135.195 26.7189V24.3333H132.086V36.2614H135.195V30.0588C135.195 28.0314 136.152 27.0771 138.184 27.0771H139.26V24.2144H138.662C136.868 24.2144 135.673 25.1686 135.196 26.7189H135.195ZM63.7973 5.03272C60.2106 5.03272 58.1061 7.65694 58.1061 11.2354C58.1061 15.1713 60.8079 17.4381 63.7973 17.4381C66.7866 17.4381 68.6269 15.7681 69.201 13.4299H66.1167C65.9018 14.2411 65.1844 14.9328 63.989 14.9328H63.8457C62.5309 14.9328 61.2396 13.8588 61.1196 12.2129H69.2019C69.2261 11.8314 69.2493 11.4499 69.2493 11.0915C69.2493 7.63281 67.3839 5.03183 63.7973 5.03183V5.03272ZM61.1196 9.82814C61.1913 8.39675 62.2909 7.5381 63.6066 7.5381H63.7498C65.0645 7.5381 66.1651 8.39675 66.2367 9.82814H61.1196ZM91.8931 32.3256V26.8386H94.5706V24.3333H91.8931V20.4689H88.7845V24.3333H86.3219V26.8386H88.7845V33.1601C88.7845 35.1884 89.8602 36.2614 91.8931 36.2614H94.9298V33.6372H93.2086C92.133 33.6372 91.8939 33.3986 91.8939 32.3256H91.8931ZM71.832 17.2004H74.9405V7.77755H79.8418V17.2004H82.9502V5.27129H74.9405V4.38851C74.9405 3.31453 75.1796 3.07596 76.2551 3.07596H78.3597V0.5H74.9405C72.9076 0.5 71.832 1.57399 71.832 3.60134V5.27129H69.3935V7.77576H71.832V17.1986V17.2004ZM80.2484 28.3897C80.2484 25.5984 78.2164 24.0955 75.2271 24.0955C72.2377 24.0955 70.3258 25.7896 70.0867 28.0314H73.1951C73.2667 27.3399 73.9598 26.6 75.1554 26.6H75.2987C76.4943 26.6 77.2357 27.4355 77.2357 28.5085V28.7945L74.2232 29.0571C71.8562 29.2484 69.8476 30.417 69.8476 32.993C69.8476 35.1401 71.6171 36.5 73.7691 36.5C75.3238 36.5 76.591 35.8316 77.3082 34.8059C77.3324 35.3545 77.38 35.9031 77.4516 36.2614H80.3683C80.2493 35.4269 80.2493 34.3529 80.2493 33.6372V28.3888L80.2484 28.3897ZM77.2357 31.3954C77.2357 32.9465 75.9686 33.9955 74.5339 33.9955H74.4147C73.5541 33.9955 72.9085 33.5184 72.9085 32.7786C72.9085 31.8003 73.8649 31.3945 74.6539 31.323L77.2366 31.0604V31.3945L77.2357 31.3954ZM82.1612 36.2624H85.2696V19.5629H82.1612V36.2624Z" fill="#41197D"/>
</svg>
