<svg width="106" height="106" viewBox="0 0 106 106" fill="none" xmlns="http://www.w3.org/2000/svg">
<g clip-path="url(#clip0_1_3)">
<path d="M55.401 0C66.7578 3.15862 77.1051 11.1183 81.3954 20.8469C87.9571 36.64 86.4429 56.6025 79.2503 68.4789C73.1933 78.2074 63.8555 83.3876 53.1296 83.2612C36.473 83.1349 22.9711 69.8687 22.8449 53.1912C22.8449 36.5136 35.9683 22.7421 53.1296 22.7421C55.9057 22.7421 59.9085 23.1271 64.4512 25.0222C64.4512 25.0222 61.1854 23.0879 52.7979 21.7885C28.6963 18.6299 0.257513 36.8927 6.81921 78.9655C15.9046 95.1376 33.3184 106.13 53.1296 106.003C82.2787 105.877 106.128 81.9978 106.002 52.6858C106.002 24.6372 83.162 0.758069 55.401 0Z" fill="url(#paint0_linear_1_3)"/>
<path d="M75.2114 22.3618C71.1735 13.8967 62.8452 7.20038 52.6241 4.54714C50.3527 3.91542 47.9552 3.66272 45.3053 3.53638C41.3935 3.53638 37.6079 4.04177 33.6961 5.05253C23.9797 7.95846 17.1657 13.644 13.1277 18.066C7.95406 24.0042 4.54702 30.1951 2.52804 36.386C2.52804 36.5124 2.40185 36.6387 2.40185 36.8914C2.27566 37.3968 1.77092 38.9129 1.77092 39.292C1.64473 39.5447 1.64473 39.9237 1.51855 40.1764C1.39236 40.6818 1.26617 41.1871 1.13999 41.6925C1.13999 41.8189 1.13999 41.9452 1.0138 42.0715C-2.26705 58.37 3.18323 72.9963 6.46408 78.4291C7.28469 79.788 7.95855 80.9217 8.6339 81.9619C1.1889 41.5315 22.5917 22.2354 46.9457 21.73C59.6905 21.4774 72.4353 26.6575 78.6185 37.0178C78.2399 31.3322 77.8614 28.1736 75.2114 22.3618Z" fill="url(#paint1_linear_1_3)"/>
</g>
<defs>
<linearGradient id="paint0_linear_1_3" x1="75.3947" y1="-27.5658" x2="-21.0661" y2="24.4264" gradientUnits="userSpaceOnUse">
<stop stop-color="#FF7BFF"/>
<stop offset="0.350158" stop-color="#AA00FF"/>
<stop offset="0.998876" stop-color="#8800CC"/>
</linearGradient>
<linearGradient id="paint1_linear_1_3" x1="28.5064" y1="-11.9171" x2="87.8342" y2="38.8066" gradientUnits="userSpaceOnUse">
<stop offset="0.0354358" stop-color="#FF7BFF"/>
<stop offset="0.576537" stop-color="#8800CC"/>
<stop offset="1" stop-color="#311B92"/>
</linearGradient>
<clipPath id="clip0_1_3">
<rect width="106" height="106" fill="white"/>
</clipPath>
</defs>
</svg>
